M48
; DRILL file KiCad 10.0.5 date 2026-09-28T21:39:35
; FORMAT={-:-/ absolute / metric / decimal}
; #@! TF.CreationDate,2026-09-28T21:39:35+01:00
; #@! TF.GenerationSoftware,Kicad,Pcbnew,10.0.5
; #@! TF.FileFunction,NonPlated,1,2,NPTH
FMAT,2
METRIC
; #@! TA.AperFunction,NonPlated,NPTH,ComponentDrill
T1C1.750
; #@! TA.AperFunction,NonPlated,NPTH,ComponentDrill
T2C2.100
; #@! TA.AperFunction,NonPlated,NPTH,ComponentDrill
T3C3.048
; #@! TA.AperFunction,NonPlated,NPTH,ComponentDrill
T4C3.050
; #@! TA.AperFunction,NonPlated,NPTH,ComponentDrill
T5C3.200
; #@! TA.AperFunction,NonPlated,NPTH,ComponentDrill
T6C3.988
; #@! TA.AperFunction,NonPlated,NPTH,ComponentDrill
T7C4.000
%
G90
G05
T1
X162.451Y-155.426
X164.832Y-231.626
X167.214Y-174.476
X169.595Y-193.526
X171.976Y-212.576
X172.611Y-155.426
X174.992Y-231.626
X177.374Y-174.476
X179.755Y-193.526
X181.501Y-155.426
X182.136Y-212.576
X188.645Y-231.626
X191.026Y-174.476
X191.661Y-155.426
X195.789Y-193.526
X198.805Y-231.626
X200.551Y-155.426
X200.551Y-212.576
X201.186Y-174.476
X205.949Y-193.526
X210.076Y-174.476
X210.711Y-155.426
X210.711Y-212.576
X212.457Y-231.626
X214.839Y-193.526
X219.601Y-155.426
X219.601Y-212.576
X220.236Y-174.476
X222.617Y-231.626
X224.999Y-193.526
X229.126Y-174.476
X229.761Y-155.426
X229.761Y-212.576
X233.889Y-193.526
X238.651Y-155.426
X238.651Y-212.576
X239.286Y-174.476
X244.049Y-193.526
X248.176Y-174.476
X248.811Y-155.426
X248.811Y-212.576
X252.939Y-193.526
X257.701Y-155.426
X257.701Y-212.576
X258.336Y-174.476
X263.099Y-193.526
X267.226Y-174.476
X267.861Y-155.426
X267.861Y-212.576
X271.989Y-193.526
X276.751Y-155.426
X276.751Y-212.576
X277.386Y-174.476
X282.149Y-193.526
X283.895Y-231.626
X286.276Y-174.476
X286.911Y-155.426
X286.911Y-212.576
X291.039Y-193.526
X294.055Y-231.626
X295.801Y-155.426
X295.801Y-212.576
X296.436Y-174.476
X301.199Y-193.526
X305.326Y-174.476
X305.961Y-155.426
X305.961Y-212.576
X310.089Y-193.526
X314.851Y-155.426
X314.851Y-212.576
X315.486Y-174.476
X320.249Y-193.526
X324.376Y-174.476
X325.011Y-155.426
X325.011Y-212.576
X329.139Y-193.526
X333.901Y-155.426
X333.901Y-212.576
X334.536Y-174.476
X339.299Y-193.526
X343.426Y-174.476
X344.061Y-155.426
X344.061Y-212.576
X348.189Y-193.526
X352.951Y-155.426
X352.951Y-212.576
X352.951Y-231.626
X353.586Y-174.476
X358.349Y-193.526
X362.476Y-174.476
X363.111Y-155.426
X363.111Y-212.576
X363.111Y-231.626
X367.239Y-193.526
X372.001Y-155.426
X372.001Y-212.576
X372.001Y-231.626
X372.636Y-174.476
X377.399Y-193.526
X381.526Y-174.476
X382.161Y-155.426
X382.161Y-212.576
X382.161Y-231.626
X386.289Y-193.526
X391.051Y-155.426
X391.051Y-212.576
X391.051Y-231.626
X391.686Y-174.476
X396.449Y-193.526
X400.576Y-174.476
X401.211Y-155.426
X401.211Y-212.576
X401.211Y-231.626
X410.101Y-212.576
X410.101Y-231.626
X410.736Y-174.476
X417.245Y-193.526
X419.626Y-155.426
X420.261Y-212.576
X420.261Y-231.626
X424.389Y-174.476
X427.405Y-193.526
X429.151Y-212.576
X429.151Y-231.626
X429.786Y-155.426
X434.549Y-174.476
X439.311Y-212.576
X439.311Y-231.626
T2
X457.25Y-115.262
T3
X165.15Y-205.591
X188.962Y-205.591
X238.969Y-224.641
X338.981Y-224.641
X410.419Y-186.541
X412.8Y-148.441
X434.231Y-186.541
X436.612Y-148.441
T4
X163.721Y-152.886
X166.102Y-229.086
X168.484Y-171.936
X170.071Y-150.346
X170.865Y-190.986
X172.452Y-226.546
X173.246Y-210.036
X174.834Y-169.396
X177.215Y-188.446
X179.596Y-207.496
X182.771Y-152.886
X189.121Y-150.346
X189.915Y-229.086
X192.296Y-171.936
X196.265Y-226.546
X197.059Y-190.986
X198.646Y-169.396
X201.821Y-152.886
X201.821Y-210.036
X203.409Y-188.446
X208.171Y-150.346
X208.171Y-207.496
X211.346Y-171.936
X213.727Y-229.086
X216.109Y-190.986
X217.696Y-169.396
X220.077Y-226.546
X220.871Y-152.886
X220.871Y-210.036
X222.459Y-188.446
X227.221Y-150.346
X227.221Y-207.496
X230.396Y-171.936
X235.159Y-190.986
X236.746Y-169.396
X239.921Y-152.886
X239.921Y-210.036
X241.509Y-188.446
X246.271Y-150.346
X246.271Y-207.496
X249.446Y-171.936
X254.209Y-190.986
X255.796Y-169.396
X258.971Y-152.886
X258.971Y-210.036
X260.559Y-188.446
X265.321Y-150.346
X265.321Y-207.496
X268.496Y-171.936
X273.259Y-190.986
X274.846Y-169.396
X278.021Y-152.886
X278.021Y-210.036
X279.609Y-188.446
X284.371Y-150.346
X284.371Y-207.496
X285.165Y-229.086
X287.546Y-171.936
X291.515Y-226.546
X292.309Y-190.986
X293.896Y-169.396
X297.071Y-152.886
X297.071Y-210.036
X298.659Y-188.446
X303.421Y-150.346
X303.421Y-207.496
X306.596Y-171.936
X311.359Y-190.986
X312.946Y-169.396
X316.121Y-152.886
X316.121Y-210.036
X317.709Y-188.446
X322.471Y-150.346
X322.471Y-207.496
X325.646Y-171.936
X330.409Y-190.986
X331.996Y-169.396
X335.171Y-152.886
X335.171Y-210.036
X336.759Y-188.446
X341.521Y-150.346
X341.521Y-207.496
X344.696Y-171.936
X349.459Y-190.986
X351.046Y-169.396
X354.221Y-152.886
X354.221Y-210.036
X354.221Y-229.086
X355.809Y-188.446
X360.571Y-150.346
X360.571Y-207.496
X360.571Y-226.546
X363.746Y-171.936
X368.509Y-190.986
X370.096Y-169.396
X373.271Y-152.886
X373.271Y-210.036
X373.271Y-229.086
X374.859Y-188.446
X379.621Y-150.346
X379.621Y-207.496
X379.621Y-226.546
X382.796Y-171.936
X387.559Y-190.986
X389.146Y-169.396
X392.321Y-152.886
X392.321Y-210.036
X392.321Y-229.086
X393.909Y-188.446
X398.671Y-150.346
X398.671Y-207.496
X398.671Y-226.546
X401.846Y-171.936
X408.196Y-169.396
X411.371Y-210.036
X411.371Y-229.086
X417.721Y-207.496
X417.721Y-226.546
X418.515Y-190.986
X420.896Y-152.886
X424.865Y-188.446
X425.659Y-171.936
X427.246Y-150.346
X430.421Y-210.036
X430.421Y-229.086
X432.009Y-169.396
X436.771Y-207.496
X436.771Y-226.546
T5
X152.45Y-197.812
X152.45Y-236.706
X152.847Y-141.853
X234.603Y-247.422
X381.447Y-247.422
X451.694Y-162.094
X452.091Y-195.431
X452.091Y-233.531
T6
X165.15Y-220.831
X188.962Y-220.831
X238.969Y-239.881
X338.981Y-239.881
X410.419Y-201.781
X412.8Y-163.681
X434.231Y-201.781
X436.612Y-163.681
T7
X167.531Y-155.426
X169.912Y-231.626
X172.294Y-174.476
X174.675Y-193.526
X177.056Y-212.576
X186.581Y-155.426
X193.725Y-231.626
X196.106Y-174.476
X200.869Y-193.526
X205.631Y-155.426
X205.631Y-212.576
X215.156Y-174.476
X217.537Y-231.626
X219.919Y-193.526
X224.681Y-155.426
X224.681Y-212.576
X234.206Y-174.476
X238.969Y-193.526
X243.731Y-155.426
X243.731Y-212.576
X253.256Y-174.476
X258.019Y-193.526
X262.781Y-155.426
X262.781Y-212.576
X272.306Y-174.476
X277.069Y-193.526
X281.831Y-155.426
X281.831Y-212.576
X288.975Y-231.626
X291.356Y-174.476
X296.119Y-193.526
X300.881Y-155.426
X300.881Y-212.576
X310.406Y-174.476
X315.169Y-193.526
X319.931Y-155.426
X319.931Y-212.576
X329.456Y-174.476
X334.219Y-193.526
X338.981Y-155.426
X338.981Y-212.576
X348.506Y-174.476
X353.269Y-193.526
X358.031Y-155.426
X358.031Y-212.576
X358.031Y-231.626
X367.556Y-174.476
X372.319Y-193.526
X377.081Y-155.426
X377.081Y-212.576
X377.081Y-231.626
X386.606Y-174.476
X391.369Y-193.526
X396.131Y-155.426
X396.131Y-212.576
X396.131Y-231.626
X405.656Y-174.476
X415.181Y-212.576
X415.181Y-231.626
X422.325Y-193.526
X424.706Y-155.426
X429.469Y-174.476
X434.231Y-212.576
X434.231Y-231.626
M30
