G04 #@! TF.GenerationSoftware,KiCad,Pcbnew,10.0.5*
G04 #@! TF.CreationDate,2026-09-28T21:39:35+01:00*
G04 #@! TF.ProjectId,WIEBZ K1,57494542-5a20-44b3-912e-6b696361645f,rev?*
G04 #@! TF.SameCoordinates,Original*
G04 #@! TF.FileFunction,Paste,Top*
G04 #@! TF.FilePolarity,Positive*
%FSLAX46Y46*%
G04 Gerber Fmt 4.6, Leading zero omitted, Abs format (unit mm)*
G04 Created by KiCad (PCBNEW 10.0.5) date 2026-09-28 21:39:35*
%MOMM*%
%LPD*%
G01*
G04 APERTURE LIST*
G04 Aperture macros list*
%AMRoundRect*
0 Rectangle with rounded corners*
0 $1 Rounding radius*
0 $2 $3 $4 $5 $6 $7 $8 $9 X,Y pos of 4 corners*
0 Add a 4 corners polygon primitive as box body*
4,1,4,$2,$3,$4,$5,$6,$7,$8,$9,$2,$3,0*
0 Add four circle primitives for the rounded corners*
1,1,$1+$1,$2,$3*
1,1,$1+$1,$4,$5*
1,1,$1+$1,$6,$7*
1,1,$1+$1,$8,$9*
0 Add four rect primitives between the rounded corners*
20,1,$1+$1,$2,$3,$4,$5,0*
20,1,$1+$1,$4,$5,$6,$7,0*
20,1,$1+$1,$6,$7,$8,$9,0*
20,1,$1+$1,$8,$9,$2,$3,0*%
G04 Aperture macros list end*
%ADD10RoundRect,0.205000X-0.470000X-0.205000X0.470000X-0.205000X0.470000X0.205000X-0.470000X0.205000X0*%
G04 APERTURE END LIST*
D10*
G04 #@! TO.C,D132*
X150518750Y-246187500D03*
X150518750Y-244687500D03*
X155968750Y-244687500D03*
X155968750Y-246187500D03*
G04 #@! TD*
G04 #@! TO.C,D141*
X450159375Y-153318750D03*
X450159375Y-151818750D03*
X455609375Y-151818750D03*
X455609375Y-153318750D03*
G04 #@! TD*
G04 #@! TO.C,D138*
X450159375Y-246187500D03*
X450159375Y-244687500D03*
X455609375Y-244687500D03*
X455609375Y-246187500D03*
G04 #@! TD*
G04 #@! TO.C,D136*
X351734375Y-246187500D03*
X351734375Y-244687500D03*
X357184375Y-244687500D03*
X357184375Y-246187500D03*
G04 #@! TD*
G04 #@! TO.C,D139*
X450159375Y-214834375D03*
X450159375Y-213334375D03*
X455609375Y-213334375D03*
X455609375Y-214834375D03*
G04 #@! TD*
G04 #@! TO.C,D133*
X194968750Y-246187500D03*
X194968750Y-244687500D03*
X200418750Y-244687500D03*
X200418750Y-246187500D03*
G04 #@! TD*
G04 #@! TO.C,D137*
X402931250Y-246187500D03*
X402931250Y-244687500D03*
X408381250Y-244687500D03*
X408381250Y-246187500D03*
G04 #@! TD*
G04 #@! TO.C,D131*
X150175000Y-216378125D03*
X150175000Y-214878125D03*
X155625000Y-214878125D03*
X155625000Y-216378125D03*
G04 #@! TD*
G04 #@! TO.C,D135*
X296171875Y-246187500D03*
X296171875Y-244687500D03*
X301621875Y-244687500D03*
X301621875Y-246187500D03*
G04 #@! TD*
G04 #@! TO.C,D140*
X450159375Y-181893750D03*
X450159375Y-180393750D03*
X455609375Y-180393750D03*
X455609375Y-181893750D03*
G04 #@! TD*
G04 #@! TO.C,D129*
X150121875Y-150540625D03*
X150121875Y-149040625D03*
X155571875Y-149040625D03*
X155571875Y-150540625D03*
G04 #@! TD*
G04 #@! TO.C,D134*
X247012500Y-246187500D03*
X247012500Y-244687500D03*
X252462500Y-244687500D03*
X252462500Y-246187500D03*
G04 #@! TD*
G04 #@! TO.C,D130*
X150121875Y-183084375D03*
X150121875Y-181584375D03*
X155571875Y-181584375D03*
X155571875Y-183084375D03*
G04 #@! TD*
M02*
