M48
; DRILL file KiCad 10.0.5 date 2026-09-28T21:39:35
; FORMAT={-:-/ absolute / metric / decimal}
; #@! TF.CreationDate,2026-09-28T21:39:35+01:00
; #@! TF.GenerationSoftware,Kicad,Pcbnew,10.0.5
; #@! TF.FileFunction,Plated,1,2,PTH
FMAT,2
METRIC
; #@! TA.AperFunction,Plated,PTH,ViaDrill
T1C0.300
; #@! TA.AperFunction,Plated,PTH,ComponentDrill
T2C0.800
; #@! TA.AperFunction,Plated,PTH,ComponentDrill
T3C1.000
%
G90
G05
T1
X155.228Y-194.637
X156.216Y-195.431
X158.403Y-213.688
X159.197Y-194.637
X161.578Y-158.125
X161.578Y-194.637
X161.975Y-179.556
X162.769Y-223.212
X163.166Y-158.125
X163.166Y-192.256
X163.166Y-236.309
X165.944Y-179.159
X165.944Y-185.906
X168.325Y-223.212
X168.722Y-196.225
X168.722Y-197.812
X169.119Y-213.688
X171.5Y-215.672
X171.5Y-217.656
X173.881Y-158.919
X178.247Y-157.728
X178.247Y-177.969
X180.231Y-157.728
X180.628Y-160.506
X181.025Y-197.416
X183.803Y-216.069
X184.597Y-170.825
X186.184Y-168.841
X186.581Y-176.778
X186.978Y-169.237
X186.978Y-195.828
X188.962Y-176.778
X190.55Y-195.828
X190.919Y-223.009
X190.947Y-179.159
X192.137Y-220.831
X192.534Y-158.522
X193.328Y-222.816
X194.122Y-207.734
X194.519Y-197.812
X194.519Y-221.625
X195.709Y-206.147
X196.106Y-214.878
X197.297Y-157.728
X197.694Y-217.259
X199.281Y-157.728
X199.281Y-215.275
X199.678Y-160.109
X202.059Y-177.572
X206.822Y-176.778
X207.219Y-196.622
X208.806Y-176.778
X209.6Y-179.159
X210.791Y-189.081
X211.188Y-195.828
X211.981Y-185.906
X211.981Y-216.069
X212.378Y-158.919
X213.966Y-195.828
X213.966Y-198.209
X215.156Y-221.431
X215.95Y-214.878
X216.347Y-157.728
X218.331Y-157.728
X218.728Y-214.878
X219.125Y-216.862
X219.522Y-160.109
X221.109Y-177.572
X221.506Y-165.666
X223.094Y-229.562
X224.284Y-165.269
X224.681Y-228.769
X225.872Y-176.778
X226.269Y-196.622
X227.062Y-222.816
X227.856Y-176.778
X229.047Y-179.556
X230.634Y-195.828
X231.031Y-159.316
X233.016Y-195.828
X233.809Y-198.606
X235.397Y-157.728
X237.381Y-157.728
X238.572Y-160.109
X240.556Y-177.572
X241.35Y-165.666
X242.541Y-163.284
X243.334Y-164.678
X244.128Y-198.606
X244.525Y-196.622
X244.922Y-176.778
X246.906Y-176.778
X248.097Y-179.556
X249.287Y-159.316
X249.684Y-193.844
X249.684Y-195.034
X251.669Y-195.431
X252.066Y-197.812
X254.447Y-157.728
X255.637Y-164.872
X256.828Y-157.728
X256.828Y-160.506
X257.225Y-165.666
X259.209Y-177.572
X260.003Y-164.678
X263.972Y-176.778
X263.972Y-182.334
X264.369Y-196.622
X265.956Y-176.778
X266.75Y-179.159
X267.941Y-195.431
X268.337Y-182.334
X269.131Y-158.522
X271.116Y-195.431
X271.512Y-198.606
X273.497Y-157.728
X275.878Y-157.728
X276.302Y-159.685
X278.259Y-177.572
X283.022Y-168.841
X283.022Y-196.622
X283.419Y-176.778
X285.403Y-168.444
X285.403Y-176.778
X285.403Y-179.159
X287.784Y-195.828
X287.784Y-216.069
X288.181Y-158.919
X290.166Y-195.828
X291.356Y-197.812
X292.547Y-157.728
X292.547Y-214.878
X294.531Y-157.728
X294.956Y-159.288
X295.325Y-214.878
X295.325Y-217.259
X297.706Y-177.572
X302.469Y-176.778
X302.469Y-182.334
X302.469Y-196.225
X304.056Y-176.778
X304.453Y-181.144
X305.247Y-179.556
X306.834Y-195.431
X307.628Y-158.919
X308.819Y-195.431
X309.613Y-197.812
X311.994Y-157.728
X313.581Y-157.728
X314.772Y-160.506
X316.756Y-177.572
X320.328Y-169.634
X321.122Y-176.778
X321.122Y-196.225
X323.106Y-168.047
X323.503Y-176.778
X323.9Y-179.159
X325.488Y-187.494
X325.884Y-158.522
X326.281Y-195.431
X327.869Y-197.019
X328.266Y-195.431
X328.662Y-188.684
X330.647Y-157.728
X333.028Y-157.722
X333.028Y-158.522
X334.219Y-163.284
X335.409Y-177.969
X337.791Y-162.887
X340.172Y-176.778
X340.172Y-196.622
X342.156Y-176.778
X343.347Y-179.159
X343.744Y-185.509
X344.934Y-195.828
X345.331Y-158.125
X345.331Y-216.069
X346.919Y-195.828
X347.316Y-185.112
X347.712Y-197.812
X349.3Y-214.878
X349.697Y-157.331
X350.094Y-162.887
X352.078Y-157.331
X352.078Y-160.109
X352.475Y-214.878
X352.872Y-217.259
X353.269Y-162.094
X354.856Y-177.969
X359.222Y-176.778
X359.619Y-197.019
X361.206Y-176.778
X362.397Y-179.159
X363.984Y-158.522
X363.984Y-195.828
X364.381Y-216.466
X365.969Y-195.828
X367.159Y-198.209
X368.35Y-157.728
X368.35Y-214.878
X369.541Y-162.887
X371.128Y-157.728
X371.525Y-160.506
X371.525Y-214.878
X371.922Y-162.094
X371.922Y-217.656
X373.509Y-177.969
X377.478Y-176.778
X378.272Y-196.622
X380.256Y-176.778
X381.447Y-179.159
X383.034Y-195.828
X383.431Y-158.522
X383.431Y-216.069
X385.416Y-195.828
X386.209Y-198.606
X387.003Y-214.878
X387.4Y-157.728
X389.781Y-157.728
X390.178Y-159.713
X390.178Y-214.878
X390.972Y-217.656
X392.559Y-177.572
X396.925Y-176.778
X397.322Y-197.019
X399.703Y-176.778
X400.497Y-179.556
X401.688Y-187.494
X402.481Y-216.069
X403.672Y-195.431
X404.466Y-186.303
X406.053Y-195.431
X406.45Y-204.956
X406.45Y-214.878
X408.037Y-158.522
X409.625Y-214.878
X410.419Y-217.656
X411.609Y-178.366
X413.594Y-195.431
X415.975Y-157.331
X415.975Y-243.453
X416.372Y-195.431
X416.372Y-198.209
X418.753Y-157.331
X418.753Y-160.109
X419.547Y-204.162
X421.134Y-176.778
X421.134Y-216.862
X423.912Y-176.778
X423.912Y-179.159
X425.5Y-214.878
X427.881Y-200.194
X428.278Y-214.878
X428.675Y-216.862
X430.262Y-164.872
X432.247Y-183.922
X438.994Y-221.625
X440.581Y-233.531
X443.359Y-242.262
X445.344Y-231.547
X446.137Y-181.938
X446.137Y-243.056
X446.137Y-245.834
X448.122Y-150.584
X448.122Y-153.362
X448.122Y-243.453
X448.519Y-181.938
X448.519Y-212.894
X449.312Y-216.862
X455.266Y-156.537
X455.662Y-219.244
X457.25Y-195.431
X457.647Y-182.334
T2
X176.262Y-152.569
X176.262Y-160.189
X178.961Y-229.594
X178.961Y-237.214
X181.025Y-172.444
X181.025Y-180.064
X183.724Y-191.494
X183.724Y-199.114
X185.787Y-210.671
X185.787Y-218.291
X195.312Y-152.569
X195.312Y-160.189
X202.774Y-229.594
X202.774Y-237.214
X204.837Y-172.444
X204.837Y-180.064
X209.917Y-191.494
X209.917Y-199.114
X214.362Y-152.569
X214.362Y-160.189
X214.362Y-210.671
X214.362Y-218.291
X223.887Y-172.444
X223.887Y-180.064
X226.586Y-229.594
X226.586Y-237.214
X228.968Y-191.494
X228.968Y-199.114
X233.412Y-152.569
X233.412Y-160.189
X233.412Y-210.671
X233.412Y-218.291
X242.938Y-172.444
X242.938Y-180.064
X248.017Y-191.494
X248.017Y-199.114
X252.462Y-152.569
X252.462Y-160.189
X252.462Y-210.671
X252.462Y-218.291
X261.988Y-172.444
X261.988Y-180.064
X267.067Y-191.494
X267.067Y-199.114
X271.512Y-152.569
X271.512Y-160.189
X271.512Y-210.671
X271.512Y-218.291
X281.037Y-172.444
X281.037Y-180.064
X286.118Y-191.494
X286.118Y-199.114
X290.562Y-152.569
X290.562Y-160.189
X290.562Y-210.671
X290.562Y-218.291
X298.024Y-229.594
X298.024Y-237.214
X300.087Y-172.444
X300.087Y-180.064
X305.167Y-191.494
X305.167Y-199.114
X309.613Y-152.569
X309.613Y-160.189
X309.613Y-210.671
X309.613Y-218.291
X319.137Y-172.444
X319.137Y-180.064
X324.217Y-191.494
X324.217Y-199.114
X328.662Y-152.569
X328.662Y-160.189
X328.662Y-210.671
X328.662Y-218.291
X338.188Y-172.444
X338.188Y-180.064
X343.267Y-191.494
X343.267Y-199.114
X347.712Y-152.569
X347.712Y-160.189
X347.712Y-210.671
X347.712Y-218.291
X357.238Y-172.444
X357.238Y-180.064
X362.317Y-191.494
X362.317Y-199.114
X366.762Y-152.569
X366.762Y-160.189
X366.762Y-210.671
X366.762Y-218.291
X367.08Y-229.594
X367.08Y-237.214
X376.287Y-172.444
X376.287Y-180.064
X381.368Y-191.494
X381.368Y-199.114
X385.812Y-152.569
X385.812Y-160.189
X385.812Y-210.671
X385.812Y-218.291
X386.13Y-229.594
X386.13Y-237.214
X395.337Y-172.444
X395.337Y-180.064
X400.417Y-191.494
X400.417Y-199.114
X404.862Y-152.569
X404.862Y-160.189
X404.862Y-210.671
X404.862Y-218.291
X405.18Y-229.594
X405.18Y-237.214
X414.387Y-172.444
X414.387Y-180.064
X423.912Y-210.671
X423.912Y-218.291
X424.23Y-229.594
X424.23Y-237.214
X431.374Y-191.494
X431.374Y-199.114
X433.438Y-152.569
X433.438Y-160.189
X438.2Y-172.444
X438.2Y-180.064
X442.962Y-210.671
X442.962Y-218.291
X443.28Y-229.594
X443.28Y-237.214
T3
X409.387Y-120.819
X409.387Y-138.599
X411.927Y-120.819
X411.927Y-138.599
X414.467Y-120.819
X414.467Y-138.599
X417.007Y-120.819
X417.007Y-138.599
X419.547Y-120.819
X419.547Y-138.599
X422.087Y-120.819
X422.087Y-138.599
X424.627Y-120.819
X424.627Y-138.599
X427.167Y-120.819
X427.167Y-138.599
X429.707Y-120.819
X429.707Y-138.599
X432.247Y-120.819
X432.247Y-138.599
X434.787Y-120.819
X434.787Y-138.599
X437.327Y-120.819
X437.327Y-138.599
X439.867Y-120.819
X439.867Y-138.599
X442.407Y-120.819
X442.407Y-138.599
X444.947Y-120.819
X444.947Y-138.599
X447.487Y-120.819
X447.487Y-138.599
X450.027Y-120.819
X450.027Y-138.599
X452.567Y-120.819
X452.567Y-138.599
X455.107Y-120.819
X455.107Y-138.599
X457.647Y-120.819
X457.647Y-138.599
M30
