G04 #@! TF.GenerationSoftware,KiCad,Pcbnew,10.0.5*
G04 #@! TF.CreationDate,2026-09-28T21:39:35+01:00*
G04 #@! TF.ProjectId,WIEBZ K1,57494542-5a20-44b3-912e-6b696361645f,rev?*
G04 #@! TF.SameCoordinates,Original*
G04 #@! TF.FileFunction,Soldermask,Bot*
G04 #@! TF.FilePolarity,Negative*
%FSLAX46Y46*%
G04 Gerber Fmt 4.6, Leading zero omitted, Abs format (unit mm)*
G04 Created by KiCad (PCBNEW 10.0.5) date 2026-09-28 21:39:35*
%MOMM*%
%LPD*%
G01*
G04 APERTURE LIST*
G04 Aperture macros list*
%AMRoundRect*
0 Rectangle with rounded corners*
0 $1 Rounding radius*
0 $2 $3 $4 $5 $6 $7 $8 $9 X,Y pos of 4 corners*
0 Add a 4 corners polygon primitive as box body*
4,1,4,$2,$3,$4,$5,$6,$7,$8,$9,$2,$3,0*
0 Add four circle primitives for the rounded corners*
1,1,$1+$1,$2,$3*
1,1,$1+$1,$4,$5*
1,1,$1+$1,$6,$7*
1,1,$1+$1,$8,$9*
0 Add four rect primitives between the rounded corners*
20,1,$1+$1,$2,$3,$4,$5,0*
20,1,$1+$1,$4,$5,$6,$7,0*
20,1,$1+$1,$6,$7,$8,$9,0*
20,1,$1+$1,$8,$9,$2,$3,0*%
%AMFreePoly0*
4,1,37,0.603843,0.796157,0.639018,0.796157,0.711114,0.766294,0.766294,0.711114,0.796157,0.639018,0.796157,0.603843,0.800000,0.600000,0.800000,-0.600000,0.796157,-0.603843,0.796157,-0.639018,0.766294,-0.711114,0.711114,-0.766294,0.639018,-0.796157,0.603843,-0.796157,0.600000,-0.800000,0.000000,-0.800000,0.000000,-0.796148,-0.078414,-0.796148,-0.232228,-0.765552,-0.377117,-0.705537,
-0.507515,-0.618408,-0.618408,-0.507515,-0.705537,-0.377117,-0.765552,-0.232228,-0.796148,-0.078414,-0.796148,0.078414,-0.765552,0.232228,-0.705537,0.377117,-0.618408,0.507515,-0.507515,0.618408,-0.377117,0.705537,-0.232228,0.765552,-0.078414,0.796148,0.000000,0.796148,0.000000,0.800000,0.600000,0.800000,0.603843,0.796157,0.603843,0.796157,$1*%
%AMFreePoly1*
4,1,37,0.000000,0.796148,0.078414,0.796148,0.232228,0.765552,0.377117,0.705537,0.507515,0.618408,0.618408,0.507515,0.705537,0.377117,0.765552,0.232228,0.796148,0.078414,0.796148,-0.078414,0.765552,-0.232228,0.705537,-0.377117,0.618408,-0.507515,0.507515,-0.618408,0.377117,-0.705537,0.232228,-0.765552,0.078414,-0.796148,0.000000,-0.796148,0.000000,-0.800000,-0.600000,-0.800000,
-0.603843,-0.796157,-0.639018,-0.796157,-0.711114,-0.766294,-0.766294,-0.711114,-0.796157,-0.639018,-0.796157,-0.603843,-0.800000,-0.600000,-0.800000,0.600000,-0.796157,0.603843,-0.796157,0.639018,-0.766294,0.711114,-0.711114,0.766294,-0.639018,0.796157,-0.603843,0.796157,-0.600000,0.800000,0.000000,0.800000,0.000000,0.796148,0.000000,0.796148,$1*%
G04 Aperture macros list end*
%ADD10C,1.750000*%
%ADD11C,3.050000*%
%ADD12C,4.000000*%
%ADD13RoundRect,0.250000X-1.025000X-1.000000X1.025000X-1.000000X1.025000X1.000000X-1.025000X1.000000X0*%
%ADD14C,3.200000*%
%ADD15C,3.048000*%
%ADD16C,3.987800*%
%ADD17C,2.100000*%
%ADD18RoundRect,0.200000X-0.600000X0.600000X-0.600000X-0.600000X0.600000X-0.600000X0.600000X0.600000X0*%
%ADD19C,1.600000*%
%ADD20FreePoly0,270.000000*%
%ADD21FreePoly1,270.000000*%
%ADD22RoundRect,0.205000X0.470000X0.205000X-0.470000X0.205000X-0.470000X-0.205000X0.470000X-0.205000X0*%
%ADD23RoundRect,0.250000X0.550000X-0.550000X0.550000X0.550000X-0.550000X0.550000X-0.550000X-0.550000X0*%
G04 APERTURE END LIST*
D10*
G04 #@! TO.C,SW24*
X343426250Y-174476250D03*
D11*
X344696250Y-171936250D03*
D12*
X348506250Y-174476250D03*
D11*
X351046250Y-169396250D03*
D10*
X353586250Y-174476250D03*
D13*
X341421250Y-171936250D03*
X354348250Y-169396250D03*
G04 #@! TD*
D10*
G04 #@! TO.C,SW26*
X381526250Y-174476250D03*
D11*
X382796250Y-171936250D03*
D12*
X386606250Y-174476250D03*
D11*
X389146250Y-169396250D03*
D10*
X391686250Y-174476250D03*
D13*
X379521250Y-171936250D03*
X392448250Y-169396250D03*
G04 #@! TD*
D10*
G04 #@! TO.C,SW9*
X314851250Y-155426250D03*
D11*
X316121250Y-152886250D03*
D12*
X319931250Y-155426250D03*
D11*
X322471250Y-150346250D03*
D10*
X325011250Y-155426250D03*
D13*
X312846250Y-152886250D03*
X325773250Y-150346250D03*
G04 #@! TD*
D10*
G04 #@! TO.C,SW18*
X229126250Y-174476250D03*
D11*
X230396250Y-171936250D03*
D12*
X234206250Y-174476250D03*
D11*
X236746250Y-169396250D03*
D10*
X239286250Y-174476250D03*
D13*
X227121250Y-171936250D03*
X240048250Y-169396250D03*
G04 #@! TD*
D14*
G04 #@! TO.C,H4*
X234603125Y-247421875D03*
G04 #@! TD*
D10*
G04 #@! TO.C,SW21*
X286276250Y-174476250D03*
D11*
X287546250Y-171936250D03*
D12*
X291356250Y-174476250D03*
D11*
X293896250Y-169396250D03*
D10*
X296436250Y-174476250D03*
D13*
X284271250Y-171936250D03*
X297198250Y-169396250D03*
G04 #@! TD*
D10*
G04 #@! TO.C,SW60*
X352951250Y-231626250D03*
D11*
X354221250Y-229086250D03*
D12*
X358031250Y-231626250D03*
D11*
X360571250Y-226546250D03*
D10*
X363111250Y-231626250D03*
D13*
X350946250Y-229086250D03*
X363873250Y-226546250D03*
G04 #@! TD*
D10*
G04 #@! TO.C,SW42*
X171976250Y-212576250D03*
D11*
X173246250Y-210036250D03*
D12*
X177056250Y-212576250D03*
D11*
X179596250Y-207496250D03*
D10*
X182136250Y-212576250D03*
D13*
X169971250Y-210036250D03*
X182898250Y-207496250D03*
G04 #@! TD*
D10*
G04 #@! TO.C,SW2*
X181501250Y-155426250D03*
D11*
X182771250Y-152886250D03*
D12*
X186581250Y-155426250D03*
D11*
X189121250Y-150346250D03*
D10*
X191661250Y-155426250D03*
D13*
X179496250Y-152886250D03*
X192423250Y-150346250D03*
G04 #@! TD*
D10*
G04 #@! TO.C,SW63*
X410101250Y-231626250D03*
D11*
X411371250Y-229086250D03*
D12*
X415181250Y-231626250D03*
D11*
X417721250Y-226546250D03*
D10*
X420261250Y-231626250D03*
D13*
X408096250Y-229086250D03*
X421023250Y-226546250D03*
G04 #@! TD*
D10*
G04 #@! TO.C,SW19*
X248176250Y-174476250D03*
D11*
X249446250Y-171936250D03*
D12*
X253256250Y-174476250D03*
D11*
X255796250Y-169396250D03*
D10*
X258336250Y-174476250D03*
D13*
X246171250Y-171936250D03*
X259098250Y-169396250D03*
G04 #@! TD*
D15*
G04 #@! TO.C,S4*
X412800000Y-148441250D03*
D16*
X412800000Y-163681250D03*
D15*
X436612500Y-148441250D03*
D16*
X436612500Y-163681250D03*
G04 #@! TD*
D10*
G04 #@! TO.C,SW13*
X391051250Y-155426250D03*
D11*
X392321250Y-152886250D03*
D12*
X396131250Y-155426250D03*
D11*
X398671250Y-150346250D03*
D10*
X401211250Y-155426250D03*
D13*
X389046250Y-152886250D03*
X401973250Y-150346250D03*
G04 #@! TD*
D10*
G04 #@! TO.C,SW22*
X305326250Y-174476250D03*
D11*
X306596250Y-171936250D03*
D12*
X310406250Y-174476250D03*
D11*
X312946250Y-169396250D03*
D10*
X315486250Y-174476250D03*
D13*
X303321250Y-171936250D03*
X316248250Y-169396250D03*
G04 #@! TD*
D10*
G04 #@! TO.C,SW55*
X429151250Y-212576250D03*
D11*
X430421250Y-210036250D03*
D12*
X434231250Y-212576250D03*
D11*
X436771250Y-207496250D03*
D10*
X439311250Y-212576250D03*
D13*
X427146250Y-210036250D03*
X440073250Y-207496250D03*
G04 #@! TD*
D10*
G04 #@! TO.C,SW4*
X219601250Y-155426250D03*
D11*
X220871250Y-152886250D03*
D12*
X224681250Y-155426250D03*
D11*
X227221250Y-150346250D03*
D10*
X229761250Y-155426250D03*
D13*
X217596250Y-152886250D03*
X230523250Y-150346250D03*
G04 #@! TD*
D10*
G04 #@! TO.C,SW33*
X252938750Y-193526250D03*
D11*
X254208750Y-190986250D03*
D12*
X258018750Y-193526250D03*
D11*
X260558750Y-188446250D03*
D10*
X263098750Y-193526250D03*
D13*
X250933750Y-190986250D03*
X263860750Y-188446250D03*
G04 #@! TD*
D10*
G04 #@! TO.C,SW10*
X333901250Y-155426250D03*
D11*
X335171250Y-152886250D03*
D12*
X338981250Y-155426250D03*
D11*
X341521250Y-150346250D03*
D10*
X344061250Y-155426250D03*
D13*
X331896250Y-152886250D03*
X344823250Y-150346250D03*
G04 #@! TD*
D10*
G04 #@! TO.C,SW52*
X372001250Y-212576250D03*
D11*
X373271250Y-210036250D03*
D12*
X377081250Y-212576250D03*
D11*
X379621250Y-207496250D03*
D10*
X382161250Y-212576250D03*
D13*
X369996250Y-210036250D03*
X382923250Y-207496250D03*
G04 #@! TD*
D10*
G04 #@! TO.C,SW57*
X188645000Y-231626250D03*
D11*
X189915000Y-229086250D03*
D12*
X193725000Y-231626250D03*
D11*
X196265000Y-226546250D03*
D10*
X198805000Y-231626250D03*
D13*
X186640000Y-229086250D03*
X199567000Y-226546250D03*
G04 #@! TD*
D17*
G04 #@! TO.C,REF\u002A\u002A*
X457250000Y-115262500D03*
G04 #@! TD*
D14*
G04 #@! TO.C,H5*
X381446875Y-247421875D03*
G04 #@! TD*
D10*
G04 #@! TO.C,SW28*
X424388750Y-174476250D03*
D11*
X425658750Y-171936250D03*
D12*
X429468750Y-174476250D03*
D11*
X432008750Y-169396250D03*
D10*
X434548750Y-174476250D03*
D13*
X422383750Y-171936250D03*
X435310750Y-169396250D03*
G04 #@! TD*
D10*
G04 #@! TO.C,SW41*
X417245000Y-193526250D03*
D11*
X418515000Y-190986250D03*
D12*
X422325000Y-193526250D03*
D11*
X424865000Y-188446250D03*
D10*
X427405000Y-193526250D03*
D13*
X415240000Y-190986250D03*
X428167000Y-188446250D03*
G04 #@! TD*
D10*
G04 #@! TO.C,SW1*
X162451250Y-155426250D03*
D11*
X163721250Y-152886250D03*
D12*
X167531250Y-155426250D03*
D11*
X170071250Y-150346250D03*
D10*
X172611250Y-155426250D03*
D13*
X160446250Y-152886250D03*
X173373250Y-150346250D03*
G04 #@! TD*
D10*
G04 #@! TO.C,SW8*
X295801250Y-155426250D03*
D11*
X297071250Y-152886250D03*
D12*
X300881250Y-155426250D03*
D11*
X303421250Y-150346250D03*
D10*
X305961250Y-155426250D03*
D13*
X293796250Y-152886250D03*
X306723250Y-150346250D03*
G04 #@! TD*
D10*
G04 #@! TO.C,SW6*
X257701250Y-155426250D03*
D11*
X258971250Y-152886250D03*
D12*
X262781250Y-155426250D03*
D11*
X265321250Y-150346250D03*
D10*
X267861250Y-155426250D03*
D13*
X255696250Y-152886250D03*
X268623250Y-150346250D03*
G04 #@! TD*
D10*
G04 #@! TO.C,SW5*
X238651250Y-155426250D03*
D11*
X239921250Y-152886250D03*
D12*
X243731250Y-155426250D03*
D11*
X246271250Y-150346250D03*
D10*
X248811250Y-155426250D03*
D13*
X236646250Y-152886250D03*
X249573250Y-150346250D03*
G04 #@! TD*
D10*
G04 #@! TO.C,SW23*
X324376250Y-174476250D03*
D11*
X325646250Y-171936250D03*
D12*
X329456250Y-174476250D03*
D11*
X331996250Y-169396250D03*
D10*
X334536250Y-174476250D03*
D13*
X322371250Y-171936250D03*
X335298250Y-169396250D03*
G04 #@! TD*
D14*
G04 #@! TO.C,H3*
X152450000Y-236706250D03*
G04 #@! TD*
D10*
G04 #@! TO.C,SW45*
X238651250Y-212576250D03*
D11*
X239921250Y-210036250D03*
D12*
X243731250Y-212576250D03*
D11*
X246271250Y-207496250D03*
D10*
X248811250Y-212576250D03*
D13*
X236646250Y-210036250D03*
X249573250Y-207496250D03*
G04 #@! TD*
D10*
G04 #@! TO.C,SW16*
X191026250Y-174476250D03*
D11*
X192296250Y-171936250D03*
D12*
X196106250Y-174476250D03*
D11*
X198646250Y-169396250D03*
D10*
X201186250Y-174476250D03*
D13*
X189021250Y-171936250D03*
X201948250Y-169396250D03*
G04 #@! TD*
D10*
G04 #@! TO.C,SW62*
X391051250Y-231626250D03*
D11*
X392321250Y-229086250D03*
D12*
X396131250Y-231626250D03*
D11*
X398671250Y-226546250D03*
D10*
X401211250Y-231626250D03*
D13*
X389046250Y-229086250D03*
X401973250Y-226546250D03*
G04 #@! TD*
D10*
G04 #@! TO.C,SW29*
X169595000Y-193526250D03*
D11*
X170865000Y-190986250D03*
D12*
X174675000Y-193526250D03*
D11*
X177215000Y-188446250D03*
D10*
X179755000Y-193526250D03*
D13*
X167590000Y-190986250D03*
X180517000Y-188446250D03*
G04 #@! TD*
D10*
G04 #@! TO.C,SW44*
X219601250Y-212576250D03*
D11*
X220871250Y-210036250D03*
D12*
X224681250Y-212576250D03*
D11*
X227221250Y-207496250D03*
D10*
X229761250Y-212576250D03*
D13*
X217596250Y-210036250D03*
X230523250Y-207496250D03*
G04 #@! TD*
D10*
G04 #@! TO.C,SW30*
X195788750Y-193526250D03*
D11*
X197058750Y-190986250D03*
D12*
X200868750Y-193526250D03*
D11*
X203408750Y-188446250D03*
D10*
X205948750Y-193526250D03*
D13*
X193783750Y-190986250D03*
X206710750Y-188446250D03*
G04 #@! TD*
D10*
G04 #@! TO.C,SW46*
X257701250Y-212576250D03*
D11*
X258971250Y-210036250D03*
D12*
X262781250Y-212576250D03*
D11*
X265321250Y-207496250D03*
D10*
X267861250Y-212576250D03*
D13*
X255696250Y-210036250D03*
X268623250Y-207496250D03*
G04 #@! TD*
D10*
G04 #@! TO.C,SW12*
X372001250Y-155426250D03*
D11*
X373271250Y-152886250D03*
D12*
X377081250Y-155426250D03*
D11*
X379621250Y-150346250D03*
D10*
X382161250Y-155426250D03*
D13*
X369996250Y-152886250D03*
X382923250Y-150346250D03*
G04 #@! TD*
D10*
G04 #@! TO.C,SW53*
X391051250Y-212576250D03*
D11*
X392321250Y-210036250D03*
D12*
X396131250Y-212576250D03*
D11*
X398671250Y-207496250D03*
D10*
X401211250Y-212576250D03*
D13*
X389046250Y-210036250D03*
X401973250Y-207496250D03*
G04 #@! TD*
D10*
G04 #@! TO.C,SW43*
X200551250Y-212576250D03*
D11*
X201821250Y-210036250D03*
D12*
X205631250Y-212576250D03*
D11*
X208171250Y-207496250D03*
D10*
X210711250Y-212576250D03*
D13*
X198546250Y-210036250D03*
X211473250Y-207496250D03*
G04 #@! TD*
D10*
G04 #@! TO.C,SW64*
X429151250Y-231626250D03*
D11*
X430421250Y-229086250D03*
D12*
X434231250Y-231626250D03*
D11*
X436771250Y-226546250D03*
D10*
X439311250Y-231626250D03*
D13*
X427146250Y-229086250D03*
X440073250Y-226546250D03*
G04 #@! TD*
D14*
G04 #@! TO.C,H8*
X451693750Y-162093750D03*
G04 #@! TD*
D10*
G04 #@! TO.C,SW34*
X271988750Y-193526250D03*
D11*
X273258750Y-190986250D03*
D12*
X277068750Y-193526250D03*
D11*
X279608750Y-188446250D03*
D10*
X282148750Y-193526250D03*
D13*
X269983750Y-190986250D03*
X282910750Y-188446250D03*
G04 #@! TD*
D10*
G04 #@! TO.C,SW38*
X348188750Y-193526250D03*
D11*
X349458750Y-190986250D03*
D12*
X353268750Y-193526250D03*
D11*
X355808750Y-188446250D03*
D10*
X358348750Y-193526250D03*
D13*
X346183750Y-190986250D03*
X359110750Y-188446250D03*
G04 #@! TD*
D10*
G04 #@! TO.C,SW58*
X212457500Y-231626250D03*
D11*
X213727500Y-229086250D03*
D12*
X217537500Y-231626250D03*
D11*
X220077500Y-226546250D03*
D10*
X222617500Y-231626250D03*
D13*
X210452500Y-229086250D03*
X223379500Y-226546250D03*
G04 #@! TD*
D14*
G04 #@! TO.C,H1*
X152846875Y-141853125D03*
G04 #@! TD*
D10*
G04 #@! TO.C,SW36*
X310088750Y-193526250D03*
D11*
X311358750Y-190986250D03*
D12*
X315168750Y-193526250D03*
D11*
X317708750Y-188446250D03*
D10*
X320248750Y-193526250D03*
D13*
X308083750Y-190986250D03*
X321010750Y-188446250D03*
G04 #@! TD*
D10*
G04 #@! TO.C,SW3*
X200551250Y-155426250D03*
D11*
X201821250Y-152886250D03*
D12*
X205631250Y-155426250D03*
D11*
X208171250Y-150346250D03*
D10*
X210711250Y-155426250D03*
D13*
X198546250Y-152886250D03*
X211473250Y-150346250D03*
G04 #@! TD*
D14*
G04 #@! TO.C,H7*
X452090625Y-195431250D03*
G04 #@! TD*
D10*
G04 #@! TO.C,SW39*
X367238750Y-193526250D03*
D11*
X368508750Y-190986250D03*
D12*
X372318750Y-193526250D03*
D11*
X374858750Y-188446250D03*
D10*
X377398750Y-193526250D03*
D13*
X365233750Y-190986250D03*
X378160750Y-188446250D03*
G04 #@! TD*
D10*
G04 #@! TO.C,SW17*
X210076250Y-174476250D03*
D11*
X211346250Y-171936250D03*
D12*
X215156250Y-174476250D03*
D11*
X217696250Y-169396250D03*
D10*
X220236250Y-174476250D03*
D13*
X208071250Y-171936250D03*
X220998250Y-169396250D03*
G04 #@! TD*
D10*
G04 #@! TO.C,SW31*
X214838750Y-193526250D03*
D11*
X216108750Y-190986250D03*
D12*
X219918750Y-193526250D03*
D11*
X222458750Y-188446250D03*
D10*
X224998750Y-193526250D03*
D13*
X212833750Y-190986250D03*
X225760750Y-188446250D03*
G04 #@! TD*
D15*
G04 #@! TO.C,S3*
X165150000Y-205591250D03*
D16*
X165150000Y-220831250D03*
D15*
X188962500Y-205591250D03*
D16*
X188962500Y-220831250D03*
G04 #@! TD*
D10*
G04 #@! TO.C,SW7*
X276751250Y-155426250D03*
D11*
X278021250Y-152886250D03*
D12*
X281831250Y-155426250D03*
D11*
X284371250Y-150346250D03*
D10*
X286911250Y-155426250D03*
D13*
X274746250Y-152886250D03*
X287673250Y-150346250D03*
G04 #@! TD*
D10*
G04 #@! TO.C,SW47*
X276751250Y-212576250D03*
D11*
X278021250Y-210036250D03*
D12*
X281831250Y-212576250D03*
D11*
X284371250Y-207496250D03*
D10*
X286911250Y-212576250D03*
D13*
X274746250Y-210036250D03*
X287673250Y-207496250D03*
G04 #@! TD*
D10*
G04 #@! TO.C,SW32*
X233888750Y-193526250D03*
D11*
X235158750Y-190986250D03*
D12*
X238968750Y-193526250D03*
D11*
X241508750Y-188446250D03*
D10*
X244048750Y-193526250D03*
D13*
X231883750Y-190986250D03*
X244810750Y-188446250D03*
G04 #@! TD*
D10*
G04 #@! TO.C,SW49*
X314851250Y-212576250D03*
D11*
X316121250Y-210036250D03*
D12*
X319931250Y-212576250D03*
D11*
X322471250Y-207496250D03*
D10*
X325011250Y-212576250D03*
D13*
X312846250Y-210036250D03*
X325773250Y-207496250D03*
G04 #@! TD*
D10*
G04 #@! TO.C,SW48*
X295801250Y-212576250D03*
D11*
X297071250Y-210036250D03*
D12*
X300881250Y-212576250D03*
D11*
X303421250Y-207496250D03*
D10*
X305961250Y-212576250D03*
D13*
X293796250Y-210036250D03*
X306723250Y-207496250D03*
G04 #@! TD*
D10*
G04 #@! TO.C,SW40*
X386288750Y-193526250D03*
D11*
X387558750Y-190986250D03*
D12*
X391368750Y-193526250D03*
D11*
X393908750Y-188446250D03*
D10*
X396448750Y-193526250D03*
D13*
X384283750Y-190986250D03*
X397210750Y-188446250D03*
G04 #@! TD*
D10*
G04 #@! TO.C,SW25*
X362476250Y-174476250D03*
D11*
X363746250Y-171936250D03*
D12*
X367556250Y-174476250D03*
D11*
X370096250Y-169396250D03*
D10*
X372636250Y-174476250D03*
D13*
X360471250Y-171936250D03*
X373398250Y-169396250D03*
G04 #@! TD*
D10*
G04 #@! TO.C,SW14*
X419626250Y-155426250D03*
D11*
X420896250Y-152886250D03*
D12*
X424706250Y-155426250D03*
D11*
X427246250Y-150346250D03*
D10*
X429786250Y-155426250D03*
D13*
X417621250Y-152886250D03*
X430548250Y-150346250D03*
G04 #@! TD*
D10*
G04 #@! TO.C,SW35*
X291038750Y-193526250D03*
D11*
X292308750Y-190986250D03*
D12*
X296118750Y-193526250D03*
D11*
X298658750Y-188446250D03*
D10*
X301198750Y-193526250D03*
D13*
X289033750Y-190986250D03*
X301960750Y-188446250D03*
G04 #@! TD*
D10*
G04 #@! TO.C,SW51*
X352951250Y-212576250D03*
D11*
X354221250Y-210036250D03*
D12*
X358031250Y-212576250D03*
D11*
X360571250Y-207496250D03*
D10*
X363111250Y-212576250D03*
D13*
X350946250Y-210036250D03*
X363873250Y-207496250D03*
G04 #@! TD*
D10*
G04 #@! TO.C,SW50*
X333901250Y-212576250D03*
D11*
X335171250Y-210036250D03*
D12*
X338981250Y-212576250D03*
D11*
X341521250Y-207496250D03*
D10*
X344061250Y-212576250D03*
D13*
X331896250Y-210036250D03*
X344823250Y-207496250D03*
G04 #@! TD*
D10*
G04 #@! TO.C,SW15*
X167213750Y-174476250D03*
D11*
X168483750Y-171936250D03*
D12*
X172293750Y-174476250D03*
D11*
X174833750Y-169396250D03*
D10*
X177373750Y-174476250D03*
D13*
X165208750Y-171936250D03*
X178135750Y-169396250D03*
G04 #@! TD*
D10*
G04 #@! TO.C,SW37*
X329138750Y-193526250D03*
D11*
X330408750Y-190986250D03*
D12*
X334218750Y-193526250D03*
D11*
X336758750Y-188446250D03*
D10*
X339298750Y-193526250D03*
D13*
X327133750Y-190986250D03*
X340060750Y-188446250D03*
G04 #@! TD*
D15*
G04 #@! TO.C,S2*
X410418750Y-186541250D03*
D16*
X410418750Y-201781250D03*
D15*
X434231250Y-186541250D03*
D16*
X434231250Y-201781250D03*
G04 #@! TD*
D10*
G04 #@! TO.C,SW20*
X267226250Y-174476250D03*
D11*
X268496250Y-171936250D03*
D12*
X272306250Y-174476250D03*
D11*
X274846250Y-169396250D03*
D10*
X277386250Y-174476250D03*
D13*
X265221250Y-171936250D03*
X278148250Y-169396250D03*
G04 #@! TD*
D14*
G04 #@! TO.C,H6*
X452090625Y-233531250D03*
G04 #@! TD*
D10*
G04 #@! TO.C,SW56*
X164832500Y-231626250D03*
D11*
X166102500Y-229086250D03*
D12*
X169912500Y-231626250D03*
D11*
X172452500Y-226546250D03*
D10*
X174992500Y-231626250D03*
D13*
X162827500Y-229086250D03*
X175754500Y-226546250D03*
G04 #@! TD*
D10*
G04 #@! TO.C,SW11*
X352951250Y-155426250D03*
D11*
X354221250Y-152886250D03*
D12*
X358031250Y-155426250D03*
D11*
X360571250Y-150346250D03*
D10*
X363111250Y-155426250D03*
D13*
X350946250Y-152886250D03*
X363873250Y-150346250D03*
G04 #@! TD*
D14*
G04 #@! TO.C,H2*
X152450000Y-197812500D03*
G04 #@! TD*
D10*
G04 #@! TO.C,SW27*
X400576250Y-174476250D03*
D11*
X401846250Y-171936250D03*
D12*
X405656250Y-174476250D03*
D11*
X408196250Y-169396250D03*
D10*
X410736250Y-174476250D03*
D13*
X398571250Y-171936250D03*
X411498250Y-169396250D03*
G04 #@! TD*
D15*
G04 #@! TO.C,S1*
X238968750Y-224641250D03*
D16*
X238968750Y-239881250D03*
D15*
X338981250Y-224641250D03*
D16*
X338981250Y-239881250D03*
G04 #@! TD*
D18*
G04 #@! TO.C,A1*
X457646875Y-120818750D03*
D19*
X455106875Y-120818750D03*
D20*
X452566875Y-120818750D03*
D19*
X450026875Y-120818750D03*
X447486875Y-120818750D03*
X444946875Y-120818750D03*
X442406875Y-120818750D03*
D20*
X439866875Y-120818750D03*
D19*
X437326875Y-120818750D03*
X434786875Y-120818750D03*
X432246875Y-120818750D03*
X429706875Y-120818750D03*
D20*
X427166875Y-120818750D03*
D19*
X424626875Y-120818750D03*
X422086875Y-120818750D03*
X419546875Y-120818750D03*
X417006875Y-120818750D03*
D20*
X414466875Y-120818750D03*
D19*
X411926875Y-120818750D03*
X409386875Y-120818750D03*
X409386875Y-138598750D03*
X411926875Y-138598750D03*
D21*
X414466875Y-138598750D03*
D19*
X417006875Y-138598750D03*
X419546875Y-138598750D03*
X422086875Y-138598750D03*
X424626875Y-138598750D03*
D21*
X427166875Y-138598750D03*
D19*
X429706875Y-138598750D03*
X432246875Y-138598750D03*
X434786875Y-138598750D03*
X437326875Y-138598750D03*
D21*
X439866875Y-138598750D03*
D19*
X442406875Y-138598750D03*
X444946875Y-138598750D03*
X447486875Y-138598750D03*
X450026875Y-138598750D03*
D21*
X452566875Y-138598750D03*
D19*
X455106875Y-138598750D03*
X457646875Y-138598750D03*
G04 #@! TD*
D10*
G04 #@! TO.C,SW61*
X372001250Y-231626250D03*
D11*
X373271250Y-229086250D03*
D12*
X377081250Y-231626250D03*
D11*
X379621250Y-226546250D03*
D10*
X382161250Y-231626250D03*
D13*
X369996250Y-229086250D03*
X382923250Y-226546250D03*
G04 #@! TD*
D10*
G04 #@! TO.C,SW59*
X283895000Y-231626250D03*
D11*
X285165000Y-229086250D03*
D12*
X288975000Y-231626250D03*
D11*
X291515000Y-226546250D03*
D10*
X294055000Y-231626250D03*
D13*
X281890000Y-229086250D03*
X294817000Y-226546250D03*
G04 #@! TD*
D10*
G04 #@! TO.C,SW54*
X410101250Y-212576250D03*
D11*
X411371250Y-210036250D03*
D12*
X415181250Y-212576250D03*
D11*
X417721250Y-207496250D03*
D10*
X420261250Y-212576250D03*
D13*
X408096250Y-210036250D03*
X421023250Y-207496250D03*
G04 #@! TD*
D22*
G04 #@! TO.C,D73*
X172637500Y-237059375D03*
X172637500Y-235559375D03*
X167187500Y-235559375D03*
X167187500Y-237059375D03*
G04 #@! TD*
D23*
G04 #@! TO.C,D42*
X185787500Y-218291250D03*
D19*
X185787500Y-210671250D03*
G04 #@! TD*
D23*
G04 #@! TO.C,D23*
X338187500Y-180063750D03*
D19*
X338187500Y-172443750D03*
G04 #@! TD*
D23*
G04 #@! TO.C,D43*
X214362500Y-218291250D03*
D19*
X214362500Y-210671250D03*
G04 #@! TD*
D22*
G04 #@! TO.C,D84*
X246456250Y-218009375D03*
X246456250Y-216509375D03*
X241006250Y-216509375D03*
X241006250Y-218009375D03*
G04 #@! TD*
G04 #@! TO.C,D68*
X379806250Y-237059375D03*
X379806250Y-235559375D03*
X374356250Y-235559375D03*
X374356250Y-237059375D03*
G04 #@! TD*
G04 #@! TO.C,D78*
X360756250Y-218009375D03*
X360756250Y-216509375D03*
X355306250Y-216509375D03*
X355306250Y-218009375D03*
G04 #@! TD*
D23*
G04 #@! TO.C,D18*
X242937500Y-180063750D03*
D19*
X242937500Y-172443750D03*
G04 #@! TD*
D23*
G04 #@! TO.C,D46*
X271512500Y-218291250D03*
D19*
X271512500Y-210671250D03*
G04 #@! TD*
D22*
G04 #@! TO.C,D113*
X198831250Y-179909375D03*
X198831250Y-178409375D03*
X193381250Y-178409375D03*
X193381250Y-179909375D03*
G04 #@! TD*
G04 #@! TO.C,D120*
X322656250Y-160859375D03*
X322656250Y-159359375D03*
X317206250Y-159359375D03*
X317206250Y-160859375D03*
G04 #@! TD*
D23*
G04 #@! TO.C,D24*
X357237500Y-180063750D03*
D19*
X357237500Y-172443750D03*
G04 #@! TD*
D23*
G04 #@! TO.C,D9*
X328662500Y-160188750D03*
D19*
X328662500Y-152568750D03*
G04 #@! TD*
D23*
G04 #@! TO.C,D11*
X366762500Y-160188750D03*
D19*
X366762500Y-152568750D03*
G04 #@! TD*
D22*
G04 #@! TO.C,D127*
X189306250Y-160859375D03*
X189306250Y-159359375D03*
X183856250Y-159359375D03*
X183856250Y-160859375D03*
G04 #@! TD*
D23*
G04 #@! TO.C,D38*
X362317500Y-199113750D03*
D19*
X362317500Y-191493750D03*
G04 #@! TD*
D22*
G04 #@! TO.C,D109*
X275031250Y-179909375D03*
X275031250Y-178409375D03*
X269581250Y-178409375D03*
X269581250Y-179909375D03*
G04 #@! TD*
G04 #@! TO.C,D119*
X341706250Y-160859375D03*
X341706250Y-159359375D03*
X336256250Y-159359375D03*
X336256250Y-160859375D03*
G04 #@! TD*
G04 #@! TO.C,D101*
X432193750Y-179909375D03*
X432193750Y-178409375D03*
X426743750Y-178409375D03*
X426743750Y-179909375D03*
G04 #@! TD*
G04 #@! TO.C,D83*
X265506250Y-218009375D03*
X265506250Y-216509375D03*
X260056250Y-216509375D03*
X260056250Y-218009375D03*
G04 #@! TD*
G04 #@! TO.C,D77*
X379806250Y-218009375D03*
X379806250Y-216509375D03*
X374356250Y-216509375D03*
X374356250Y-218009375D03*
G04 #@! TD*
D23*
G04 #@! TO.C,D41*
X431373750Y-199113750D03*
D19*
X431373750Y-191493750D03*
G04 #@! TD*
D23*
G04 #@! TO.C,D16*
X204837500Y-180063750D03*
D19*
X204837500Y-172443750D03*
G04 #@! TD*
D23*
G04 #@! TO.C,D26*
X395337500Y-180063750D03*
D19*
X395337500Y-172443750D03*
G04 #@! TD*
D22*
G04 #@! TO.C,D115*
X427431250Y-160859375D03*
X427431250Y-159359375D03*
X421981250Y-159359375D03*
X421981250Y-160859375D03*
G04 #@! TD*
D23*
G04 #@! TO.C,D34*
X286117500Y-199113750D03*
D19*
X286117500Y-191493750D03*
G04 #@! TD*
D23*
G04 #@! TO.C,D47*
X290562500Y-218291250D03*
D19*
X290562500Y-210671250D03*
G04 #@! TD*
D22*
G04 #@! TO.C,D96*
X260743750Y-198959375D03*
X260743750Y-197459375D03*
X255293750Y-197459375D03*
X255293750Y-198959375D03*
G04 #@! TD*
D23*
G04 #@! TO.C,D51*
X366762500Y-218291250D03*
D19*
X366762500Y-210671250D03*
G04 #@! TD*
D22*
G04 #@! TO.C,D87*
X179781250Y-218009375D03*
X179781250Y-216509375D03*
X174331250Y-216509375D03*
X174331250Y-218009375D03*
G04 #@! TD*
G04 #@! TO.C,D85*
X227406250Y-218009375D03*
X227406250Y-216509375D03*
X221956250Y-216509375D03*
X221956250Y-218009375D03*
G04 #@! TD*
G04 #@! TO.C,D74*
X436956250Y-218009375D03*
X436956250Y-216509375D03*
X431506250Y-216509375D03*
X431506250Y-218009375D03*
G04 #@! TD*
G04 #@! TO.C,D75*
X417906250Y-218009375D03*
X417906250Y-216509375D03*
X412456250Y-216509375D03*
X412456250Y-218009375D03*
G04 #@! TD*
D23*
G04 #@! TO.C,D27*
X414387500Y-180063750D03*
D19*
X414387500Y-172443750D03*
G04 #@! TD*
D22*
G04 #@! TO.C,D70*
X291700000Y-237059375D03*
X291700000Y-235559375D03*
X286250000Y-235559375D03*
X286250000Y-237059375D03*
G04 #@! TD*
G04 #@! TO.C,D92*
X336943750Y-198959375D03*
X336943750Y-197459375D03*
X331493750Y-197459375D03*
X331493750Y-198959375D03*
G04 #@! TD*
D23*
G04 #@! TO.C,D3*
X214362500Y-160188750D03*
D19*
X214362500Y-152568750D03*
G04 #@! TD*
D23*
G04 #@! TO.C,D54*
X423912500Y-218291250D03*
D19*
X423912500Y-210671250D03*
G04 #@! TD*
D23*
G04 #@! TO.C,D44*
X233412500Y-218291250D03*
D19*
X233412500Y-210671250D03*
G04 #@! TD*
D23*
G04 #@! TO.C,D14*
X433437500Y-160188750D03*
D19*
X433437500Y-152568750D03*
G04 #@! TD*
D22*
G04 #@! TO.C,D128*
X170256250Y-160859375D03*
X170256250Y-159359375D03*
X164806250Y-159359375D03*
X164806250Y-160859375D03*
G04 #@! TD*
D23*
G04 #@! TO.C,D37*
X343267500Y-199113750D03*
D19*
X343267500Y-191493750D03*
G04 #@! TD*
D22*
G04 #@! TO.C,D86*
X208356250Y-218009375D03*
X208356250Y-216509375D03*
X202906250Y-216509375D03*
X202906250Y-218009375D03*
G04 #@! TD*
D23*
G04 #@! TO.C,D10*
X347712500Y-160188750D03*
D19*
X347712500Y-152568750D03*
G04 #@! TD*
D23*
G04 #@! TO.C,D28*
X438200000Y-180063750D03*
D19*
X438200000Y-172443750D03*
G04 #@! TD*
D22*
G04 #@! TO.C,D116*
X398856250Y-160859375D03*
X398856250Y-159359375D03*
X393406250Y-159359375D03*
X393406250Y-160859375D03*
G04 #@! TD*
G04 #@! TO.C,D91*
X355993750Y-198959375D03*
X355993750Y-197459375D03*
X350543750Y-197459375D03*
X350543750Y-198959375D03*
G04 #@! TD*
D23*
G04 #@! TO.C,D62*
X405180000Y-237213750D03*
D19*
X405180000Y-229593750D03*
G04 #@! TD*
D22*
G04 #@! TO.C,D67*
X398856250Y-237059375D03*
X398856250Y-235559375D03*
X393406250Y-235559375D03*
X393406250Y-237059375D03*
G04 #@! TD*
G04 #@! TO.C,D103*
X389331250Y-179909375D03*
X389331250Y-178409375D03*
X383881250Y-178409375D03*
X383881250Y-179909375D03*
G04 #@! TD*
D23*
G04 #@! TO.C,D29*
X183723750Y-199113750D03*
D19*
X183723750Y-191493750D03*
G04 #@! TD*
D23*
G04 #@! TO.C,D6*
X271512500Y-160188750D03*
D19*
X271512500Y-152568750D03*
G04 #@! TD*
D23*
G04 #@! TO.C,D40*
X400417500Y-199113750D03*
D19*
X400417500Y-191493750D03*
G04 #@! TD*
D22*
G04 #@! TO.C,D79*
X341706250Y-218009375D03*
X341706250Y-216509375D03*
X336256250Y-216509375D03*
X336256250Y-218009375D03*
G04 #@! TD*
G04 #@! TO.C,D110*
X255981250Y-179909375D03*
X255981250Y-178409375D03*
X250531250Y-178409375D03*
X250531250Y-179909375D03*
G04 #@! TD*
D23*
G04 #@! TO.C,D19*
X261987500Y-180063750D03*
D19*
X261987500Y-172443750D03*
G04 #@! TD*
D22*
G04 #@! TO.C,D111*
X236931250Y-179909375D03*
X236931250Y-178409375D03*
X231481250Y-178409375D03*
X231481250Y-179909375D03*
G04 #@! TD*
D23*
G04 #@! TO.C,D5*
X252462500Y-160188750D03*
D19*
X252462500Y-152568750D03*
G04 #@! TD*
D23*
G04 #@! TO.C,D52*
X385812500Y-218291250D03*
D19*
X385812500Y-210671250D03*
G04 #@! TD*
D23*
G04 #@! TO.C,D63*
X424230000Y-237213750D03*
D19*
X424230000Y-229593750D03*
G04 #@! TD*
D23*
G04 #@! TO.C,D39*
X381367500Y-199113750D03*
D19*
X381367500Y-191493750D03*
G04 #@! TD*
D22*
G04 #@! TO.C,D88*
X425050000Y-198959375D03*
X425050000Y-197459375D03*
X419600000Y-197459375D03*
X419600000Y-198959375D03*
G04 #@! TD*
G04 #@! TO.C,D108*
X294081250Y-179909375D03*
X294081250Y-178409375D03*
X288631250Y-178409375D03*
X288631250Y-179909375D03*
G04 #@! TD*
D23*
G04 #@! TO.C,D20*
X281037500Y-180063750D03*
D19*
X281037500Y-172443750D03*
G04 #@! TD*
D22*
G04 #@! TO.C,D82*
X284556250Y-218009375D03*
X284556250Y-216509375D03*
X279106250Y-216509375D03*
X279106250Y-218009375D03*
G04 #@! TD*
G04 #@! TO.C,D76*
X398856250Y-218009375D03*
X398856250Y-216509375D03*
X393406250Y-216509375D03*
X393406250Y-218009375D03*
G04 #@! TD*
G04 #@! TO.C,D95*
X279793750Y-198959375D03*
X279793750Y-197459375D03*
X274343750Y-197459375D03*
X274343750Y-198959375D03*
G04 #@! TD*
D23*
G04 #@! TO.C,D36*
X324217500Y-199113750D03*
D19*
X324217500Y-191493750D03*
G04 #@! TD*
D23*
G04 #@! TO.C,D4*
X233412500Y-160188750D03*
D19*
X233412500Y-152568750D03*
G04 #@! TD*
D22*
G04 #@! TO.C,D89*
X394093750Y-198959375D03*
X394093750Y-197459375D03*
X388643750Y-197459375D03*
X388643750Y-198959375D03*
G04 #@! TD*
D23*
G04 #@! TO.C,D59*
X298023750Y-237213750D03*
D19*
X298023750Y-229593750D03*
G04 #@! TD*
D22*
G04 #@! TO.C,D81*
X303606250Y-218009375D03*
X303606250Y-216509375D03*
X298156250Y-216509375D03*
X298156250Y-218009375D03*
G04 #@! TD*
D23*
G04 #@! TO.C,D21*
X300087500Y-180063750D03*
D19*
X300087500Y-172443750D03*
G04 #@! TD*
D23*
G04 #@! TO.C,D64*
X443280000Y-237213750D03*
D19*
X443280000Y-229593750D03*
G04 #@! TD*
D22*
G04 #@! TO.C,D69*
X360756250Y-237059375D03*
X360756250Y-235559375D03*
X355306250Y-235559375D03*
X355306250Y-237059375D03*
G04 #@! TD*
D23*
G04 #@! TO.C,D17*
X223887500Y-180063750D03*
D19*
X223887500Y-172443750D03*
G04 #@! TD*
D22*
G04 #@! TO.C,D118*
X360756250Y-160859375D03*
X360756250Y-159359375D03*
X355306250Y-159359375D03*
X355306250Y-160859375D03*
G04 #@! TD*
G04 #@! TO.C,D124*
X246456250Y-160859375D03*
X246456250Y-159359375D03*
X241006250Y-159359375D03*
X241006250Y-160859375D03*
G04 #@! TD*
G04 #@! TO.C,D107*
X313131250Y-179909375D03*
X313131250Y-178409375D03*
X307681250Y-178409375D03*
X307681250Y-179909375D03*
G04 #@! TD*
G04 #@! TO.C,D97*
X241693750Y-198959375D03*
X241693750Y-197459375D03*
X236243750Y-197459375D03*
X236243750Y-198959375D03*
G04 #@! TD*
G04 #@! TO.C,D121*
X303606250Y-160859375D03*
X303606250Y-159359375D03*
X298156250Y-159359375D03*
X298156250Y-160859375D03*
G04 #@! TD*
D23*
G04 #@! TO.C,D50*
X347712500Y-218291250D03*
D19*
X347712500Y-210671250D03*
G04 #@! TD*
D22*
G04 #@! TO.C,D72*
X196450000Y-237059375D03*
X196450000Y-235559375D03*
X191000000Y-235559375D03*
X191000000Y-237059375D03*
G04 #@! TD*
G04 #@! TO.C,D99*
X203593750Y-198959375D03*
X203593750Y-197459375D03*
X198143750Y-197459375D03*
X198143750Y-198959375D03*
G04 #@! TD*
G04 #@! TO.C,D102*
X408381250Y-179909375D03*
X408381250Y-178409375D03*
X402931250Y-178409375D03*
X402931250Y-179909375D03*
G04 #@! TD*
G04 #@! TO.C,D112*
X217881250Y-179909375D03*
X217881250Y-178409375D03*
X212431250Y-178409375D03*
X212431250Y-179909375D03*
G04 #@! TD*
G04 #@! TO.C,D98*
X222643750Y-198959375D03*
X222643750Y-197459375D03*
X217193750Y-197459375D03*
X217193750Y-198959375D03*
G04 #@! TD*
D23*
G04 #@! TO.C,D31*
X228967500Y-199113750D03*
D19*
X228967500Y-191493750D03*
G04 #@! TD*
D23*
G04 #@! TO.C,D30*
X209917500Y-199113750D03*
D19*
X209917500Y-191493750D03*
G04 #@! TD*
D22*
G04 #@! TO.C,D117*
X379806250Y-160859375D03*
X379806250Y-159359375D03*
X374356250Y-159359375D03*
X374356250Y-160859375D03*
G04 #@! TD*
G04 #@! TO.C,D122*
X284556250Y-160859375D03*
X284556250Y-159359375D03*
X279106250Y-159359375D03*
X279106250Y-160859375D03*
G04 #@! TD*
D23*
G04 #@! TO.C,D60*
X367080000Y-237213750D03*
D19*
X367080000Y-229593750D03*
G04 #@! TD*
D23*
G04 #@! TO.C,D7*
X290562500Y-160188750D03*
D19*
X290562500Y-152568750D03*
G04 #@! TD*
D22*
G04 #@! TO.C,D105*
X351231250Y-179909375D03*
X351231250Y-178409375D03*
X345781250Y-178409375D03*
X345781250Y-179909375D03*
G04 #@! TD*
G04 #@! TO.C,D104*
X370281250Y-179909375D03*
X370281250Y-178409375D03*
X364831250Y-178409375D03*
X364831250Y-179909375D03*
G04 #@! TD*
D23*
G04 #@! TO.C,D61*
X386130000Y-237213750D03*
D19*
X386130000Y-229593750D03*
G04 #@! TD*
D23*
G04 #@! TO.C,D12*
X385812500Y-160188750D03*
D19*
X385812500Y-152568750D03*
G04 #@! TD*
D23*
G04 #@! TO.C,D8*
X309612500Y-160188750D03*
D19*
X309612500Y-152568750D03*
G04 #@! TD*
D23*
G04 #@! TO.C,D56*
X178961250Y-237213750D03*
D19*
X178961250Y-229593750D03*
G04 #@! TD*
D23*
G04 #@! TO.C,D53*
X404862500Y-218291250D03*
D19*
X404862500Y-210671250D03*
G04 #@! TD*
D22*
G04 #@! TO.C,D93*
X317893750Y-198959375D03*
X317893750Y-197459375D03*
X312443750Y-197459375D03*
X312443750Y-198959375D03*
G04 #@! TD*
D23*
G04 #@! TO.C,D15*
X181025000Y-180063750D03*
D19*
X181025000Y-172443750D03*
G04 #@! TD*
D22*
G04 #@! TO.C,D90*
X375043750Y-198959375D03*
X375043750Y-197459375D03*
X369593750Y-197459375D03*
X369593750Y-198959375D03*
G04 #@! TD*
D23*
G04 #@! TO.C,D49*
X328662500Y-218291250D03*
D19*
X328662500Y-210671250D03*
G04 #@! TD*
D23*
G04 #@! TO.C,D1*
X176262500Y-160188750D03*
D19*
X176262500Y-152568750D03*
G04 #@! TD*
D23*
G04 #@! TO.C,D32*
X248017500Y-199113750D03*
D19*
X248017500Y-191493750D03*
G04 #@! TD*
D22*
G04 #@! TO.C,D80*
X322656250Y-218009375D03*
X322656250Y-216509375D03*
X317206250Y-216509375D03*
X317206250Y-218009375D03*
G04 #@! TD*
D23*
G04 #@! TO.C,D45*
X252462500Y-218291250D03*
D19*
X252462500Y-210671250D03*
G04 #@! TD*
D22*
G04 #@! TO.C,D94*
X298843750Y-198959375D03*
X298843750Y-197459375D03*
X293393750Y-197459375D03*
X293393750Y-198959375D03*
G04 #@! TD*
D23*
G04 #@! TO.C,D25*
X376287500Y-180063750D03*
D19*
X376287500Y-172443750D03*
G04 #@! TD*
D22*
G04 #@! TO.C,D106*
X332181250Y-179909375D03*
X332181250Y-178409375D03*
X326731250Y-178409375D03*
X326731250Y-179909375D03*
G04 #@! TD*
G04 #@! TO.C,D66*
X417906250Y-237059375D03*
X417906250Y-235559375D03*
X412456250Y-235559375D03*
X412456250Y-237059375D03*
G04 #@! TD*
D23*
G04 #@! TO.C,D22*
X319137500Y-180063750D03*
D19*
X319137500Y-172443750D03*
G04 #@! TD*
D23*
G04 #@! TO.C,D2*
X195312500Y-160188750D03*
D19*
X195312500Y-152568750D03*
G04 #@! TD*
D23*
G04 #@! TO.C,D33*
X267067500Y-199113750D03*
D19*
X267067500Y-191493750D03*
G04 #@! TD*
D23*
G04 #@! TO.C,D58*
X226586250Y-237213750D03*
D19*
X226586250Y-229593750D03*
G04 #@! TD*
D23*
G04 #@! TO.C,D55*
X442962500Y-218291250D03*
D19*
X442962500Y-210671250D03*
G04 #@! TD*
D22*
G04 #@! TO.C,D114*
X175018750Y-179909375D03*
X175018750Y-178409375D03*
X169568750Y-178409375D03*
X169568750Y-179909375D03*
G04 #@! TD*
G04 #@! TO.C,D71*
X220262500Y-237059375D03*
X220262500Y-235559375D03*
X214812500Y-235559375D03*
X214812500Y-237059375D03*
G04 #@! TD*
G04 #@! TO.C,D126*
X208356250Y-160859375D03*
X208356250Y-159359375D03*
X202906250Y-159359375D03*
X202906250Y-160859375D03*
G04 #@! TD*
G04 #@! TO.C,D123*
X265506250Y-160859375D03*
X265506250Y-159359375D03*
X260056250Y-159359375D03*
X260056250Y-160859375D03*
G04 #@! TD*
G04 #@! TO.C,D65*
X436956250Y-237059375D03*
X436956250Y-235559375D03*
X431506250Y-235559375D03*
X431506250Y-237059375D03*
G04 #@! TD*
D23*
G04 #@! TO.C,D57*
X202773750Y-237213750D03*
D19*
X202773750Y-229593750D03*
G04 #@! TD*
D22*
G04 #@! TO.C,D100*
X177400000Y-198959375D03*
X177400000Y-197459375D03*
X171950000Y-197459375D03*
X171950000Y-198959375D03*
G04 #@! TD*
D23*
G04 #@! TO.C,D48*
X309612500Y-218291250D03*
D19*
X309612500Y-210671250D03*
G04 #@! TD*
D22*
G04 #@! TO.C,D125*
X227406250Y-160859375D03*
X227406250Y-159359375D03*
X221956250Y-159359375D03*
X221956250Y-160859375D03*
G04 #@! TD*
D23*
G04 #@! TO.C,D13*
X404862500Y-160188750D03*
D19*
X404862500Y-152568750D03*
G04 #@! TD*
D23*
G04 #@! TO.C,D35*
X305167500Y-199113750D03*
D19*
X305167500Y-191493750D03*
G04 #@! TD*
M02*
