G04 #@! TF.GenerationSoftware,KiCad,Pcbnew,10.0.5*
G04 #@! TF.CreationDate,2026-09-28T21:39:35+01:00*
G04 #@! TF.ProjectId,WIEBZ K1,57494542-5a20-44b3-912e-6b696361645f,rev?*
G04 #@! TF.SameCoordinates,Original*
G04 #@! TF.FileFunction,Paste,Bot*
G04 #@! TF.FilePolarity,Positive*
%FSLAX46Y46*%
G04 Gerber Fmt 4.6, Leading zero omitted, Abs format (unit mm)*
G04 Created by KiCad (PCBNEW 10.0.5) date 2026-09-28 21:39:35*
%MOMM*%
%LPD*%
G01*
G04 APERTURE LIST*
G04 Aperture macros list*
%AMRoundRect*
0 Rectangle with rounded corners*
0 $1 Rounding radius*
0 $2 $3 $4 $5 $6 $7 $8 $9 X,Y pos of 4 corners*
0 Add a 4 corners polygon primitive as box body*
4,1,4,$2,$3,$4,$5,$6,$7,$8,$9,$2,$3,0*
0 Add four circle primitives for the rounded corners*
1,1,$1+$1,$2,$3*
1,1,$1+$1,$4,$5*
1,1,$1+$1,$6,$7*
1,1,$1+$1,$8,$9*
0 Add four rect primitives between the rounded corners*
20,1,$1+$1,$2,$3,$4,$5,0*
20,1,$1+$1,$4,$5,$6,$7,0*
20,1,$1+$1,$6,$7,$8,$9,0*
20,1,$1+$1,$8,$9,$2,$3,0*%
G04 Aperture macros list end*
%ADD10RoundRect,0.250000X-1.025000X-1.000000X1.025000X-1.000000X1.025000X1.000000X-1.025000X1.000000X0*%
%ADD11RoundRect,0.205000X0.470000X0.205000X-0.470000X0.205000X-0.470000X-0.205000X0.470000X-0.205000X0*%
G04 APERTURE END LIST*
D10*
G04 #@! TO.C,SW24*
X341421250Y-171936250D03*
X354348250Y-169396250D03*
G04 #@! TD*
G04 #@! TO.C,SW26*
X379521250Y-171936250D03*
X392448250Y-169396250D03*
G04 #@! TD*
G04 #@! TO.C,SW9*
X312846250Y-152886250D03*
X325773250Y-150346250D03*
G04 #@! TD*
G04 #@! TO.C,SW18*
X227121250Y-171936250D03*
X240048250Y-169396250D03*
G04 #@! TD*
G04 #@! TO.C,SW21*
X284271250Y-171936250D03*
X297198250Y-169396250D03*
G04 #@! TD*
G04 #@! TO.C,SW60*
X350946250Y-229086250D03*
X363873250Y-226546250D03*
G04 #@! TD*
G04 #@! TO.C,SW42*
X169971250Y-210036250D03*
X182898250Y-207496250D03*
G04 #@! TD*
G04 #@! TO.C,SW2*
X179496250Y-152886250D03*
X192423250Y-150346250D03*
G04 #@! TD*
G04 #@! TO.C,SW63*
X408096250Y-229086250D03*
X421023250Y-226546250D03*
G04 #@! TD*
G04 #@! TO.C,SW19*
X246171250Y-171936250D03*
X259098250Y-169396250D03*
G04 #@! TD*
G04 #@! TO.C,SW13*
X389046250Y-152886250D03*
X401973250Y-150346250D03*
G04 #@! TD*
G04 #@! TO.C,SW22*
X303321250Y-171936250D03*
X316248250Y-169396250D03*
G04 #@! TD*
G04 #@! TO.C,SW55*
X427146250Y-210036250D03*
X440073250Y-207496250D03*
G04 #@! TD*
G04 #@! TO.C,SW4*
X217596250Y-152886250D03*
X230523250Y-150346250D03*
G04 #@! TD*
G04 #@! TO.C,SW33*
X250933750Y-190986250D03*
X263860750Y-188446250D03*
G04 #@! TD*
G04 #@! TO.C,SW10*
X331896250Y-152886250D03*
X344823250Y-150346250D03*
G04 #@! TD*
G04 #@! TO.C,SW52*
X369996250Y-210036250D03*
X382923250Y-207496250D03*
G04 #@! TD*
G04 #@! TO.C,SW57*
X186640000Y-229086250D03*
X199567000Y-226546250D03*
G04 #@! TD*
G04 #@! TO.C,SW28*
X422383750Y-171936250D03*
X435310750Y-169396250D03*
G04 #@! TD*
G04 #@! TO.C,SW41*
X415240000Y-190986250D03*
X428167000Y-188446250D03*
G04 #@! TD*
G04 #@! TO.C,SW1*
X160446250Y-152886250D03*
X173373250Y-150346250D03*
G04 #@! TD*
G04 #@! TO.C,SW8*
X293796250Y-152886250D03*
X306723250Y-150346250D03*
G04 #@! TD*
G04 #@! TO.C,SW6*
X255696250Y-152886250D03*
X268623250Y-150346250D03*
G04 #@! TD*
G04 #@! TO.C,SW5*
X236646250Y-152886250D03*
X249573250Y-150346250D03*
G04 #@! TD*
G04 #@! TO.C,SW23*
X322371250Y-171936250D03*
X335298250Y-169396250D03*
G04 #@! TD*
G04 #@! TO.C,SW45*
X236646250Y-210036250D03*
X249573250Y-207496250D03*
G04 #@! TD*
G04 #@! TO.C,SW16*
X189021250Y-171936250D03*
X201948250Y-169396250D03*
G04 #@! TD*
G04 #@! TO.C,SW62*
X389046250Y-229086250D03*
X401973250Y-226546250D03*
G04 #@! TD*
G04 #@! TO.C,SW29*
X167590000Y-190986250D03*
X180517000Y-188446250D03*
G04 #@! TD*
G04 #@! TO.C,SW44*
X217596250Y-210036250D03*
X230523250Y-207496250D03*
G04 #@! TD*
G04 #@! TO.C,SW30*
X193783750Y-190986250D03*
X206710750Y-188446250D03*
G04 #@! TD*
G04 #@! TO.C,SW46*
X255696250Y-210036250D03*
X268623250Y-207496250D03*
G04 #@! TD*
G04 #@! TO.C,SW12*
X369996250Y-152886250D03*
X382923250Y-150346250D03*
G04 #@! TD*
G04 #@! TO.C,SW53*
X389046250Y-210036250D03*
X401973250Y-207496250D03*
G04 #@! TD*
G04 #@! TO.C,SW43*
X198546250Y-210036250D03*
X211473250Y-207496250D03*
G04 #@! TD*
G04 #@! TO.C,SW64*
X427146250Y-229086250D03*
X440073250Y-226546250D03*
G04 #@! TD*
G04 #@! TO.C,SW34*
X269983750Y-190986250D03*
X282910750Y-188446250D03*
G04 #@! TD*
G04 #@! TO.C,SW38*
X346183750Y-190986250D03*
X359110750Y-188446250D03*
G04 #@! TD*
G04 #@! TO.C,SW58*
X210452500Y-229086250D03*
X223379500Y-226546250D03*
G04 #@! TD*
G04 #@! TO.C,SW36*
X308083750Y-190986250D03*
X321010750Y-188446250D03*
G04 #@! TD*
G04 #@! TO.C,SW3*
X198546250Y-152886250D03*
X211473250Y-150346250D03*
G04 #@! TD*
G04 #@! TO.C,SW39*
X365233750Y-190986250D03*
X378160750Y-188446250D03*
G04 #@! TD*
G04 #@! TO.C,SW17*
X208071250Y-171936250D03*
X220998250Y-169396250D03*
G04 #@! TD*
G04 #@! TO.C,SW31*
X212833750Y-190986250D03*
X225760750Y-188446250D03*
G04 #@! TD*
G04 #@! TO.C,SW7*
X274746250Y-152886250D03*
X287673250Y-150346250D03*
G04 #@! TD*
G04 #@! TO.C,SW47*
X274746250Y-210036250D03*
X287673250Y-207496250D03*
G04 #@! TD*
G04 #@! TO.C,SW32*
X231883750Y-190986250D03*
X244810750Y-188446250D03*
G04 #@! TD*
G04 #@! TO.C,SW49*
X312846250Y-210036250D03*
X325773250Y-207496250D03*
G04 #@! TD*
G04 #@! TO.C,SW48*
X293796250Y-210036250D03*
X306723250Y-207496250D03*
G04 #@! TD*
G04 #@! TO.C,SW40*
X384283750Y-190986250D03*
X397210750Y-188446250D03*
G04 #@! TD*
G04 #@! TO.C,SW25*
X360471250Y-171936250D03*
X373398250Y-169396250D03*
G04 #@! TD*
G04 #@! TO.C,SW14*
X417621250Y-152886250D03*
X430548250Y-150346250D03*
G04 #@! TD*
G04 #@! TO.C,SW35*
X289033750Y-190986250D03*
X301960750Y-188446250D03*
G04 #@! TD*
G04 #@! TO.C,SW51*
X350946250Y-210036250D03*
X363873250Y-207496250D03*
G04 #@! TD*
G04 #@! TO.C,SW50*
X331896250Y-210036250D03*
X344823250Y-207496250D03*
G04 #@! TD*
G04 #@! TO.C,SW15*
X165208750Y-171936250D03*
X178135750Y-169396250D03*
G04 #@! TD*
G04 #@! TO.C,SW37*
X327133750Y-190986250D03*
X340060750Y-188446250D03*
G04 #@! TD*
G04 #@! TO.C,SW20*
X265221250Y-171936250D03*
X278148250Y-169396250D03*
G04 #@! TD*
G04 #@! TO.C,SW56*
X162827500Y-229086250D03*
X175754500Y-226546250D03*
G04 #@! TD*
G04 #@! TO.C,SW11*
X350946250Y-152886250D03*
X363873250Y-150346250D03*
G04 #@! TD*
G04 #@! TO.C,SW27*
X398571250Y-171936250D03*
X411498250Y-169396250D03*
G04 #@! TD*
G04 #@! TO.C,SW61*
X369996250Y-229086250D03*
X382923250Y-226546250D03*
G04 #@! TD*
G04 #@! TO.C,SW59*
X281890000Y-229086250D03*
X294817000Y-226546250D03*
G04 #@! TD*
G04 #@! TO.C,SW54*
X408096250Y-210036250D03*
X421023250Y-207496250D03*
G04 #@! TD*
D11*
G04 #@! TO.C,D73*
X172637500Y-237059375D03*
X172637500Y-235559375D03*
X167187500Y-235559375D03*
X167187500Y-237059375D03*
G04 #@! TD*
G04 #@! TO.C,D84*
X246456250Y-218009375D03*
X246456250Y-216509375D03*
X241006250Y-216509375D03*
X241006250Y-218009375D03*
G04 #@! TD*
G04 #@! TO.C,D68*
X379806250Y-237059375D03*
X379806250Y-235559375D03*
X374356250Y-235559375D03*
X374356250Y-237059375D03*
G04 #@! TD*
G04 #@! TO.C,D78*
X360756250Y-218009375D03*
X360756250Y-216509375D03*
X355306250Y-216509375D03*
X355306250Y-218009375D03*
G04 #@! TD*
G04 #@! TO.C,D113*
X198831250Y-179909375D03*
X198831250Y-178409375D03*
X193381250Y-178409375D03*
X193381250Y-179909375D03*
G04 #@! TD*
G04 #@! TO.C,D120*
X322656250Y-160859375D03*
X322656250Y-159359375D03*
X317206250Y-159359375D03*
X317206250Y-160859375D03*
G04 #@! TD*
G04 #@! TO.C,D127*
X189306250Y-160859375D03*
X189306250Y-159359375D03*
X183856250Y-159359375D03*
X183856250Y-160859375D03*
G04 #@! TD*
G04 #@! TO.C,D109*
X275031250Y-179909375D03*
X275031250Y-178409375D03*
X269581250Y-178409375D03*
X269581250Y-179909375D03*
G04 #@! TD*
G04 #@! TO.C,D119*
X341706250Y-160859375D03*
X341706250Y-159359375D03*
X336256250Y-159359375D03*
X336256250Y-160859375D03*
G04 #@! TD*
G04 #@! TO.C,D101*
X432193750Y-179909375D03*
X432193750Y-178409375D03*
X426743750Y-178409375D03*
X426743750Y-179909375D03*
G04 #@! TD*
G04 #@! TO.C,D83*
X265506250Y-218009375D03*
X265506250Y-216509375D03*
X260056250Y-216509375D03*
X260056250Y-218009375D03*
G04 #@! TD*
G04 #@! TO.C,D77*
X379806250Y-218009375D03*
X379806250Y-216509375D03*
X374356250Y-216509375D03*
X374356250Y-218009375D03*
G04 #@! TD*
G04 #@! TO.C,D115*
X427431250Y-160859375D03*
X427431250Y-159359375D03*
X421981250Y-159359375D03*
X421981250Y-160859375D03*
G04 #@! TD*
G04 #@! TO.C,D96*
X260743750Y-198959375D03*
X260743750Y-197459375D03*
X255293750Y-197459375D03*
X255293750Y-198959375D03*
G04 #@! TD*
G04 #@! TO.C,D87*
X179781250Y-218009375D03*
X179781250Y-216509375D03*
X174331250Y-216509375D03*
X174331250Y-218009375D03*
G04 #@! TD*
G04 #@! TO.C,D85*
X227406250Y-218009375D03*
X227406250Y-216509375D03*
X221956250Y-216509375D03*
X221956250Y-218009375D03*
G04 #@! TD*
G04 #@! TO.C,D74*
X436956250Y-218009375D03*
X436956250Y-216509375D03*
X431506250Y-216509375D03*
X431506250Y-218009375D03*
G04 #@! TD*
G04 #@! TO.C,D75*
X417906250Y-218009375D03*
X417906250Y-216509375D03*
X412456250Y-216509375D03*
X412456250Y-218009375D03*
G04 #@! TD*
G04 #@! TO.C,D70*
X291700000Y-237059375D03*
X291700000Y-235559375D03*
X286250000Y-235559375D03*
X286250000Y-237059375D03*
G04 #@! TD*
G04 #@! TO.C,D92*
X336943750Y-198959375D03*
X336943750Y-197459375D03*
X331493750Y-197459375D03*
X331493750Y-198959375D03*
G04 #@! TD*
G04 #@! TO.C,D128*
X170256250Y-160859375D03*
X170256250Y-159359375D03*
X164806250Y-159359375D03*
X164806250Y-160859375D03*
G04 #@! TD*
G04 #@! TO.C,D86*
X208356250Y-218009375D03*
X208356250Y-216509375D03*
X202906250Y-216509375D03*
X202906250Y-218009375D03*
G04 #@! TD*
G04 #@! TO.C,D116*
X398856250Y-160859375D03*
X398856250Y-159359375D03*
X393406250Y-159359375D03*
X393406250Y-160859375D03*
G04 #@! TD*
G04 #@! TO.C,D91*
X355993750Y-198959375D03*
X355993750Y-197459375D03*
X350543750Y-197459375D03*
X350543750Y-198959375D03*
G04 #@! TD*
G04 #@! TO.C,D67*
X398856250Y-237059375D03*
X398856250Y-235559375D03*
X393406250Y-235559375D03*
X393406250Y-237059375D03*
G04 #@! TD*
G04 #@! TO.C,D103*
X389331250Y-179909375D03*
X389331250Y-178409375D03*
X383881250Y-178409375D03*
X383881250Y-179909375D03*
G04 #@! TD*
G04 #@! TO.C,D79*
X341706250Y-218009375D03*
X341706250Y-216509375D03*
X336256250Y-216509375D03*
X336256250Y-218009375D03*
G04 #@! TD*
G04 #@! TO.C,D110*
X255981250Y-179909375D03*
X255981250Y-178409375D03*
X250531250Y-178409375D03*
X250531250Y-179909375D03*
G04 #@! TD*
G04 #@! TO.C,D111*
X236931250Y-179909375D03*
X236931250Y-178409375D03*
X231481250Y-178409375D03*
X231481250Y-179909375D03*
G04 #@! TD*
G04 #@! TO.C,D88*
X425050000Y-198959375D03*
X425050000Y-197459375D03*
X419600000Y-197459375D03*
X419600000Y-198959375D03*
G04 #@! TD*
G04 #@! TO.C,D108*
X294081250Y-179909375D03*
X294081250Y-178409375D03*
X288631250Y-178409375D03*
X288631250Y-179909375D03*
G04 #@! TD*
G04 #@! TO.C,D82*
X284556250Y-218009375D03*
X284556250Y-216509375D03*
X279106250Y-216509375D03*
X279106250Y-218009375D03*
G04 #@! TD*
G04 #@! TO.C,D76*
X398856250Y-218009375D03*
X398856250Y-216509375D03*
X393406250Y-216509375D03*
X393406250Y-218009375D03*
G04 #@! TD*
G04 #@! TO.C,D95*
X279793750Y-198959375D03*
X279793750Y-197459375D03*
X274343750Y-197459375D03*
X274343750Y-198959375D03*
G04 #@! TD*
G04 #@! TO.C,D89*
X394093750Y-198959375D03*
X394093750Y-197459375D03*
X388643750Y-197459375D03*
X388643750Y-198959375D03*
G04 #@! TD*
G04 #@! TO.C,D81*
X303606250Y-218009375D03*
X303606250Y-216509375D03*
X298156250Y-216509375D03*
X298156250Y-218009375D03*
G04 #@! TD*
G04 #@! TO.C,D69*
X360756250Y-237059375D03*
X360756250Y-235559375D03*
X355306250Y-235559375D03*
X355306250Y-237059375D03*
G04 #@! TD*
G04 #@! TO.C,D118*
X360756250Y-160859375D03*
X360756250Y-159359375D03*
X355306250Y-159359375D03*
X355306250Y-160859375D03*
G04 #@! TD*
G04 #@! TO.C,D124*
X246456250Y-160859375D03*
X246456250Y-159359375D03*
X241006250Y-159359375D03*
X241006250Y-160859375D03*
G04 #@! TD*
G04 #@! TO.C,D107*
X313131250Y-179909375D03*
X313131250Y-178409375D03*
X307681250Y-178409375D03*
X307681250Y-179909375D03*
G04 #@! TD*
G04 #@! TO.C,D97*
X241693750Y-198959375D03*
X241693750Y-197459375D03*
X236243750Y-197459375D03*
X236243750Y-198959375D03*
G04 #@! TD*
G04 #@! TO.C,D121*
X303606250Y-160859375D03*
X303606250Y-159359375D03*
X298156250Y-159359375D03*
X298156250Y-160859375D03*
G04 #@! TD*
G04 #@! TO.C,D72*
X196450000Y-237059375D03*
X196450000Y-235559375D03*
X191000000Y-235559375D03*
X191000000Y-237059375D03*
G04 #@! TD*
G04 #@! TO.C,D99*
X203593750Y-198959375D03*
X203593750Y-197459375D03*
X198143750Y-197459375D03*
X198143750Y-198959375D03*
G04 #@! TD*
G04 #@! TO.C,D102*
X408381250Y-179909375D03*
X408381250Y-178409375D03*
X402931250Y-178409375D03*
X402931250Y-179909375D03*
G04 #@! TD*
G04 #@! TO.C,D112*
X217881250Y-179909375D03*
X217881250Y-178409375D03*
X212431250Y-178409375D03*
X212431250Y-179909375D03*
G04 #@! TD*
G04 #@! TO.C,D98*
X222643750Y-198959375D03*
X222643750Y-197459375D03*
X217193750Y-197459375D03*
X217193750Y-198959375D03*
G04 #@! TD*
G04 #@! TO.C,D117*
X379806250Y-160859375D03*
X379806250Y-159359375D03*
X374356250Y-159359375D03*
X374356250Y-160859375D03*
G04 #@! TD*
G04 #@! TO.C,D122*
X284556250Y-160859375D03*
X284556250Y-159359375D03*
X279106250Y-159359375D03*
X279106250Y-160859375D03*
G04 #@! TD*
G04 #@! TO.C,D105*
X351231250Y-179909375D03*
X351231250Y-178409375D03*
X345781250Y-178409375D03*
X345781250Y-179909375D03*
G04 #@! TD*
G04 #@! TO.C,D104*
X370281250Y-179909375D03*
X370281250Y-178409375D03*
X364831250Y-178409375D03*
X364831250Y-179909375D03*
G04 #@! TD*
G04 #@! TO.C,D93*
X317893750Y-198959375D03*
X317893750Y-197459375D03*
X312443750Y-197459375D03*
X312443750Y-198959375D03*
G04 #@! TD*
G04 #@! TO.C,D90*
X375043750Y-198959375D03*
X375043750Y-197459375D03*
X369593750Y-197459375D03*
X369593750Y-198959375D03*
G04 #@! TD*
G04 #@! TO.C,D80*
X322656250Y-218009375D03*
X322656250Y-216509375D03*
X317206250Y-216509375D03*
X317206250Y-218009375D03*
G04 #@! TD*
G04 #@! TO.C,D94*
X298843750Y-198959375D03*
X298843750Y-197459375D03*
X293393750Y-197459375D03*
X293393750Y-198959375D03*
G04 #@! TD*
G04 #@! TO.C,D106*
X332181250Y-179909375D03*
X332181250Y-178409375D03*
X326731250Y-178409375D03*
X326731250Y-179909375D03*
G04 #@! TD*
G04 #@! TO.C,D66*
X417906250Y-237059375D03*
X417906250Y-235559375D03*
X412456250Y-235559375D03*
X412456250Y-237059375D03*
G04 #@! TD*
G04 #@! TO.C,D114*
X175018750Y-179909375D03*
X175018750Y-178409375D03*
X169568750Y-178409375D03*
X169568750Y-179909375D03*
G04 #@! TD*
G04 #@! TO.C,D71*
X220262500Y-237059375D03*
X220262500Y-235559375D03*
X214812500Y-235559375D03*
X214812500Y-237059375D03*
G04 #@! TD*
G04 #@! TO.C,D126*
X208356250Y-160859375D03*
X208356250Y-159359375D03*
X202906250Y-159359375D03*
X202906250Y-160859375D03*
G04 #@! TD*
G04 #@! TO.C,D123*
X265506250Y-160859375D03*
X265506250Y-159359375D03*
X260056250Y-159359375D03*
X260056250Y-160859375D03*
G04 #@! TD*
G04 #@! TO.C,D65*
X436956250Y-237059375D03*
X436956250Y-235559375D03*
X431506250Y-235559375D03*
X431506250Y-237059375D03*
G04 #@! TD*
G04 #@! TO.C,D100*
X177400000Y-198959375D03*
X177400000Y-197459375D03*
X171950000Y-197459375D03*
X171950000Y-198959375D03*
G04 #@! TD*
G04 #@! TO.C,D125*
X227406250Y-160859375D03*
X227406250Y-159359375D03*
X221956250Y-159359375D03*
X221956250Y-160859375D03*
G04 #@! TD*
M02*
