G04 #@! TF.GenerationSoftware,KiCad,Pcbnew,10.0.5*
G04 #@! TF.CreationDate,2026-09-28T21:39:35+01:00*
G04 #@! TF.ProjectId,WIEBZ K1,57494542-5a20-44b3-912e-6b696361645f,rev?*
G04 #@! TF.SameCoordinates,Original*
G04 #@! TF.FileFunction,Profile,NP*
%FSLAX46Y46*%
G04 Gerber Fmt 4.6, Leading zero omitted, Abs format (unit mm)*
G04 Created by KiCad (PCBNEW 10.0.5) date 2026-09-28 21:39:35*
%MOMM*%
%LPD*%
G01*
G04 APERTURE LIST*
G04 #@! TA.AperFunction,Profile*
%ADD10C,0.050000*%
G04 #@! TD*
G04 #@! TA.AperFunction,Profile*
%ADD11C,0.120000*%
G04 #@! TD*
G04 APERTURE END LIST*
D10*
X146100000Y-137884375D02*
X146100000Y-138281250D01*
X146100000Y-138281250D02*
X146100000Y-252581250D01*
X146100000Y-252581250D02*
X460028125Y-252581250D01*
X398512500Y-112484375D02*
X398512500Y-137884375D01*
X398512500Y-137884375D02*
X146100000Y-137884375D01*
X460028125Y-112484375D02*
X398512500Y-112484375D01*
X460028125Y-252581250D02*
X460028125Y-112484375D01*
G04 #@! TO.C,D132*
D11*
X151543750Y-245437500D02*
X151543750Y-244737147D01*
X151543750Y-245437500D02*
X151543750Y-246137853D01*
X153243750Y-243937500D02*
X152343397Y-243937500D01*
X153243750Y-243937500D02*
X154144103Y-243937500D01*
X153243750Y-246937500D02*
X152343397Y-246937500D01*
X153243750Y-246937500D02*
X154144103Y-246937500D01*
X154943750Y-245437500D02*
X154943750Y-244737147D01*
X154943750Y-245437500D02*
X154943750Y-246137853D01*
X151499816Y-244580845D02*
G75*
G02*
X151543750Y-244737147I-256058J-156299D01*
G01*
X151499816Y-244580845D02*
G75*
G02*
X152187095Y-243893566I426776J260503D01*
G01*
X151543750Y-246137853D02*
G75*
G02*
X151499816Y-246294155I-299992J-3D01*
G01*
X152187095Y-246981434D02*
G75*
G02*
X151499816Y-246294155I-260503J426776D01*
G01*
X152187095Y-246981434D02*
G75*
G02*
X152343397Y-246937500I156299J-256058D01*
G01*
X152343397Y-243937500D02*
G75*
G02*
X152187095Y-243893566I-3J299992D01*
G01*
X154144103Y-246937500D02*
G75*
G02*
X154300395Y-246981451I47J-299700D01*
G01*
X154300405Y-243893566D02*
G75*
G02*
X154144103Y-243937528I-156355J256066D01*
G01*
X154300405Y-243893566D02*
G75*
G02*
X154987684Y-244580845I260505J-426774D01*
G01*
X154943750Y-244737147D02*
G75*
G02*
X154987685Y-244580846I299680J87D01*
G01*
X154987684Y-246294155D02*
G75*
G02*
X154300405Y-246981434I-426774J-260505D01*
G01*
X154987684Y-246294155D02*
G75*
G02*
X154943768Y-246137853I255666J156155D01*
G01*
G04 #@! TO.C,D141*
X451184375Y-152568750D02*
X451184375Y-151868397D01*
X451184375Y-152568750D02*
X451184375Y-153269103D01*
X452884375Y-151068750D02*
X451984022Y-151068750D01*
X452884375Y-151068750D02*
X453784728Y-151068750D01*
X452884375Y-154068750D02*
X451984022Y-154068750D01*
X452884375Y-154068750D02*
X453784728Y-154068750D01*
X454584375Y-152568750D02*
X454584375Y-151868397D01*
X454584375Y-152568750D02*
X454584375Y-153269103D01*
X451140441Y-151712095D02*
G75*
G02*
X451184375Y-151868397I-256058J-156299D01*
G01*
X451140441Y-151712095D02*
G75*
G02*
X451827720Y-151024816I426776J260503D01*
G01*
X451184375Y-153269103D02*
G75*
G02*
X451140441Y-153425405I-299992J-3D01*
G01*
X451827720Y-154112684D02*
G75*
G02*
X451140441Y-153425405I-260503J426776D01*
G01*
X451827720Y-154112684D02*
G75*
G02*
X451984022Y-154068750I156299J-256058D01*
G01*
X451984022Y-151068750D02*
G75*
G02*
X451827720Y-151024816I-3J299992D01*
G01*
X453784728Y-154068750D02*
G75*
G02*
X453941020Y-154112701I47J-299700D01*
G01*
X453941030Y-151024816D02*
G75*
G02*
X453784728Y-151068778I-156355J256066D01*
G01*
X453941030Y-151024816D02*
G75*
G02*
X454628309Y-151712095I260505J-426774D01*
G01*
X454584375Y-151868397D02*
G75*
G02*
X454628310Y-151712096I299680J87D01*
G01*
X454628309Y-153425405D02*
G75*
G02*
X453941030Y-154112684I-426774J-260505D01*
G01*
X454628309Y-153425405D02*
G75*
G02*
X454584393Y-153269103I255666J156155D01*
G01*
G04 #@! TO.C,D138*
X451184375Y-245437500D02*
X451184375Y-244737147D01*
X451184375Y-245437500D02*
X451184375Y-246137853D01*
X452884375Y-243937500D02*
X451984022Y-243937500D01*
X452884375Y-243937500D02*
X453784728Y-243937500D01*
X452884375Y-246937500D02*
X451984022Y-246937500D01*
X452884375Y-246937500D02*
X453784728Y-246937500D01*
X454584375Y-245437500D02*
X454584375Y-244737147D01*
X454584375Y-245437500D02*
X454584375Y-246137853D01*
X451140441Y-244580845D02*
G75*
G02*
X451184375Y-244737147I-256058J-156299D01*
G01*
X451140441Y-244580845D02*
G75*
G02*
X451827720Y-243893566I426776J260503D01*
G01*
X451184375Y-246137853D02*
G75*
G02*
X451140441Y-246294155I-299992J-3D01*
G01*
X451827720Y-246981434D02*
G75*
G02*
X451140441Y-246294155I-260503J426776D01*
G01*
X451827720Y-246981434D02*
G75*
G02*
X451984022Y-246937500I156299J-256058D01*
G01*
X451984022Y-243937500D02*
G75*
G02*
X451827720Y-243893566I-3J299992D01*
G01*
X453784728Y-246937500D02*
G75*
G02*
X453941020Y-246981451I47J-299700D01*
G01*
X453941030Y-243893566D02*
G75*
G02*
X453784728Y-243937528I-156355J256066D01*
G01*
X453941030Y-243893566D02*
G75*
G02*
X454628309Y-244580845I260505J-426774D01*
G01*
X454584375Y-244737147D02*
G75*
G02*
X454628310Y-244580846I299680J87D01*
G01*
X454628309Y-246294155D02*
G75*
G02*
X453941030Y-246981434I-426774J-260505D01*
G01*
X454628309Y-246294155D02*
G75*
G02*
X454584393Y-246137853I255666J156155D01*
G01*
G04 #@! TO.C,D136*
X352759375Y-245437500D02*
X352759375Y-244737147D01*
X352759375Y-245437500D02*
X352759375Y-246137853D01*
X354459375Y-243937500D02*
X353559022Y-243937500D01*
X354459375Y-243937500D02*
X355359728Y-243937500D01*
X354459375Y-246937500D02*
X353559022Y-246937500D01*
X354459375Y-246937500D02*
X355359728Y-246937500D01*
X356159375Y-245437500D02*
X356159375Y-244737147D01*
X356159375Y-245437500D02*
X356159375Y-246137853D01*
X352715441Y-244580845D02*
G75*
G02*
X352759375Y-244737147I-256058J-156299D01*
G01*
X352715441Y-244580845D02*
G75*
G02*
X353402720Y-243893566I426776J260503D01*
G01*
X352759375Y-246137853D02*
G75*
G02*
X352715441Y-246294155I-299992J-3D01*
G01*
X353402720Y-246981434D02*
G75*
G02*
X352715441Y-246294155I-260503J426776D01*
G01*
X353402720Y-246981434D02*
G75*
G02*
X353559022Y-246937500I156299J-256058D01*
G01*
X353559022Y-243937500D02*
G75*
G02*
X353402720Y-243893566I-3J299992D01*
G01*
X355359728Y-246937500D02*
G75*
G02*
X355516020Y-246981451I47J-299700D01*
G01*
X355516030Y-243893566D02*
G75*
G02*
X355359728Y-243937528I-156355J256066D01*
G01*
X355516030Y-243893566D02*
G75*
G02*
X356203309Y-244580845I260505J-426774D01*
G01*
X356159375Y-244737147D02*
G75*
G02*
X356203310Y-244580846I299680J87D01*
G01*
X356203309Y-246294155D02*
G75*
G02*
X355516030Y-246981434I-426774J-260505D01*
G01*
X356203309Y-246294155D02*
G75*
G02*
X356159393Y-246137853I255666J156155D01*
G01*
G04 #@! TO.C,D139*
X451184375Y-214084375D02*
X451184375Y-213384022D01*
X451184375Y-214084375D02*
X451184375Y-214784728D01*
X452884375Y-212584375D02*
X451984022Y-212584375D01*
X452884375Y-212584375D02*
X453784728Y-212584375D01*
X452884375Y-215584375D02*
X451984022Y-215584375D01*
X452884375Y-215584375D02*
X453784728Y-215584375D01*
X454584375Y-214084375D02*
X454584375Y-213384022D01*
X454584375Y-214084375D02*
X454584375Y-214784728D01*
X451140441Y-213227720D02*
G75*
G02*
X451184375Y-213384022I-256058J-156299D01*
G01*
X451140441Y-213227720D02*
G75*
G02*
X451827720Y-212540441I426776J260503D01*
G01*
X451184375Y-214784728D02*
G75*
G02*
X451140441Y-214941030I-299992J-3D01*
G01*
X451827720Y-215628309D02*
G75*
G02*
X451140441Y-214941030I-260503J426776D01*
G01*
X451827720Y-215628309D02*
G75*
G02*
X451984022Y-215584375I156299J-256058D01*
G01*
X451984022Y-212584375D02*
G75*
G02*
X451827720Y-212540441I-3J299992D01*
G01*
X453784728Y-215584375D02*
G75*
G02*
X453941020Y-215628326I47J-299700D01*
G01*
X453941030Y-212540441D02*
G75*
G02*
X453784728Y-212584403I-156355J256066D01*
G01*
X453941030Y-212540441D02*
G75*
G02*
X454628309Y-213227720I260505J-426774D01*
G01*
X454584375Y-213384022D02*
G75*
G02*
X454628310Y-213227721I299680J87D01*
G01*
X454628309Y-214941030D02*
G75*
G02*
X453941030Y-215628309I-426774J-260505D01*
G01*
X454628309Y-214941030D02*
G75*
G02*
X454584393Y-214784728I255666J156155D01*
G01*
G04 #@! TO.C,D133*
X195993750Y-245437500D02*
X195993750Y-244737147D01*
X195993750Y-245437500D02*
X195993750Y-246137853D01*
X197693750Y-243937500D02*
X196793397Y-243937500D01*
X197693750Y-243937500D02*
X198594103Y-243937500D01*
X197693750Y-246937500D02*
X196793397Y-246937500D01*
X197693750Y-246937500D02*
X198594103Y-246937500D01*
X199393750Y-245437500D02*
X199393750Y-244737147D01*
X199393750Y-245437500D02*
X199393750Y-246137853D01*
X195949816Y-244580845D02*
G75*
G02*
X195993750Y-244737147I-256058J-156299D01*
G01*
X195949816Y-244580845D02*
G75*
G02*
X196637095Y-243893566I426776J260503D01*
G01*
X195993750Y-246137853D02*
G75*
G02*
X195949816Y-246294155I-299992J-3D01*
G01*
X196637095Y-246981434D02*
G75*
G02*
X195949816Y-246294155I-260503J426776D01*
G01*
X196637095Y-246981434D02*
G75*
G02*
X196793397Y-246937500I156299J-256058D01*
G01*
X196793397Y-243937500D02*
G75*
G02*
X196637095Y-243893566I-3J299992D01*
G01*
X198594103Y-246937500D02*
G75*
G02*
X198750395Y-246981451I47J-299700D01*
G01*
X198750405Y-243893566D02*
G75*
G02*
X198594103Y-243937528I-156355J256066D01*
G01*
X198750405Y-243893566D02*
G75*
G02*
X199437684Y-244580845I260505J-426774D01*
G01*
X199393750Y-244737147D02*
G75*
G02*
X199437685Y-244580846I299680J87D01*
G01*
X199437684Y-246294155D02*
G75*
G02*
X198750405Y-246981434I-426774J-260505D01*
G01*
X199437684Y-246294155D02*
G75*
G02*
X199393768Y-246137853I255666J156155D01*
G01*
G04 #@! TO.C,D137*
X403956250Y-245437500D02*
X403956250Y-244737147D01*
X403956250Y-245437500D02*
X403956250Y-246137853D01*
X405656250Y-243937500D02*
X404755897Y-243937500D01*
X405656250Y-243937500D02*
X406556603Y-243937500D01*
X405656250Y-246937500D02*
X404755897Y-246937500D01*
X405656250Y-246937500D02*
X406556603Y-246937500D01*
X407356250Y-245437500D02*
X407356250Y-244737147D01*
X407356250Y-245437500D02*
X407356250Y-246137853D01*
X403912316Y-244580845D02*
G75*
G02*
X403956250Y-244737147I-256058J-156299D01*
G01*
X403912316Y-244580845D02*
G75*
G02*
X404599595Y-243893566I426776J260503D01*
G01*
X403956250Y-246137853D02*
G75*
G02*
X403912316Y-246294155I-299992J-3D01*
G01*
X404599595Y-246981434D02*
G75*
G02*
X403912316Y-246294155I-260503J426776D01*
G01*
X404599595Y-246981434D02*
G75*
G02*
X404755897Y-246937500I156299J-256058D01*
G01*
X404755897Y-243937500D02*
G75*
G02*
X404599595Y-243893566I-3J299992D01*
G01*
X406556603Y-246937500D02*
G75*
G02*
X406712895Y-246981451I47J-299700D01*
G01*
X406712905Y-243893566D02*
G75*
G02*
X406556603Y-243937528I-156355J256066D01*
G01*
X406712905Y-243893566D02*
G75*
G02*
X407400184Y-244580845I260505J-426774D01*
G01*
X407356250Y-244737147D02*
G75*
G02*
X407400185Y-244580846I299680J87D01*
G01*
X407400184Y-246294155D02*
G75*
G02*
X406712905Y-246981434I-426774J-260505D01*
G01*
X407400184Y-246294155D02*
G75*
G02*
X407356268Y-246137853I255666J156155D01*
G01*
G04 #@! TO.C,D131*
X151200000Y-215628125D02*
X151200000Y-214927772D01*
X151200000Y-215628125D02*
X151200000Y-216328478D01*
X152900000Y-214128125D02*
X151999647Y-214128125D01*
X152900000Y-214128125D02*
X153800353Y-214128125D01*
X152900000Y-217128125D02*
X151999647Y-217128125D01*
X152900000Y-217128125D02*
X153800353Y-217128125D01*
X154600000Y-215628125D02*
X154600000Y-214927772D01*
X154600000Y-215628125D02*
X154600000Y-216328478D01*
X151156066Y-214771470D02*
G75*
G02*
X151200000Y-214927772I-256058J-156299D01*
G01*
X151156066Y-214771470D02*
G75*
G02*
X151843345Y-214084191I426776J260503D01*
G01*
X151200000Y-216328478D02*
G75*
G02*
X151156066Y-216484780I-299992J-3D01*
G01*
X151843345Y-217172059D02*
G75*
G02*
X151156066Y-216484780I-260503J426776D01*
G01*
X151843345Y-217172059D02*
G75*
G02*
X151999647Y-217128125I156299J-256058D01*
G01*
X151999647Y-214128125D02*
G75*
G02*
X151843345Y-214084191I-3J299992D01*
G01*
X153800353Y-217128125D02*
G75*
G02*
X153956645Y-217172076I47J-299700D01*
G01*
X153956655Y-214084191D02*
G75*
G02*
X153800353Y-214128153I-156355J256066D01*
G01*
X153956655Y-214084191D02*
G75*
G02*
X154643934Y-214771470I260505J-426774D01*
G01*
X154600000Y-214927772D02*
G75*
G02*
X154643935Y-214771471I299680J87D01*
G01*
X154643934Y-216484780D02*
G75*
G02*
X153956655Y-217172059I-426774J-260505D01*
G01*
X154643934Y-216484780D02*
G75*
G02*
X154600018Y-216328478I255666J156155D01*
G01*
G04 #@! TO.C,D135*
X297196875Y-245437500D02*
X297196875Y-244737147D01*
X297196875Y-245437500D02*
X297196875Y-246137853D01*
X298896875Y-243937500D02*
X297996522Y-243937500D01*
X298896875Y-243937500D02*
X299797228Y-243937500D01*
X298896875Y-246937500D02*
X297996522Y-246937500D01*
X298896875Y-246937500D02*
X299797228Y-246937500D01*
X300596875Y-245437500D02*
X300596875Y-244737147D01*
X300596875Y-245437500D02*
X300596875Y-246137853D01*
X297152941Y-244580845D02*
G75*
G02*
X297196875Y-244737147I-256058J-156299D01*
G01*
X297152941Y-244580845D02*
G75*
G02*
X297840220Y-243893566I426776J260503D01*
G01*
X297196875Y-246137853D02*
G75*
G02*
X297152941Y-246294155I-299992J-3D01*
G01*
X297840220Y-246981434D02*
G75*
G02*
X297152941Y-246294155I-260503J426776D01*
G01*
X297840220Y-246981434D02*
G75*
G02*
X297996522Y-246937500I156299J-256058D01*
G01*
X297996522Y-243937500D02*
G75*
G02*
X297840220Y-243893566I-3J299992D01*
G01*
X299797228Y-246937500D02*
G75*
G02*
X299953520Y-246981451I47J-299700D01*
G01*
X299953530Y-243893566D02*
G75*
G02*
X299797228Y-243937528I-156355J256066D01*
G01*
X299953530Y-243893566D02*
G75*
G02*
X300640809Y-244580845I260505J-426774D01*
G01*
X300596875Y-244737147D02*
G75*
G02*
X300640810Y-244580846I299680J87D01*
G01*
X300640809Y-246294155D02*
G75*
G02*
X299953530Y-246981434I-426774J-260505D01*
G01*
X300640809Y-246294155D02*
G75*
G02*
X300596893Y-246137853I255666J156155D01*
G01*
G04 #@! TO.C,D140*
X451184375Y-181143750D02*
X451184375Y-180443397D01*
X451184375Y-181143750D02*
X451184375Y-181844103D01*
X452884375Y-179643750D02*
X451984022Y-179643750D01*
X452884375Y-179643750D02*
X453784728Y-179643750D01*
X452884375Y-182643750D02*
X451984022Y-182643750D01*
X452884375Y-182643750D02*
X453784728Y-182643750D01*
X454584375Y-181143750D02*
X454584375Y-180443397D01*
X454584375Y-181143750D02*
X454584375Y-181844103D01*
X451140441Y-180287095D02*
G75*
G02*
X451184375Y-180443397I-256058J-156299D01*
G01*
X451140441Y-180287095D02*
G75*
G02*
X451827720Y-179599816I426776J260503D01*
G01*
X451184375Y-181844103D02*
G75*
G02*
X451140441Y-182000405I-299992J-3D01*
G01*
X451827720Y-182687684D02*
G75*
G02*
X451140441Y-182000405I-260503J426776D01*
G01*
X451827720Y-182687684D02*
G75*
G02*
X451984022Y-182643750I156299J-256058D01*
G01*
X451984022Y-179643750D02*
G75*
G02*
X451827720Y-179599816I-3J299992D01*
G01*
X453784728Y-182643750D02*
G75*
G02*
X453941020Y-182687701I47J-299700D01*
G01*
X453941030Y-179599816D02*
G75*
G02*
X453784728Y-179643778I-156355J256066D01*
G01*
X453941030Y-179599816D02*
G75*
G02*
X454628309Y-180287095I260505J-426774D01*
G01*
X454584375Y-180443397D02*
G75*
G02*
X454628310Y-180287096I299680J87D01*
G01*
X454628309Y-182000405D02*
G75*
G02*
X453941030Y-182687684I-426774J-260505D01*
G01*
X454628309Y-182000405D02*
G75*
G02*
X454584393Y-181844103I255666J156155D01*
G01*
G04 #@! TO.C,D129*
X151146875Y-149790625D02*
X151146875Y-149090272D01*
X151146875Y-149790625D02*
X151146875Y-150490978D01*
X152846875Y-148290625D02*
X151946522Y-148290625D01*
X152846875Y-148290625D02*
X153747228Y-148290625D01*
X152846875Y-151290625D02*
X151946522Y-151290625D01*
X152846875Y-151290625D02*
X153747228Y-151290625D01*
X154546875Y-149790625D02*
X154546875Y-149090272D01*
X154546875Y-149790625D02*
X154546875Y-150490978D01*
X151102941Y-148933970D02*
G75*
G02*
X151146875Y-149090272I-256058J-156299D01*
G01*
X151102941Y-148933970D02*
G75*
G02*
X151790220Y-148246691I426776J260503D01*
G01*
X151146875Y-150490978D02*
G75*
G02*
X151102941Y-150647280I-299992J-3D01*
G01*
X151790220Y-151334559D02*
G75*
G02*
X151102941Y-150647280I-260503J426776D01*
G01*
X151790220Y-151334559D02*
G75*
G02*
X151946522Y-151290625I156299J-256058D01*
G01*
X151946522Y-148290625D02*
G75*
G02*
X151790220Y-148246691I-3J299992D01*
G01*
X153747228Y-151290625D02*
G75*
G02*
X153903520Y-151334576I47J-299700D01*
G01*
X153903530Y-148246691D02*
G75*
G02*
X153747228Y-148290653I-156355J256066D01*
G01*
X153903530Y-148246691D02*
G75*
G02*
X154590809Y-148933970I260505J-426774D01*
G01*
X154546875Y-149090272D02*
G75*
G02*
X154590810Y-148933971I299680J87D01*
G01*
X154590809Y-150647280D02*
G75*
G02*
X153903530Y-151334559I-426774J-260505D01*
G01*
X154590809Y-150647280D02*
G75*
G02*
X154546893Y-150490978I255666J156155D01*
G01*
G04 #@! TO.C,D134*
X248037500Y-245437500D02*
X248037500Y-244737147D01*
X248037500Y-245437500D02*
X248037500Y-246137853D01*
X249737500Y-243937500D02*
X248837147Y-243937500D01*
X249737500Y-243937500D02*
X250637853Y-243937500D01*
X249737500Y-246937500D02*
X248837147Y-246937500D01*
X249737500Y-246937500D02*
X250637853Y-246937500D01*
X251437500Y-245437500D02*
X251437500Y-244737147D01*
X251437500Y-245437500D02*
X251437500Y-246137853D01*
X247993566Y-244580845D02*
G75*
G02*
X248037500Y-244737147I-256058J-156299D01*
G01*
X247993566Y-244580845D02*
G75*
G02*
X248680845Y-243893566I426776J260503D01*
G01*
X248037500Y-246137853D02*
G75*
G02*
X247993566Y-246294155I-299992J-3D01*
G01*
X248680845Y-246981434D02*
G75*
G02*
X247993566Y-246294155I-260503J426776D01*
G01*
X248680845Y-246981434D02*
G75*
G02*
X248837147Y-246937500I156299J-256058D01*
G01*
X248837147Y-243937500D02*
G75*
G02*
X248680845Y-243893566I-3J299992D01*
G01*
X250637853Y-246937500D02*
G75*
G02*
X250794145Y-246981451I47J-299700D01*
G01*
X250794155Y-243893566D02*
G75*
G02*
X250637853Y-243937528I-156355J256066D01*
G01*
X250794155Y-243893566D02*
G75*
G02*
X251481434Y-244580845I260505J-426774D01*
G01*
X251437500Y-244737147D02*
G75*
G02*
X251481435Y-244580846I299680J87D01*
G01*
X251481434Y-246294155D02*
G75*
G02*
X250794155Y-246981434I-426774J-260505D01*
G01*
X251481434Y-246294155D02*
G75*
G02*
X251437518Y-246137853I255666J156155D01*
G01*
G04 #@! TO.C,D130*
X151146875Y-182334375D02*
X151146875Y-181634022D01*
X151146875Y-182334375D02*
X151146875Y-183034728D01*
X152846875Y-180834375D02*
X151946522Y-180834375D01*
X152846875Y-180834375D02*
X153747228Y-180834375D01*
X152846875Y-183834375D02*
X151946522Y-183834375D01*
X152846875Y-183834375D02*
X153747228Y-183834375D01*
X154546875Y-182334375D02*
X154546875Y-181634022D01*
X154546875Y-182334375D02*
X154546875Y-183034728D01*
X151102941Y-181477720D02*
G75*
G02*
X151146875Y-181634022I-256058J-156299D01*
G01*
X151102941Y-181477720D02*
G75*
G02*
X151790220Y-180790441I426776J260503D01*
G01*
X151146875Y-183034728D02*
G75*
G02*
X151102941Y-183191030I-299992J-3D01*
G01*
X151790220Y-183878309D02*
G75*
G02*
X151102941Y-183191030I-260503J426776D01*
G01*
X151790220Y-183878309D02*
G75*
G02*
X151946522Y-183834375I156299J-256058D01*
G01*
X151946522Y-180834375D02*
G75*
G02*
X151790220Y-180790441I-3J299992D01*
G01*
X153747228Y-183834375D02*
G75*
G02*
X153903520Y-183878326I47J-299700D01*
G01*
X153903530Y-180790441D02*
G75*
G02*
X153747228Y-180834403I-156355J256066D01*
G01*
X153903530Y-180790441D02*
G75*
G02*
X154590809Y-181477720I260505J-426774D01*
G01*
X154546875Y-181634022D02*
G75*
G02*
X154590810Y-181477721I299680J87D01*
G01*
X154590809Y-183191030D02*
G75*
G02*
X153903530Y-183878309I-426774J-260505D01*
G01*
X154590809Y-183191030D02*
G75*
G02*
X154546893Y-183034728I255666J156155D01*
G01*
G04 #@! TO.C,D73*
X168212500Y-236309375D02*
X168212500Y-235609022D01*
X168212500Y-236309375D02*
X168212500Y-237009728D01*
X169912500Y-234809375D02*
X169012147Y-234809375D01*
X169912500Y-234809375D02*
X170812853Y-234809375D01*
X169912500Y-237809375D02*
X169012147Y-237809375D01*
X169912500Y-237809375D02*
X170812853Y-237809375D01*
X171612500Y-236309375D02*
X171612500Y-235609022D01*
X171612500Y-236309375D02*
X171612500Y-237009728D01*
X168168566Y-235452720D02*
G75*
G02*
X168212476Y-235609022I-256066J-156255D01*
G01*
X168168566Y-235452720D02*
G75*
G02*
X168855845Y-234765441I426774J260505D01*
G01*
X168212500Y-237009728D02*
G75*
G02*
X168168565Y-237166029I-299680J-87D01*
G01*
X168855845Y-237853309D02*
G75*
G02*
X168168566Y-237166030I-260505J426774D01*
G01*
X168855845Y-237853309D02*
G75*
G02*
X169012147Y-237809399I156255J-256066D01*
G01*
X169012147Y-234809375D02*
G75*
G02*
X168855844Y-234765442I3J300020D01*
G01*
X170812853Y-237809375D02*
G75*
G02*
X170969155Y-237853309I3J-299992D01*
G01*
X170969155Y-234765441D02*
G75*
G02*
X170812853Y-234809375I-156299J256058D01*
G01*
X170969155Y-234765441D02*
G75*
G02*
X171656434Y-235452720I260503J-426776D01*
G01*
X171612500Y-235609022D02*
G75*
G02*
X171656434Y-235452720I299992J3D01*
G01*
X171656434Y-237166030D02*
G75*
G02*
X170969155Y-237853309I-426776J-260503D01*
G01*
X171656434Y-237166030D02*
G75*
G02*
X171612500Y-237009728I256058J156299D01*
G01*
G04 #@! TO.C,D84*
X242031250Y-217259375D02*
X242031250Y-216559022D01*
X242031250Y-217259375D02*
X242031250Y-217959728D01*
X243731250Y-215759375D02*
X242830897Y-215759375D01*
X243731250Y-215759375D02*
X244631603Y-215759375D01*
X243731250Y-218759375D02*
X242830897Y-218759375D01*
X243731250Y-218759375D02*
X244631603Y-218759375D01*
X245431250Y-217259375D02*
X245431250Y-216559022D01*
X245431250Y-217259375D02*
X245431250Y-217959728D01*
X241987316Y-216402720D02*
G75*
G02*
X242031226Y-216559022I-256066J-156255D01*
G01*
X241987316Y-216402720D02*
G75*
G02*
X242674595Y-215715441I426774J260505D01*
G01*
X242031250Y-217959728D02*
G75*
G02*
X241987315Y-218116029I-299680J-87D01*
G01*
X242674595Y-218803309D02*
G75*
G02*
X241987316Y-218116030I-260505J426774D01*
G01*
X242674595Y-218803309D02*
G75*
G02*
X242830897Y-218759399I156255J-256066D01*
G01*
X242830897Y-215759375D02*
G75*
G02*
X242674594Y-215715442I3J300020D01*
G01*
X244631603Y-218759375D02*
G75*
G02*
X244787905Y-218803309I3J-299992D01*
G01*
X244787905Y-215715441D02*
G75*
G02*
X244631603Y-215759375I-156299J256058D01*
G01*
X244787905Y-215715441D02*
G75*
G02*
X245475184Y-216402720I260503J-426776D01*
G01*
X245431250Y-216559022D02*
G75*
G02*
X245475184Y-216402720I299992J3D01*
G01*
X245475184Y-218116030D02*
G75*
G02*
X244787905Y-218803309I-426776J-260503D01*
G01*
X245475184Y-218116030D02*
G75*
G02*
X245431250Y-217959728I256058J156299D01*
G01*
G04 #@! TO.C,D68*
X375381250Y-236309375D02*
X375381250Y-235609022D01*
X375381250Y-236309375D02*
X375381250Y-237009728D01*
X377081250Y-234809375D02*
X376180897Y-234809375D01*
X377081250Y-234809375D02*
X377981603Y-234809375D01*
X377081250Y-237809375D02*
X376180897Y-237809375D01*
X377081250Y-237809375D02*
X377981603Y-237809375D01*
X378781250Y-236309375D02*
X378781250Y-235609022D01*
X378781250Y-236309375D02*
X378781250Y-237009728D01*
X375337316Y-235452720D02*
G75*
G02*
X375381226Y-235609022I-256066J-156255D01*
G01*
X375337316Y-235452720D02*
G75*
G02*
X376024595Y-234765441I426774J260505D01*
G01*
X375381250Y-237009728D02*
G75*
G02*
X375337315Y-237166029I-299680J-87D01*
G01*
X376024595Y-237853309D02*
G75*
G02*
X375337316Y-237166030I-260505J426774D01*
G01*
X376024595Y-237853309D02*
G75*
G02*
X376180897Y-237809399I156255J-256066D01*
G01*
X376180897Y-234809375D02*
G75*
G02*
X376024594Y-234765442I3J300020D01*
G01*
X377981603Y-237809375D02*
G75*
G02*
X378137905Y-237853309I3J-299992D01*
G01*
X378137905Y-234765441D02*
G75*
G02*
X377981603Y-234809375I-156299J256058D01*
G01*
X378137905Y-234765441D02*
G75*
G02*
X378825184Y-235452720I260503J-426776D01*
G01*
X378781250Y-235609022D02*
G75*
G02*
X378825184Y-235452720I299992J3D01*
G01*
X378825184Y-237166030D02*
G75*
G02*
X378137905Y-237853309I-426776J-260503D01*
G01*
X378825184Y-237166030D02*
G75*
G02*
X378781250Y-237009728I256058J156299D01*
G01*
G04 #@! TO.C,D78*
X356331250Y-217259375D02*
X356331250Y-216559022D01*
X356331250Y-217259375D02*
X356331250Y-217959728D01*
X358031250Y-215759375D02*
X357130897Y-215759375D01*
X358031250Y-215759375D02*
X358931603Y-215759375D01*
X358031250Y-218759375D02*
X357130897Y-218759375D01*
X358031250Y-218759375D02*
X358931603Y-218759375D01*
X359731250Y-217259375D02*
X359731250Y-216559022D01*
X359731250Y-217259375D02*
X359731250Y-217959728D01*
X356287316Y-216402720D02*
G75*
G02*
X356331226Y-216559022I-256066J-156255D01*
G01*
X356287316Y-216402720D02*
G75*
G02*
X356974595Y-215715441I426774J260505D01*
G01*
X356331250Y-217959728D02*
G75*
G02*
X356287315Y-218116029I-299680J-87D01*
G01*
X356974595Y-218803309D02*
G75*
G02*
X356287316Y-218116030I-260505J426774D01*
G01*
X356974595Y-218803309D02*
G75*
G02*
X357130897Y-218759399I156255J-256066D01*
G01*
X357130897Y-215759375D02*
G75*
G02*
X356974594Y-215715442I3J300020D01*
G01*
X358931603Y-218759375D02*
G75*
G02*
X359087905Y-218803309I3J-299992D01*
G01*
X359087905Y-215715441D02*
G75*
G02*
X358931603Y-215759375I-156299J256058D01*
G01*
X359087905Y-215715441D02*
G75*
G02*
X359775184Y-216402720I260503J-426776D01*
G01*
X359731250Y-216559022D02*
G75*
G02*
X359775184Y-216402720I299992J3D01*
G01*
X359775184Y-218116030D02*
G75*
G02*
X359087905Y-218803309I-426776J-260503D01*
G01*
X359775184Y-218116030D02*
G75*
G02*
X359731250Y-217959728I256058J156299D01*
G01*
G04 #@! TO.C,D113*
X194406250Y-179159375D02*
X194406250Y-178459022D01*
X194406250Y-179159375D02*
X194406250Y-179859728D01*
X196106250Y-177659375D02*
X195205897Y-177659375D01*
X196106250Y-177659375D02*
X197006603Y-177659375D01*
X196106250Y-180659375D02*
X195205897Y-180659375D01*
X196106250Y-180659375D02*
X197006603Y-180659375D01*
X197806250Y-179159375D02*
X197806250Y-178459022D01*
X197806250Y-179159375D02*
X197806250Y-179859728D01*
X194362316Y-178302720D02*
G75*
G02*
X194406226Y-178459022I-256066J-156255D01*
G01*
X194362316Y-178302720D02*
G75*
G02*
X195049595Y-177615441I426774J260505D01*
G01*
X194406250Y-179859728D02*
G75*
G02*
X194362315Y-180016029I-299680J-87D01*
G01*
X195049595Y-180703309D02*
G75*
G02*
X194362316Y-180016030I-260505J426774D01*
G01*
X195049595Y-180703309D02*
G75*
G02*
X195205897Y-180659399I156255J-256066D01*
G01*
X195205897Y-177659375D02*
G75*
G02*
X195049594Y-177615442I3J300020D01*
G01*
X197006603Y-180659375D02*
G75*
G02*
X197162905Y-180703309I3J-299992D01*
G01*
X197162905Y-177615441D02*
G75*
G02*
X197006603Y-177659375I-156299J256058D01*
G01*
X197162905Y-177615441D02*
G75*
G02*
X197850184Y-178302720I260503J-426776D01*
G01*
X197806250Y-178459022D02*
G75*
G02*
X197850184Y-178302720I299992J3D01*
G01*
X197850184Y-180016030D02*
G75*
G02*
X197162905Y-180703309I-426776J-260503D01*
G01*
X197850184Y-180016030D02*
G75*
G02*
X197806250Y-179859728I256058J156299D01*
G01*
G04 #@! TO.C,D120*
X318231250Y-160109375D02*
X318231250Y-159409022D01*
X318231250Y-160109375D02*
X318231250Y-160809728D01*
X319931250Y-158609375D02*
X319030897Y-158609375D01*
X319931250Y-158609375D02*
X320831603Y-158609375D01*
X319931250Y-161609375D02*
X319030897Y-161609375D01*
X319931250Y-161609375D02*
X320831603Y-161609375D01*
X321631250Y-160109375D02*
X321631250Y-159409022D01*
X321631250Y-160109375D02*
X321631250Y-160809728D01*
X318187316Y-159252720D02*
G75*
G02*
X318231226Y-159409022I-256066J-156255D01*
G01*
X318187316Y-159252720D02*
G75*
G02*
X318874595Y-158565441I426774J260505D01*
G01*
X318231250Y-160809728D02*
G75*
G02*
X318187315Y-160966029I-299680J-87D01*
G01*
X318874595Y-161653309D02*
G75*
G02*
X318187316Y-160966030I-260505J426774D01*
G01*
X318874595Y-161653309D02*
G75*
G02*
X319030897Y-161609399I156255J-256066D01*
G01*
X319030897Y-158609375D02*
G75*
G02*
X318874594Y-158565442I3J300020D01*
G01*
X320831603Y-161609375D02*
G75*
G02*
X320987905Y-161653309I3J-299992D01*
G01*
X320987905Y-158565441D02*
G75*
G02*
X320831603Y-158609375I-156299J256058D01*
G01*
X320987905Y-158565441D02*
G75*
G02*
X321675184Y-159252720I260503J-426776D01*
G01*
X321631250Y-159409022D02*
G75*
G02*
X321675184Y-159252720I299992J3D01*
G01*
X321675184Y-160966030D02*
G75*
G02*
X320987905Y-161653309I-426776J-260503D01*
G01*
X321675184Y-160966030D02*
G75*
G02*
X321631250Y-160809728I256058J156299D01*
G01*
G04 #@! TO.C,D127*
X184881250Y-160109375D02*
X184881250Y-159409022D01*
X184881250Y-160109375D02*
X184881250Y-160809728D01*
X186581250Y-158609375D02*
X185680897Y-158609375D01*
X186581250Y-158609375D02*
X187481603Y-158609375D01*
X186581250Y-161609375D02*
X185680897Y-161609375D01*
X186581250Y-161609375D02*
X187481603Y-161609375D01*
X188281250Y-160109375D02*
X188281250Y-159409022D01*
X188281250Y-160109375D02*
X188281250Y-160809728D01*
X184837316Y-159252720D02*
G75*
G02*
X184881226Y-159409022I-256066J-156255D01*
G01*
X184837316Y-159252720D02*
G75*
G02*
X185524595Y-158565441I426774J260505D01*
G01*
X184881250Y-160809728D02*
G75*
G02*
X184837315Y-160966029I-299680J-87D01*
G01*
X185524595Y-161653309D02*
G75*
G02*
X184837316Y-160966030I-260505J426774D01*
G01*
X185524595Y-161653309D02*
G75*
G02*
X185680897Y-161609399I156255J-256066D01*
G01*
X185680897Y-158609375D02*
G75*
G02*
X185524594Y-158565442I3J300020D01*
G01*
X187481603Y-161609375D02*
G75*
G02*
X187637905Y-161653309I3J-299992D01*
G01*
X187637905Y-158565441D02*
G75*
G02*
X187481603Y-158609375I-156299J256058D01*
G01*
X187637905Y-158565441D02*
G75*
G02*
X188325184Y-159252720I260503J-426776D01*
G01*
X188281250Y-159409022D02*
G75*
G02*
X188325184Y-159252720I299992J3D01*
G01*
X188325184Y-160966030D02*
G75*
G02*
X187637905Y-161653309I-426776J-260503D01*
G01*
X188325184Y-160966030D02*
G75*
G02*
X188281250Y-160809728I256058J156299D01*
G01*
G04 #@! TO.C,D109*
X270606250Y-179159375D02*
X270606250Y-178459022D01*
X270606250Y-179159375D02*
X270606250Y-179859728D01*
X272306250Y-177659375D02*
X271405897Y-177659375D01*
X272306250Y-177659375D02*
X273206603Y-177659375D01*
X272306250Y-180659375D02*
X271405897Y-180659375D01*
X272306250Y-180659375D02*
X273206603Y-180659375D01*
X274006250Y-179159375D02*
X274006250Y-178459022D01*
X274006250Y-179159375D02*
X274006250Y-179859728D01*
X270562316Y-178302720D02*
G75*
G02*
X270606226Y-178459022I-256066J-156255D01*
G01*
X270562316Y-178302720D02*
G75*
G02*
X271249595Y-177615441I426774J260505D01*
G01*
X270606250Y-179859728D02*
G75*
G02*
X270562315Y-180016029I-299680J-87D01*
G01*
X271249595Y-180703309D02*
G75*
G02*
X270562316Y-180016030I-260505J426774D01*
G01*
X271249595Y-180703309D02*
G75*
G02*
X271405897Y-180659399I156255J-256066D01*
G01*
X271405897Y-177659375D02*
G75*
G02*
X271249594Y-177615442I3J300020D01*
G01*
X273206603Y-180659375D02*
G75*
G02*
X273362905Y-180703309I3J-299992D01*
G01*
X273362905Y-177615441D02*
G75*
G02*
X273206603Y-177659375I-156299J256058D01*
G01*
X273362905Y-177615441D02*
G75*
G02*
X274050184Y-178302720I260503J-426776D01*
G01*
X274006250Y-178459022D02*
G75*
G02*
X274050184Y-178302720I299992J3D01*
G01*
X274050184Y-180016030D02*
G75*
G02*
X273362905Y-180703309I-426776J-260503D01*
G01*
X274050184Y-180016030D02*
G75*
G02*
X274006250Y-179859728I256058J156299D01*
G01*
G04 #@! TO.C,D119*
X337281250Y-160109375D02*
X337281250Y-159409022D01*
X337281250Y-160109375D02*
X337281250Y-160809728D01*
X338981250Y-158609375D02*
X338080897Y-158609375D01*
X338981250Y-158609375D02*
X339881603Y-158609375D01*
X338981250Y-161609375D02*
X338080897Y-161609375D01*
X338981250Y-161609375D02*
X339881603Y-161609375D01*
X340681250Y-160109375D02*
X340681250Y-159409022D01*
X340681250Y-160109375D02*
X340681250Y-160809728D01*
X337237316Y-159252720D02*
G75*
G02*
X337281226Y-159409022I-256066J-156255D01*
G01*
X337237316Y-159252720D02*
G75*
G02*
X337924595Y-158565441I426774J260505D01*
G01*
X337281250Y-160809728D02*
G75*
G02*
X337237315Y-160966029I-299680J-87D01*
G01*
X337924595Y-161653309D02*
G75*
G02*
X337237316Y-160966030I-260505J426774D01*
G01*
X337924595Y-161653309D02*
G75*
G02*
X338080897Y-161609399I156255J-256066D01*
G01*
X338080897Y-158609375D02*
G75*
G02*
X337924594Y-158565442I3J300020D01*
G01*
X339881603Y-161609375D02*
G75*
G02*
X340037905Y-161653309I3J-299992D01*
G01*
X340037905Y-158565441D02*
G75*
G02*
X339881603Y-158609375I-156299J256058D01*
G01*
X340037905Y-158565441D02*
G75*
G02*
X340725184Y-159252720I260503J-426776D01*
G01*
X340681250Y-159409022D02*
G75*
G02*
X340725184Y-159252720I299992J3D01*
G01*
X340725184Y-160966030D02*
G75*
G02*
X340037905Y-161653309I-426776J-260503D01*
G01*
X340725184Y-160966030D02*
G75*
G02*
X340681250Y-160809728I256058J156299D01*
G01*
G04 #@! TO.C,D101*
X427768750Y-179159375D02*
X427768750Y-178459022D01*
X427768750Y-179159375D02*
X427768750Y-179859728D01*
X429468750Y-177659375D02*
X428568397Y-177659375D01*
X429468750Y-177659375D02*
X430369103Y-177659375D01*
X429468750Y-180659375D02*
X428568397Y-180659375D01*
X429468750Y-180659375D02*
X430369103Y-180659375D01*
X431168750Y-179159375D02*
X431168750Y-178459022D01*
X431168750Y-179159375D02*
X431168750Y-179859728D01*
X427724816Y-178302720D02*
G75*
G02*
X427768726Y-178459022I-256066J-156255D01*
G01*
X427724816Y-178302720D02*
G75*
G02*
X428412095Y-177615441I426774J260505D01*
G01*
X427768750Y-179859728D02*
G75*
G02*
X427724815Y-180016029I-299680J-87D01*
G01*
X428412095Y-180703309D02*
G75*
G02*
X427724816Y-180016030I-260505J426774D01*
G01*
X428412095Y-180703309D02*
G75*
G02*
X428568397Y-180659399I156255J-256066D01*
G01*
X428568397Y-177659375D02*
G75*
G02*
X428412094Y-177615442I3J300020D01*
G01*
X430369103Y-180659375D02*
G75*
G02*
X430525405Y-180703309I3J-299992D01*
G01*
X430525405Y-177615441D02*
G75*
G02*
X430369103Y-177659375I-156299J256058D01*
G01*
X430525405Y-177615441D02*
G75*
G02*
X431212684Y-178302720I260503J-426776D01*
G01*
X431168750Y-178459022D02*
G75*
G02*
X431212684Y-178302720I299992J3D01*
G01*
X431212684Y-180016030D02*
G75*
G02*
X430525405Y-180703309I-426776J-260503D01*
G01*
X431212684Y-180016030D02*
G75*
G02*
X431168750Y-179859728I256058J156299D01*
G01*
G04 #@! TO.C,D83*
X261081250Y-217259375D02*
X261081250Y-216559022D01*
X261081250Y-217259375D02*
X261081250Y-217959728D01*
X262781250Y-215759375D02*
X261880897Y-215759375D01*
X262781250Y-215759375D02*
X263681603Y-215759375D01*
X262781250Y-218759375D02*
X261880897Y-218759375D01*
X262781250Y-218759375D02*
X263681603Y-218759375D01*
X264481250Y-217259375D02*
X264481250Y-216559022D01*
X264481250Y-217259375D02*
X264481250Y-217959728D01*
X261037316Y-216402720D02*
G75*
G02*
X261081226Y-216559022I-256066J-156255D01*
G01*
X261037316Y-216402720D02*
G75*
G02*
X261724595Y-215715441I426774J260505D01*
G01*
X261081250Y-217959728D02*
G75*
G02*
X261037315Y-218116029I-299680J-87D01*
G01*
X261724595Y-218803309D02*
G75*
G02*
X261037316Y-218116030I-260505J426774D01*
G01*
X261724595Y-218803309D02*
G75*
G02*
X261880897Y-218759399I156255J-256066D01*
G01*
X261880897Y-215759375D02*
G75*
G02*
X261724594Y-215715442I3J300020D01*
G01*
X263681603Y-218759375D02*
G75*
G02*
X263837905Y-218803309I3J-299992D01*
G01*
X263837905Y-215715441D02*
G75*
G02*
X263681603Y-215759375I-156299J256058D01*
G01*
X263837905Y-215715441D02*
G75*
G02*
X264525184Y-216402720I260503J-426776D01*
G01*
X264481250Y-216559022D02*
G75*
G02*
X264525184Y-216402720I299992J3D01*
G01*
X264525184Y-218116030D02*
G75*
G02*
X263837905Y-218803309I-426776J-260503D01*
G01*
X264525184Y-218116030D02*
G75*
G02*
X264481250Y-217959728I256058J156299D01*
G01*
G04 #@! TO.C,D77*
X375381250Y-217259375D02*
X375381250Y-216559022D01*
X375381250Y-217259375D02*
X375381250Y-217959728D01*
X377081250Y-215759375D02*
X376180897Y-215759375D01*
X377081250Y-215759375D02*
X377981603Y-215759375D01*
X377081250Y-218759375D02*
X376180897Y-218759375D01*
X377081250Y-218759375D02*
X377981603Y-218759375D01*
X378781250Y-217259375D02*
X378781250Y-216559022D01*
X378781250Y-217259375D02*
X378781250Y-217959728D01*
X375337316Y-216402720D02*
G75*
G02*
X375381226Y-216559022I-256066J-156255D01*
G01*
X375337316Y-216402720D02*
G75*
G02*
X376024595Y-215715441I426774J260505D01*
G01*
X375381250Y-217959728D02*
G75*
G02*
X375337315Y-218116029I-299680J-87D01*
G01*
X376024595Y-218803309D02*
G75*
G02*
X375337316Y-218116030I-260505J426774D01*
G01*
X376024595Y-218803309D02*
G75*
G02*
X376180897Y-218759399I156255J-256066D01*
G01*
X376180897Y-215759375D02*
G75*
G02*
X376024594Y-215715442I3J300020D01*
G01*
X377981603Y-218759375D02*
G75*
G02*
X378137905Y-218803309I3J-299992D01*
G01*
X378137905Y-215715441D02*
G75*
G02*
X377981603Y-215759375I-156299J256058D01*
G01*
X378137905Y-215715441D02*
G75*
G02*
X378825184Y-216402720I260503J-426776D01*
G01*
X378781250Y-216559022D02*
G75*
G02*
X378825184Y-216402720I299992J3D01*
G01*
X378825184Y-218116030D02*
G75*
G02*
X378137905Y-218803309I-426776J-260503D01*
G01*
X378825184Y-218116030D02*
G75*
G02*
X378781250Y-217959728I256058J156299D01*
G01*
G04 #@! TO.C,D115*
X423006250Y-160109375D02*
X423006250Y-159409022D01*
X423006250Y-160109375D02*
X423006250Y-160809728D01*
X424706250Y-158609375D02*
X423805897Y-158609375D01*
X424706250Y-158609375D02*
X425606603Y-158609375D01*
X424706250Y-161609375D02*
X423805897Y-161609375D01*
X424706250Y-161609375D02*
X425606603Y-161609375D01*
X426406250Y-160109375D02*
X426406250Y-159409022D01*
X426406250Y-160109375D02*
X426406250Y-160809728D01*
X422962316Y-159252720D02*
G75*
G02*
X423006226Y-159409022I-256066J-156255D01*
G01*
X422962316Y-159252720D02*
G75*
G02*
X423649595Y-158565441I426774J260505D01*
G01*
X423006250Y-160809728D02*
G75*
G02*
X422962315Y-160966029I-299680J-87D01*
G01*
X423649595Y-161653309D02*
G75*
G02*
X422962316Y-160966030I-260505J426774D01*
G01*
X423649595Y-161653309D02*
G75*
G02*
X423805897Y-161609399I156255J-256066D01*
G01*
X423805897Y-158609375D02*
G75*
G02*
X423649594Y-158565442I3J300020D01*
G01*
X425606603Y-161609375D02*
G75*
G02*
X425762905Y-161653309I3J-299992D01*
G01*
X425762905Y-158565441D02*
G75*
G02*
X425606603Y-158609375I-156299J256058D01*
G01*
X425762905Y-158565441D02*
G75*
G02*
X426450184Y-159252720I260503J-426776D01*
G01*
X426406250Y-159409022D02*
G75*
G02*
X426450184Y-159252720I299992J3D01*
G01*
X426450184Y-160966030D02*
G75*
G02*
X425762905Y-161653309I-426776J-260503D01*
G01*
X426450184Y-160966030D02*
G75*
G02*
X426406250Y-160809728I256058J156299D01*
G01*
G04 #@! TO.C,D96*
X256318750Y-198209375D02*
X256318750Y-197509022D01*
X256318750Y-198209375D02*
X256318750Y-198909728D01*
X258018750Y-196709375D02*
X257118397Y-196709375D01*
X258018750Y-196709375D02*
X258919103Y-196709375D01*
X258018750Y-199709375D02*
X257118397Y-199709375D01*
X258018750Y-199709375D02*
X258919103Y-199709375D01*
X259718750Y-198209375D02*
X259718750Y-197509022D01*
X259718750Y-198209375D02*
X259718750Y-198909728D01*
X256274816Y-197352720D02*
G75*
G02*
X256318726Y-197509022I-256066J-156255D01*
G01*
X256274816Y-197352720D02*
G75*
G02*
X256962095Y-196665441I426774J260505D01*
G01*
X256318750Y-198909728D02*
G75*
G02*
X256274815Y-199066029I-299680J-87D01*
G01*
X256962095Y-199753309D02*
G75*
G02*
X256274816Y-199066030I-260505J426774D01*
G01*
X256962095Y-199753309D02*
G75*
G02*
X257118397Y-199709399I156255J-256066D01*
G01*
X257118397Y-196709375D02*
G75*
G02*
X256962094Y-196665442I3J300020D01*
G01*
X258919103Y-199709375D02*
G75*
G02*
X259075405Y-199753309I3J-299992D01*
G01*
X259075405Y-196665441D02*
G75*
G02*
X258919103Y-196709375I-156299J256058D01*
G01*
X259075405Y-196665441D02*
G75*
G02*
X259762684Y-197352720I260503J-426776D01*
G01*
X259718750Y-197509022D02*
G75*
G02*
X259762684Y-197352720I299992J3D01*
G01*
X259762684Y-199066030D02*
G75*
G02*
X259075405Y-199753309I-426776J-260503D01*
G01*
X259762684Y-199066030D02*
G75*
G02*
X259718750Y-198909728I256058J156299D01*
G01*
G04 #@! TO.C,D87*
X175356250Y-217259375D02*
X175356250Y-216559022D01*
X175356250Y-217259375D02*
X175356250Y-217959728D01*
X177056250Y-215759375D02*
X176155897Y-215759375D01*
X177056250Y-215759375D02*
X177956603Y-215759375D01*
X177056250Y-218759375D02*
X176155897Y-218759375D01*
X177056250Y-218759375D02*
X177956603Y-218759375D01*
X178756250Y-217259375D02*
X178756250Y-216559022D01*
X178756250Y-217259375D02*
X178756250Y-217959728D01*
X175312316Y-216402720D02*
G75*
G02*
X175356226Y-216559022I-256066J-156255D01*
G01*
X175312316Y-216402720D02*
G75*
G02*
X175999595Y-215715441I426774J260505D01*
G01*
X175356250Y-217959728D02*
G75*
G02*
X175312315Y-218116029I-299680J-87D01*
G01*
X175999595Y-218803309D02*
G75*
G02*
X175312316Y-218116030I-260505J426774D01*
G01*
X175999595Y-218803309D02*
G75*
G02*
X176155897Y-218759399I156255J-256066D01*
G01*
X176155897Y-215759375D02*
G75*
G02*
X175999594Y-215715442I3J300020D01*
G01*
X177956603Y-218759375D02*
G75*
G02*
X178112905Y-218803309I3J-299992D01*
G01*
X178112905Y-215715441D02*
G75*
G02*
X177956603Y-215759375I-156299J256058D01*
G01*
X178112905Y-215715441D02*
G75*
G02*
X178800184Y-216402720I260503J-426776D01*
G01*
X178756250Y-216559022D02*
G75*
G02*
X178800184Y-216402720I299992J3D01*
G01*
X178800184Y-218116030D02*
G75*
G02*
X178112905Y-218803309I-426776J-260503D01*
G01*
X178800184Y-218116030D02*
G75*
G02*
X178756250Y-217959728I256058J156299D01*
G01*
G04 #@! TO.C,D85*
X222981250Y-217259375D02*
X222981250Y-216559022D01*
X222981250Y-217259375D02*
X222981250Y-217959728D01*
X224681250Y-215759375D02*
X223780897Y-215759375D01*
X224681250Y-215759375D02*
X225581603Y-215759375D01*
X224681250Y-218759375D02*
X223780897Y-218759375D01*
X224681250Y-218759375D02*
X225581603Y-218759375D01*
X226381250Y-217259375D02*
X226381250Y-216559022D01*
X226381250Y-217259375D02*
X226381250Y-217959728D01*
X222937316Y-216402720D02*
G75*
G02*
X222981226Y-216559022I-256066J-156255D01*
G01*
X222937316Y-216402720D02*
G75*
G02*
X223624595Y-215715441I426774J260505D01*
G01*
X222981250Y-217959728D02*
G75*
G02*
X222937315Y-218116029I-299680J-87D01*
G01*
X223624595Y-218803309D02*
G75*
G02*
X222937316Y-218116030I-260505J426774D01*
G01*
X223624595Y-218803309D02*
G75*
G02*
X223780897Y-218759399I156255J-256066D01*
G01*
X223780897Y-215759375D02*
G75*
G02*
X223624594Y-215715442I3J300020D01*
G01*
X225581603Y-218759375D02*
G75*
G02*
X225737905Y-218803309I3J-299992D01*
G01*
X225737905Y-215715441D02*
G75*
G02*
X225581603Y-215759375I-156299J256058D01*
G01*
X225737905Y-215715441D02*
G75*
G02*
X226425184Y-216402720I260503J-426776D01*
G01*
X226381250Y-216559022D02*
G75*
G02*
X226425184Y-216402720I299992J3D01*
G01*
X226425184Y-218116030D02*
G75*
G02*
X225737905Y-218803309I-426776J-260503D01*
G01*
X226425184Y-218116030D02*
G75*
G02*
X226381250Y-217959728I256058J156299D01*
G01*
G04 #@! TO.C,D74*
X432531250Y-217259375D02*
X432531250Y-216559022D01*
X432531250Y-217259375D02*
X432531250Y-217959728D01*
X434231250Y-215759375D02*
X433330897Y-215759375D01*
X434231250Y-215759375D02*
X435131603Y-215759375D01*
X434231250Y-218759375D02*
X433330897Y-218759375D01*
X434231250Y-218759375D02*
X435131603Y-218759375D01*
X435931250Y-217259375D02*
X435931250Y-216559022D01*
X435931250Y-217259375D02*
X435931250Y-217959728D01*
X432487316Y-216402720D02*
G75*
G02*
X432531226Y-216559022I-256066J-156255D01*
G01*
X432487316Y-216402720D02*
G75*
G02*
X433174595Y-215715441I426774J260505D01*
G01*
X432531250Y-217959728D02*
G75*
G02*
X432487315Y-218116029I-299680J-87D01*
G01*
X433174595Y-218803309D02*
G75*
G02*
X432487316Y-218116030I-260505J426774D01*
G01*
X433174595Y-218803309D02*
G75*
G02*
X433330897Y-218759399I156255J-256066D01*
G01*
X433330897Y-215759375D02*
G75*
G02*
X433174594Y-215715442I3J300020D01*
G01*
X435131603Y-218759375D02*
G75*
G02*
X435287905Y-218803309I3J-299992D01*
G01*
X435287905Y-215715441D02*
G75*
G02*
X435131603Y-215759375I-156299J256058D01*
G01*
X435287905Y-215715441D02*
G75*
G02*
X435975184Y-216402720I260503J-426776D01*
G01*
X435931250Y-216559022D02*
G75*
G02*
X435975184Y-216402720I299992J3D01*
G01*
X435975184Y-218116030D02*
G75*
G02*
X435287905Y-218803309I-426776J-260503D01*
G01*
X435975184Y-218116030D02*
G75*
G02*
X435931250Y-217959728I256058J156299D01*
G01*
G04 #@! TO.C,D75*
X413481250Y-217259375D02*
X413481250Y-216559022D01*
X413481250Y-217259375D02*
X413481250Y-217959728D01*
X415181250Y-215759375D02*
X414280897Y-215759375D01*
X415181250Y-215759375D02*
X416081603Y-215759375D01*
X415181250Y-218759375D02*
X414280897Y-218759375D01*
X415181250Y-218759375D02*
X416081603Y-218759375D01*
X416881250Y-217259375D02*
X416881250Y-216559022D01*
X416881250Y-217259375D02*
X416881250Y-217959728D01*
X413437316Y-216402720D02*
G75*
G02*
X413481226Y-216559022I-256066J-156255D01*
G01*
X413437316Y-216402720D02*
G75*
G02*
X414124595Y-215715441I426774J260505D01*
G01*
X413481250Y-217959728D02*
G75*
G02*
X413437315Y-218116029I-299680J-87D01*
G01*
X414124595Y-218803309D02*
G75*
G02*
X413437316Y-218116030I-260505J426774D01*
G01*
X414124595Y-218803309D02*
G75*
G02*
X414280897Y-218759399I156255J-256066D01*
G01*
X414280897Y-215759375D02*
G75*
G02*
X414124594Y-215715442I3J300020D01*
G01*
X416081603Y-218759375D02*
G75*
G02*
X416237905Y-218803309I3J-299992D01*
G01*
X416237905Y-215715441D02*
G75*
G02*
X416081603Y-215759375I-156299J256058D01*
G01*
X416237905Y-215715441D02*
G75*
G02*
X416925184Y-216402720I260503J-426776D01*
G01*
X416881250Y-216559022D02*
G75*
G02*
X416925184Y-216402720I299992J3D01*
G01*
X416925184Y-218116030D02*
G75*
G02*
X416237905Y-218803309I-426776J-260503D01*
G01*
X416925184Y-218116030D02*
G75*
G02*
X416881250Y-217959728I256058J156299D01*
G01*
G04 #@! TO.C,D70*
X287275000Y-236309375D02*
X287275000Y-235609022D01*
X287275000Y-236309375D02*
X287275000Y-237009728D01*
X288975000Y-234809375D02*
X288074647Y-234809375D01*
X288975000Y-234809375D02*
X289875353Y-234809375D01*
X288975000Y-237809375D02*
X288074647Y-237809375D01*
X288975000Y-237809375D02*
X289875353Y-237809375D01*
X290675000Y-236309375D02*
X290675000Y-235609022D01*
X290675000Y-236309375D02*
X290675000Y-237009728D01*
X287231066Y-235452720D02*
G75*
G02*
X287274976Y-235609022I-256066J-156255D01*
G01*
X287231066Y-235452720D02*
G75*
G02*
X287918345Y-234765441I426774J260505D01*
G01*
X287275000Y-237009728D02*
G75*
G02*
X287231065Y-237166029I-299680J-87D01*
G01*
X287918345Y-237853309D02*
G75*
G02*
X287231066Y-237166030I-260505J426774D01*
G01*
X287918345Y-237853309D02*
G75*
G02*
X288074647Y-237809399I156255J-256066D01*
G01*
X288074647Y-234809375D02*
G75*
G02*
X287918344Y-234765442I3J300020D01*
G01*
X289875353Y-237809375D02*
G75*
G02*
X290031655Y-237853309I3J-299992D01*
G01*
X290031655Y-234765441D02*
G75*
G02*
X289875353Y-234809375I-156299J256058D01*
G01*
X290031655Y-234765441D02*
G75*
G02*
X290718934Y-235452720I260503J-426776D01*
G01*
X290675000Y-235609022D02*
G75*
G02*
X290718934Y-235452720I299992J3D01*
G01*
X290718934Y-237166030D02*
G75*
G02*
X290031655Y-237853309I-426776J-260503D01*
G01*
X290718934Y-237166030D02*
G75*
G02*
X290675000Y-237009728I256058J156299D01*
G01*
G04 #@! TO.C,D92*
X332518750Y-198209375D02*
X332518750Y-197509022D01*
X332518750Y-198209375D02*
X332518750Y-198909728D01*
X334218750Y-196709375D02*
X333318397Y-196709375D01*
X334218750Y-196709375D02*
X335119103Y-196709375D01*
X334218750Y-199709375D02*
X333318397Y-199709375D01*
X334218750Y-199709375D02*
X335119103Y-199709375D01*
X335918750Y-198209375D02*
X335918750Y-197509022D01*
X335918750Y-198209375D02*
X335918750Y-198909728D01*
X332474816Y-197352720D02*
G75*
G02*
X332518726Y-197509022I-256066J-156255D01*
G01*
X332474816Y-197352720D02*
G75*
G02*
X333162095Y-196665441I426774J260505D01*
G01*
X332518750Y-198909728D02*
G75*
G02*
X332474815Y-199066029I-299680J-87D01*
G01*
X333162095Y-199753309D02*
G75*
G02*
X332474816Y-199066030I-260505J426774D01*
G01*
X333162095Y-199753309D02*
G75*
G02*
X333318397Y-199709399I156255J-256066D01*
G01*
X333318397Y-196709375D02*
G75*
G02*
X333162094Y-196665442I3J300020D01*
G01*
X335119103Y-199709375D02*
G75*
G02*
X335275405Y-199753309I3J-299992D01*
G01*
X335275405Y-196665441D02*
G75*
G02*
X335119103Y-196709375I-156299J256058D01*
G01*
X335275405Y-196665441D02*
G75*
G02*
X335962684Y-197352720I260503J-426776D01*
G01*
X335918750Y-197509022D02*
G75*
G02*
X335962684Y-197352720I299992J3D01*
G01*
X335962684Y-199066030D02*
G75*
G02*
X335275405Y-199753309I-426776J-260503D01*
G01*
X335962684Y-199066030D02*
G75*
G02*
X335918750Y-198909728I256058J156299D01*
G01*
G04 #@! TO.C,D128*
X165831250Y-160109375D02*
X165831250Y-159409022D01*
X165831250Y-160109375D02*
X165831250Y-160809728D01*
X167531250Y-158609375D02*
X166630897Y-158609375D01*
X167531250Y-158609375D02*
X168431603Y-158609375D01*
X167531250Y-161609375D02*
X166630897Y-161609375D01*
X167531250Y-161609375D02*
X168431603Y-161609375D01*
X169231250Y-160109375D02*
X169231250Y-159409022D01*
X169231250Y-160109375D02*
X169231250Y-160809728D01*
X165787316Y-159252720D02*
G75*
G02*
X165831226Y-159409022I-256066J-156255D01*
G01*
X165787316Y-159252720D02*
G75*
G02*
X166474595Y-158565441I426774J260505D01*
G01*
X165831250Y-160809728D02*
G75*
G02*
X165787315Y-160966029I-299680J-87D01*
G01*
X166474595Y-161653309D02*
G75*
G02*
X165787316Y-160966030I-260505J426774D01*
G01*
X166474595Y-161653309D02*
G75*
G02*
X166630897Y-161609399I156255J-256066D01*
G01*
X166630897Y-158609375D02*
G75*
G02*
X166474594Y-158565442I3J300020D01*
G01*
X168431603Y-161609375D02*
G75*
G02*
X168587905Y-161653309I3J-299992D01*
G01*
X168587905Y-158565441D02*
G75*
G02*
X168431603Y-158609375I-156299J256058D01*
G01*
X168587905Y-158565441D02*
G75*
G02*
X169275184Y-159252720I260503J-426776D01*
G01*
X169231250Y-159409022D02*
G75*
G02*
X169275184Y-159252720I299992J3D01*
G01*
X169275184Y-160966030D02*
G75*
G02*
X168587905Y-161653309I-426776J-260503D01*
G01*
X169275184Y-160966030D02*
G75*
G02*
X169231250Y-160809728I256058J156299D01*
G01*
G04 #@! TO.C,D86*
X203931250Y-217259375D02*
X203931250Y-216559022D01*
X203931250Y-217259375D02*
X203931250Y-217959728D01*
X205631250Y-215759375D02*
X204730897Y-215759375D01*
X205631250Y-215759375D02*
X206531603Y-215759375D01*
X205631250Y-218759375D02*
X204730897Y-218759375D01*
X205631250Y-218759375D02*
X206531603Y-218759375D01*
X207331250Y-217259375D02*
X207331250Y-216559022D01*
X207331250Y-217259375D02*
X207331250Y-217959728D01*
X203887316Y-216402720D02*
G75*
G02*
X203931226Y-216559022I-256066J-156255D01*
G01*
X203887316Y-216402720D02*
G75*
G02*
X204574595Y-215715441I426774J260505D01*
G01*
X203931250Y-217959728D02*
G75*
G02*
X203887315Y-218116029I-299680J-87D01*
G01*
X204574595Y-218803309D02*
G75*
G02*
X203887316Y-218116030I-260505J426774D01*
G01*
X204574595Y-218803309D02*
G75*
G02*
X204730897Y-218759399I156255J-256066D01*
G01*
X204730897Y-215759375D02*
G75*
G02*
X204574594Y-215715442I3J300020D01*
G01*
X206531603Y-218759375D02*
G75*
G02*
X206687905Y-218803309I3J-299992D01*
G01*
X206687905Y-215715441D02*
G75*
G02*
X206531603Y-215759375I-156299J256058D01*
G01*
X206687905Y-215715441D02*
G75*
G02*
X207375184Y-216402720I260503J-426776D01*
G01*
X207331250Y-216559022D02*
G75*
G02*
X207375184Y-216402720I299992J3D01*
G01*
X207375184Y-218116030D02*
G75*
G02*
X206687905Y-218803309I-426776J-260503D01*
G01*
X207375184Y-218116030D02*
G75*
G02*
X207331250Y-217959728I256058J156299D01*
G01*
G04 #@! TO.C,D116*
X394431250Y-160109375D02*
X394431250Y-159409022D01*
X394431250Y-160109375D02*
X394431250Y-160809728D01*
X396131250Y-158609375D02*
X395230897Y-158609375D01*
X396131250Y-158609375D02*
X397031603Y-158609375D01*
X396131250Y-161609375D02*
X395230897Y-161609375D01*
X396131250Y-161609375D02*
X397031603Y-161609375D01*
X397831250Y-160109375D02*
X397831250Y-159409022D01*
X397831250Y-160109375D02*
X397831250Y-160809728D01*
X394387316Y-159252720D02*
G75*
G02*
X394431226Y-159409022I-256066J-156255D01*
G01*
X394387316Y-159252720D02*
G75*
G02*
X395074595Y-158565441I426774J260505D01*
G01*
X394431250Y-160809728D02*
G75*
G02*
X394387315Y-160966029I-299680J-87D01*
G01*
X395074595Y-161653309D02*
G75*
G02*
X394387316Y-160966030I-260505J426774D01*
G01*
X395074595Y-161653309D02*
G75*
G02*
X395230897Y-161609399I156255J-256066D01*
G01*
X395230897Y-158609375D02*
G75*
G02*
X395074594Y-158565442I3J300020D01*
G01*
X397031603Y-161609375D02*
G75*
G02*
X397187905Y-161653309I3J-299992D01*
G01*
X397187905Y-158565441D02*
G75*
G02*
X397031603Y-158609375I-156299J256058D01*
G01*
X397187905Y-158565441D02*
G75*
G02*
X397875184Y-159252720I260503J-426776D01*
G01*
X397831250Y-159409022D02*
G75*
G02*
X397875184Y-159252720I299992J3D01*
G01*
X397875184Y-160966030D02*
G75*
G02*
X397187905Y-161653309I-426776J-260503D01*
G01*
X397875184Y-160966030D02*
G75*
G02*
X397831250Y-160809728I256058J156299D01*
G01*
G04 #@! TO.C,D91*
X351568750Y-198209375D02*
X351568750Y-197509022D01*
X351568750Y-198209375D02*
X351568750Y-198909728D01*
X353268750Y-196709375D02*
X352368397Y-196709375D01*
X353268750Y-196709375D02*
X354169103Y-196709375D01*
X353268750Y-199709375D02*
X352368397Y-199709375D01*
X353268750Y-199709375D02*
X354169103Y-199709375D01*
X354968750Y-198209375D02*
X354968750Y-197509022D01*
X354968750Y-198209375D02*
X354968750Y-198909728D01*
X351524816Y-197352720D02*
G75*
G02*
X351568726Y-197509022I-256066J-156255D01*
G01*
X351524816Y-197352720D02*
G75*
G02*
X352212095Y-196665441I426774J260505D01*
G01*
X351568750Y-198909728D02*
G75*
G02*
X351524815Y-199066029I-299680J-87D01*
G01*
X352212095Y-199753309D02*
G75*
G02*
X351524816Y-199066030I-260505J426774D01*
G01*
X352212095Y-199753309D02*
G75*
G02*
X352368397Y-199709399I156255J-256066D01*
G01*
X352368397Y-196709375D02*
G75*
G02*
X352212094Y-196665442I3J300020D01*
G01*
X354169103Y-199709375D02*
G75*
G02*
X354325405Y-199753309I3J-299992D01*
G01*
X354325405Y-196665441D02*
G75*
G02*
X354169103Y-196709375I-156299J256058D01*
G01*
X354325405Y-196665441D02*
G75*
G02*
X355012684Y-197352720I260503J-426776D01*
G01*
X354968750Y-197509022D02*
G75*
G02*
X355012684Y-197352720I299992J3D01*
G01*
X355012684Y-199066030D02*
G75*
G02*
X354325405Y-199753309I-426776J-260503D01*
G01*
X355012684Y-199066030D02*
G75*
G02*
X354968750Y-198909728I256058J156299D01*
G01*
G04 #@! TO.C,D67*
X394431250Y-236309375D02*
X394431250Y-235609022D01*
X394431250Y-236309375D02*
X394431250Y-237009728D01*
X396131250Y-234809375D02*
X395230897Y-234809375D01*
X396131250Y-234809375D02*
X397031603Y-234809375D01*
X396131250Y-237809375D02*
X395230897Y-237809375D01*
X396131250Y-237809375D02*
X397031603Y-237809375D01*
X397831250Y-236309375D02*
X397831250Y-235609022D01*
X397831250Y-236309375D02*
X397831250Y-237009728D01*
X394387316Y-235452720D02*
G75*
G02*
X394431226Y-235609022I-256066J-156255D01*
G01*
X394387316Y-235452720D02*
G75*
G02*
X395074595Y-234765441I426774J260505D01*
G01*
X394431250Y-237009728D02*
G75*
G02*
X394387315Y-237166029I-299680J-87D01*
G01*
X395074595Y-237853309D02*
G75*
G02*
X394387316Y-237166030I-260505J426774D01*
G01*
X395074595Y-237853309D02*
G75*
G02*
X395230897Y-237809399I156255J-256066D01*
G01*
X395230897Y-234809375D02*
G75*
G02*
X395074594Y-234765442I3J300020D01*
G01*
X397031603Y-237809375D02*
G75*
G02*
X397187905Y-237853309I3J-299992D01*
G01*
X397187905Y-234765441D02*
G75*
G02*
X397031603Y-234809375I-156299J256058D01*
G01*
X397187905Y-234765441D02*
G75*
G02*
X397875184Y-235452720I260503J-426776D01*
G01*
X397831250Y-235609022D02*
G75*
G02*
X397875184Y-235452720I299992J3D01*
G01*
X397875184Y-237166030D02*
G75*
G02*
X397187905Y-237853309I-426776J-260503D01*
G01*
X397875184Y-237166030D02*
G75*
G02*
X397831250Y-237009728I256058J156299D01*
G01*
G04 #@! TO.C,D103*
X384906250Y-179159375D02*
X384906250Y-178459022D01*
X384906250Y-179159375D02*
X384906250Y-179859728D01*
X386606250Y-177659375D02*
X385705897Y-177659375D01*
X386606250Y-177659375D02*
X387506603Y-177659375D01*
X386606250Y-180659375D02*
X385705897Y-180659375D01*
X386606250Y-180659375D02*
X387506603Y-180659375D01*
X388306250Y-179159375D02*
X388306250Y-178459022D01*
X388306250Y-179159375D02*
X388306250Y-179859728D01*
X384862316Y-178302720D02*
G75*
G02*
X384906226Y-178459022I-256066J-156255D01*
G01*
X384862316Y-178302720D02*
G75*
G02*
X385549595Y-177615441I426774J260505D01*
G01*
X384906250Y-179859728D02*
G75*
G02*
X384862315Y-180016029I-299680J-87D01*
G01*
X385549595Y-180703309D02*
G75*
G02*
X384862316Y-180016030I-260505J426774D01*
G01*
X385549595Y-180703309D02*
G75*
G02*
X385705897Y-180659399I156255J-256066D01*
G01*
X385705897Y-177659375D02*
G75*
G02*
X385549594Y-177615442I3J300020D01*
G01*
X387506603Y-180659375D02*
G75*
G02*
X387662905Y-180703309I3J-299992D01*
G01*
X387662905Y-177615441D02*
G75*
G02*
X387506603Y-177659375I-156299J256058D01*
G01*
X387662905Y-177615441D02*
G75*
G02*
X388350184Y-178302720I260503J-426776D01*
G01*
X388306250Y-178459022D02*
G75*
G02*
X388350184Y-178302720I299992J3D01*
G01*
X388350184Y-180016030D02*
G75*
G02*
X387662905Y-180703309I-426776J-260503D01*
G01*
X388350184Y-180016030D02*
G75*
G02*
X388306250Y-179859728I256058J156299D01*
G01*
G04 #@! TO.C,D79*
X337281250Y-217259375D02*
X337281250Y-216559022D01*
X337281250Y-217259375D02*
X337281250Y-217959728D01*
X338981250Y-215759375D02*
X338080897Y-215759375D01*
X338981250Y-215759375D02*
X339881603Y-215759375D01*
X338981250Y-218759375D02*
X338080897Y-218759375D01*
X338981250Y-218759375D02*
X339881603Y-218759375D01*
X340681250Y-217259375D02*
X340681250Y-216559022D01*
X340681250Y-217259375D02*
X340681250Y-217959728D01*
X337237316Y-216402720D02*
G75*
G02*
X337281226Y-216559022I-256066J-156255D01*
G01*
X337237316Y-216402720D02*
G75*
G02*
X337924595Y-215715441I426774J260505D01*
G01*
X337281250Y-217959728D02*
G75*
G02*
X337237315Y-218116029I-299680J-87D01*
G01*
X337924595Y-218803309D02*
G75*
G02*
X337237316Y-218116030I-260505J426774D01*
G01*
X337924595Y-218803309D02*
G75*
G02*
X338080897Y-218759399I156255J-256066D01*
G01*
X338080897Y-215759375D02*
G75*
G02*
X337924594Y-215715442I3J300020D01*
G01*
X339881603Y-218759375D02*
G75*
G02*
X340037905Y-218803309I3J-299992D01*
G01*
X340037905Y-215715441D02*
G75*
G02*
X339881603Y-215759375I-156299J256058D01*
G01*
X340037905Y-215715441D02*
G75*
G02*
X340725184Y-216402720I260503J-426776D01*
G01*
X340681250Y-216559022D02*
G75*
G02*
X340725184Y-216402720I299992J3D01*
G01*
X340725184Y-218116030D02*
G75*
G02*
X340037905Y-218803309I-426776J-260503D01*
G01*
X340725184Y-218116030D02*
G75*
G02*
X340681250Y-217959728I256058J156299D01*
G01*
G04 #@! TO.C,D110*
X251556250Y-179159375D02*
X251556250Y-178459022D01*
X251556250Y-179159375D02*
X251556250Y-179859728D01*
X253256250Y-177659375D02*
X252355897Y-177659375D01*
X253256250Y-177659375D02*
X254156603Y-177659375D01*
X253256250Y-180659375D02*
X252355897Y-180659375D01*
X253256250Y-180659375D02*
X254156603Y-180659375D01*
X254956250Y-179159375D02*
X254956250Y-178459022D01*
X254956250Y-179159375D02*
X254956250Y-179859728D01*
X251512316Y-178302720D02*
G75*
G02*
X251556226Y-178459022I-256066J-156255D01*
G01*
X251512316Y-178302720D02*
G75*
G02*
X252199595Y-177615441I426774J260505D01*
G01*
X251556250Y-179859728D02*
G75*
G02*
X251512315Y-180016029I-299680J-87D01*
G01*
X252199595Y-180703309D02*
G75*
G02*
X251512316Y-180016030I-260505J426774D01*
G01*
X252199595Y-180703309D02*
G75*
G02*
X252355897Y-180659399I156255J-256066D01*
G01*
X252355897Y-177659375D02*
G75*
G02*
X252199594Y-177615442I3J300020D01*
G01*
X254156603Y-180659375D02*
G75*
G02*
X254312905Y-180703309I3J-299992D01*
G01*
X254312905Y-177615441D02*
G75*
G02*
X254156603Y-177659375I-156299J256058D01*
G01*
X254312905Y-177615441D02*
G75*
G02*
X255000184Y-178302720I260503J-426776D01*
G01*
X254956250Y-178459022D02*
G75*
G02*
X255000184Y-178302720I299992J3D01*
G01*
X255000184Y-180016030D02*
G75*
G02*
X254312905Y-180703309I-426776J-260503D01*
G01*
X255000184Y-180016030D02*
G75*
G02*
X254956250Y-179859728I256058J156299D01*
G01*
G04 #@! TO.C,D111*
X232506250Y-179159375D02*
X232506250Y-178459022D01*
X232506250Y-179159375D02*
X232506250Y-179859728D01*
X234206250Y-177659375D02*
X233305897Y-177659375D01*
X234206250Y-177659375D02*
X235106603Y-177659375D01*
X234206250Y-180659375D02*
X233305897Y-180659375D01*
X234206250Y-180659375D02*
X235106603Y-180659375D01*
X235906250Y-179159375D02*
X235906250Y-178459022D01*
X235906250Y-179159375D02*
X235906250Y-179859728D01*
X232462316Y-178302720D02*
G75*
G02*
X232506226Y-178459022I-256066J-156255D01*
G01*
X232462316Y-178302720D02*
G75*
G02*
X233149595Y-177615441I426774J260505D01*
G01*
X232506250Y-179859728D02*
G75*
G02*
X232462315Y-180016029I-299680J-87D01*
G01*
X233149595Y-180703309D02*
G75*
G02*
X232462316Y-180016030I-260505J426774D01*
G01*
X233149595Y-180703309D02*
G75*
G02*
X233305897Y-180659399I156255J-256066D01*
G01*
X233305897Y-177659375D02*
G75*
G02*
X233149594Y-177615442I3J300020D01*
G01*
X235106603Y-180659375D02*
G75*
G02*
X235262905Y-180703309I3J-299992D01*
G01*
X235262905Y-177615441D02*
G75*
G02*
X235106603Y-177659375I-156299J256058D01*
G01*
X235262905Y-177615441D02*
G75*
G02*
X235950184Y-178302720I260503J-426776D01*
G01*
X235906250Y-178459022D02*
G75*
G02*
X235950184Y-178302720I299992J3D01*
G01*
X235950184Y-180016030D02*
G75*
G02*
X235262905Y-180703309I-426776J-260503D01*
G01*
X235950184Y-180016030D02*
G75*
G02*
X235906250Y-179859728I256058J156299D01*
G01*
G04 #@! TO.C,D88*
X420625000Y-198209375D02*
X420625000Y-197509022D01*
X420625000Y-198209375D02*
X420625000Y-198909728D01*
X422325000Y-196709375D02*
X421424647Y-196709375D01*
X422325000Y-196709375D02*
X423225353Y-196709375D01*
X422325000Y-199709375D02*
X421424647Y-199709375D01*
X422325000Y-199709375D02*
X423225353Y-199709375D01*
X424025000Y-198209375D02*
X424025000Y-197509022D01*
X424025000Y-198209375D02*
X424025000Y-198909728D01*
X420581066Y-197352720D02*
G75*
G02*
X420624976Y-197509022I-256066J-156255D01*
G01*
X420581066Y-197352720D02*
G75*
G02*
X421268345Y-196665441I426774J260505D01*
G01*
X420625000Y-198909728D02*
G75*
G02*
X420581065Y-199066029I-299680J-87D01*
G01*
X421268345Y-199753309D02*
G75*
G02*
X420581066Y-199066030I-260505J426774D01*
G01*
X421268345Y-199753309D02*
G75*
G02*
X421424647Y-199709399I156255J-256066D01*
G01*
X421424647Y-196709375D02*
G75*
G02*
X421268344Y-196665442I3J300020D01*
G01*
X423225353Y-199709375D02*
G75*
G02*
X423381655Y-199753309I3J-299992D01*
G01*
X423381655Y-196665441D02*
G75*
G02*
X423225353Y-196709375I-156299J256058D01*
G01*
X423381655Y-196665441D02*
G75*
G02*
X424068934Y-197352720I260503J-426776D01*
G01*
X424025000Y-197509022D02*
G75*
G02*
X424068934Y-197352720I299992J3D01*
G01*
X424068934Y-199066030D02*
G75*
G02*
X423381655Y-199753309I-426776J-260503D01*
G01*
X424068934Y-199066030D02*
G75*
G02*
X424025000Y-198909728I256058J156299D01*
G01*
G04 #@! TO.C,D108*
X289656250Y-179159375D02*
X289656250Y-178459022D01*
X289656250Y-179159375D02*
X289656250Y-179859728D01*
X291356250Y-177659375D02*
X290455897Y-177659375D01*
X291356250Y-177659375D02*
X292256603Y-177659375D01*
X291356250Y-180659375D02*
X290455897Y-180659375D01*
X291356250Y-180659375D02*
X292256603Y-180659375D01*
X293056250Y-179159375D02*
X293056250Y-178459022D01*
X293056250Y-179159375D02*
X293056250Y-179859728D01*
X289612316Y-178302720D02*
G75*
G02*
X289656226Y-178459022I-256066J-156255D01*
G01*
X289612316Y-178302720D02*
G75*
G02*
X290299595Y-177615441I426774J260505D01*
G01*
X289656250Y-179859728D02*
G75*
G02*
X289612315Y-180016029I-299680J-87D01*
G01*
X290299595Y-180703309D02*
G75*
G02*
X289612316Y-180016030I-260505J426774D01*
G01*
X290299595Y-180703309D02*
G75*
G02*
X290455897Y-180659399I156255J-256066D01*
G01*
X290455897Y-177659375D02*
G75*
G02*
X290299594Y-177615442I3J300020D01*
G01*
X292256603Y-180659375D02*
G75*
G02*
X292412905Y-180703309I3J-299992D01*
G01*
X292412905Y-177615441D02*
G75*
G02*
X292256603Y-177659375I-156299J256058D01*
G01*
X292412905Y-177615441D02*
G75*
G02*
X293100184Y-178302720I260503J-426776D01*
G01*
X293056250Y-178459022D02*
G75*
G02*
X293100184Y-178302720I299992J3D01*
G01*
X293100184Y-180016030D02*
G75*
G02*
X292412905Y-180703309I-426776J-260503D01*
G01*
X293100184Y-180016030D02*
G75*
G02*
X293056250Y-179859728I256058J156299D01*
G01*
G04 #@! TO.C,D82*
X280131250Y-217259375D02*
X280131250Y-216559022D01*
X280131250Y-217259375D02*
X280131250Y-217959728D01*
X281831250Y-215759375D02*
X280930897Y-215759375D01*
X281831250Y-215759375D02*
X282731603Y-215759375D01*
X281831250Y-218759375D02*
X280930897Y-218759375D01*
X281831250Y-218759375D02*
X282731603Y-218759375D01*
X283531250Y-217259375D02*
X283531250Y-216559022D01*
X283531250Y-217259375D02*
X283531250Y-217959728D01*
X280087316Y-216402720D02*
G75*
G02*
X280131226Y-216559022I-256066J-156255D01*
G01*
X280087316Y-216402720D02*
G75*
G02*
X280774595Y-215715441I426774J260505D01*
G01*
X280131250Y-217959728D02*
G75*
G02*
X280087315Y-218116029I-299680J-87D01*
G01*
X280774595Y-218803309D02*
G75*
G02*
X280087316Y-218116030I-260505J426774D01*
G01*
X280774595Y-218803309D02*
G75*
G02*
X280930897Y-218759399I156255J-256066D01*
G01*
X280930897Y-215759375D02*
G75*
G02*
X280774594Y-215715442I3J300020D01*
G01*
X282731603Y-218759375D02*
G75*
G02*
X282887905Y-218803309I3J-299992D01*
G01*
X282887905Y-215715441D02*
G75*
G02*
X282731603Y-215759375I-156299J256058D01*
G01*
X282887905Y-215715441D02*
G75*
G02*
X283575184Y-216402720I260503J-426776D01*
G01*
X283531250Y-216559022D02*
G75*
G02*
X283575184Y-216402720I299992J3D01*
G01*
X283575184Y-218116030D02*
G75*
G02*
X282887905Y-218803309I-426776J-260503D01*
G01*
X283575184Y-218116030D02*
G75*
G02*
X283531250Y-217959728I256058J156299D01*
G01*
G04 #@! TO.C,D76*
X394431250Y-217259375D02*
X394431250Y-216559022D01*
X394431250Y-217259375D02*
X394431250Y-217959728D01*
X396131250Y-215759375D02*
X395230897Y-215759375D01*
X396131250Y-215759375D02*
X397031603Y-215759375D01*
X396131250Y-218759375D02*
X395230897Y-218759375D01*
X396131250Y-218759375D02*
X397031603Y-218759375D01*
X397831250Y-217259375D02*
X397831250Y-216559022D01*
X397831250Y-217259375D02*
X397831250Y-217959728D01*
X394387316Y-216402720D02*
G75*
G02*
X394431226Y-216559022I-256066J-156255D01*
G01*
X394387316Y-216402720D02*
G75*
G02*
X395074595Y-215715441I426774J260505D01*
G01*
X394431250Y-217959728D02*
G75*
G02*
X394387315Y-218116029I-299680J-87D01*
G01*
X395074595Y-218803309D02*
G75*
G02*
X394387316Y-218116030I-260505J426774D01*
G01*
X395074595Y-218803309D02*
G75*
G02*
X395230897Y-218759399I156255J-256066D01*
G01*
X395230897Y-215759375D02*
G75*
G02*
X395074594Y-215715442I3J300020D01*
G01*
X397031603Y-218759375D02*
G75*
G02*
X397187905Y-218803309I3J-299992D01*
G01*
X397187905Y-215715441D02*
G75*
G02*
X397031603Y-215759375I-156299J256058D01*
G01*
X397187905Y-215715441D02*
G75*
G02*
X397875184Y-216402720I260503J-426776D01*
G01*
X397831250Y-216559022D02*
G75*
G02*
X397875184Y-216402720I299992J3D01*
G01*
X397875184Y-218116030D02*
G75*
G02*
X397187905Y-218803309I-426776J-260503D01*
G01*
X397875184Y-218116030D02*
G75*
G02*
X397831250Y-217959728I256058J156299D01*
G01*
G04 #@! TO.C,D95*
X275368750Y-198209375D02*
X275368750Y-197509022D01*
X275368750Y-198209375D02*
X275368750Y-198909728D01*
X277068750Y-196709375D02*
X276168397Y-196709375D01*
X277068750Y-196709375D02*
X277969103Y-196709375D01*
X277068750Y-199709375D02*
X276168397Y-199709375D01*
X277068750Y-199709375D02*
X277969103Y-199709375D01*
X278768750Y-198209375D02*
X278768750Y-197509022D01*
X278768750Y-198209375D02*
X278768750Y-198909728D01*
X275324816Y-197352720D02*
G75*
G02*
X275368726Y-197509022I-256066J-156255D01*
G01*
X275324816Y-197352720D02*
G75*
G02*
X276012095Y-196665441I426774J260505D01*
G01*
X275368750Y-198909728D02*
G75*
G02*
X275324815Y-199066029I-299680J-87D01*
G01*
X276012095Y-199753309D02*
G75*
G02*
X275324816Y-199066030I-260505J426774D01*
G01*
X276012095Y-199753309D02*
G75*
G02*
X276168397Y-199709399I156255J-256066D01*
G01*
X276168397Y-196709375D02*
G75*
G02*
X276012094Y-196665442I3J300020D01*
G01*
X277969103Y-199709375D02*
G75*
G02*
X278125405Y-199753309I3J-299992D01*
G01*
X278125405Y-196665441D02*
G75*
G02*
X277969103Y-196709375I-156299J256058D01*
G01*
X278125405Y-196665441D02*
G75*
G02*
X278812684Y-197352720I260503J-426776D01*
G01*
X278768750Y-197509022D02*
G75*
G02*
X278812684Y-197352720I299992J3D01*
G01*
X278812684Y-199066030D02*
G75*
G02*
X278125405Y-199753309I-426776J-260503D01*
G01*
X278812684Y-199066030D02*
G75*
G02*
X278768750Y-198909728I256058J156299D01*
G01*
G04 #@! TO.C,D89*
X389668750Y-198209375D02*
X389668750Y-197509022D01*
X389668750Y-198209375D02*
X389668750Y-198909728D01*
X391368750Y-196709375D02*
X390468397Y-196709375D01*
X391368750Y-196709375D02*
X392269103Y-196709375D01*
X391368750Y-199709375D02*
X390468397Y-199709375D01*
X391368750Y-199709375D02*
X392269103Y-199709375D01*
X393068750Y-198209375D02*
X393068750Y-197509022D01*
X393068750Y-198209375D02*
X393068750Y-198909728D01*
X389624816Y-197352720D02*
G75*
G02*
X389668726Y-197509022I-256066J-156255D01*
G01*
X389624816Y-197352720D02*
G75*
G02*
X390312095Y-196665441I426774J260505D01*
G01*
X389668750Y-198909728D02*
G75*
G02*
X389624815Y-199066029I-299680J-87D01*
G01*
X390312095Y-199753309D02*
G75*
G02*
X389624816Y-199066030I-260505J426774D01*
G01*
X390312095Y-199753309D02*
G75*
G02*
X390468397Y-199709399I156255J-256066D01*
G01*
X390468397Y-196709375D02*
G75*
G02*
X390312094Y-196665442I3J300020D01*
G01*
X392269103Y-199709375D02*
G75*
G02*
X392425405Y-199753309I3J-299992D01*
G01*
X392425405Y-196665441D02*
G75*
G02*
X392269103Y-196709375I-156299J256058D01*
G01*
X392425405Y-196665441D02*
G75*
G02*
X393112684Y-197352720I260503J-426776D01*
G01*
X393068750Y-197509022D02*
G75*
G02*
X393112684Y-197352720I299992J3D01*
G01*
X393112684Y-199066030D02*
G75*
G02*
X392425405Y-199753309I-426776J-260503D01*
G01*
X393112684Y-199066030D02*
G75*
G02*
X393068750Y-198909728I256058J156299D01*
G01*
G04 #@! TO.C,D81*
X299181250Y-217259375D02*
X299181250Y-216559022D01*
X299181250Y-217259375D02*
X299181250Y-217959728D01*
X300881250Y-215759375D02*
X299980897Y-215759375D01*
X300881250Y-215759375D02*
X301781603Y-215759375D01*
X300881250Y-218759375D02*
X299980897Y-218759375D01*
X300881250Y-218759375D02*
X301781603Y-218759375D01*
X302581250Y-217259375D02*
X302581250Y-216559022D01*
X302581250Y-217259375D02*
X302581250Y-217959728D01*
X299137316Y-216402720D02*
G75*
G02*
X299181226Y-216559022I-256066J-156255D01*
G01*
X299137316Y-216402720D02*
G75*
G02*
X299824595Y-215715441I426774J260505D01*
G01*
X299181250Y-217959728D02*
G75*
G02*
X299137315Y-218116029I-299680J-87D01*
G01*
X299824595Y-218803309D02*
G75*
G02*
X299137316Y-218116030I-260505J426774D01*
G01*
X299824595Y-218803309D02*
G75*
G02*
X299980897Y-218759399I156255J-256066D01*
G01*
X299980897Y-215759375D02*
G75*
G02*
X299824594Y-215715442I3J300020D01*
G01*
X301781603Y-218759375D02*
G75*
G02*
X301937905Y-218803309I3J-299992D01*
G01*
X301937905Y-215715441D02*
G75*
G02*
X301781603Y-215759375I-156299J256058D01*
G01*
X301937905Y-215715441D02*
G75*
G02*
X302625184Y-216402720I260503J-426776D01*
G01*
X302581250Y-216559022D02*
G75*
G02*
X302625184Y-216402720I299992J3D01*
G01*
X302625184Y-218116030D02*
G75*
G02*
X301937905Y-218803309I-426776J-260503D01*
G01*
X302625184Y-218116030D02*
G75*
G02*
X302581250Y-217959728I256058J156299D01*
G01*
G04 #@! TO.C,D69*
X356331250Y-236309375D02*
X356331250Y-235609022D01*
X356331250Y-236309375D02*
X356331250Y-237009728D01*
X358031250Y-234809375D02*
X357130897Y-234809375D01*
X358031250Y-234809375D02*
X358931603Y-234809375D01*
X358031250Y-237809375D02*
X357130897Y-237809375D01*
X358031250Y-237809375D02*
X358931603Y-237809375D01*
X359731250Y-236309375D02*
X359731250Y-235609022D01*
X359731250Y-236309375D02*
X359731250Y-237009728D01*
X356287316Y-235452720D02*
G75*
G02*
X356331226Y-235609022I-256066J-156255D01*
G01*
X356287316Y-235452720D02*
G75*
G02*
X356974595Y-234765441I426774J260505D01*
G01*
X356331250Y-237009728D02*
G75*
G02*
X356287315Y-237166029I-299680J-87D01*
G01*
X356974595Y-237853309D02*
G75*
G02*
X356287316Y-237166030I-260505J426774D01*
G01*
X356974595Y-237853309D02*
G75*
G02*
X357130897Y-237809399I156255J-256066D01*
G01*
X357130897Y-234809375D02*
G75*
G02*
X356974594Y-234765442I3J300020D01*
G01*
X358931603Y-237809375D02*
G75*
G02*
X359087905Y-237853309I3J-299992D01*
G01*
X359087905Y-234765441D02*
G75*
G02*
X358931603Y-234809375I-156299J256058D01*
G01*
X359087905Y-234765441D02*
G75*
G02*
X359775184Y-235452720I260503J-426776D01*
G01*
X359731250Y-235609022D02*
G75*
G02*
X359775184Y-235452720I299992J3D01*
G01*
X359775184Y-237166030D02*
G75*
G02*
X359087905Y-237853309I-426776J-260503D01*
G01*
X359775184Y-237166030D02*
G75*
G02*
X359731250Y-237009728I256058J156299D01*
G01*
G04 #@! TO.C,D118*
X356331250Y-160109375D02*
X356331250Y-159409022D01*
X356331250Y-160109375D02*
X356331250Y-160809728D01*
X358031250Y-158609375D02*
X357130897Y-158609375D01*
X358031250Y-158609375D02*
X358931603Y-158609375D01*
X358031250Y-161609375D02*
X357130897Y-161609375D01*
X358031250Y-161609375D02*
X358931603Y-161609375D01*
X359731250Y-160109375D02*
X359731250Y-159409022D01*
X359731250Y-160109375D02*
X359731250Y-160809728D01*
X356287316Y-159252720D02*
G75*
G02*
X356331226Y-159409022I-256066J-156255D01*
G01*
X356287316Y-159252720D02*
G75*
G02*
X356974595Y-158565441I426774J260505D01*
G01*
X356331250Y-160809728D02*
G75*
G02*
X356287315Y-160966029I-299680J-87D01*
G01*
X356974595Y-161653309D02*
G75*
G02*
X356287316Y-160966030I-260505J426774D01*
G01*
X356974595Y-161653309D02*
G75*
G02*
X357130897Y-161609399I156255J-256066D01*
G01*
X357130897Y-158609375D02*
G75*
G02*
X356974594Y-158565442I3J300020D01*
G01*
X358931603Y-161609375D02*
G75*
G02*
X359087905Y-161653309I3J-299992D01*
G01*
X359087905Y-158565441D02*
G75*
G02*
X358931603Y-158609375I-156299J256058D01*
G01*
X359087905Y-158565441D02*
G75*
G02*
X359775184Y-159252720I260503J-426776D01*
G01*
X359731250Y-159409022D02*
G75*
G02*
X359775184Y-159252720I299992J3D01*
G01*
X359775184Y-160966030D02*
G75*
G02*
X359087905Y-161653309I-426776J-260503D01*
G01*
X359775184Y-160966030D02*
G75*
G02*
X359731250Y-160809728I256058J156299D01*
G01*
G04 #@! TO.C,D124*
X242031250Y-160109375D02*
X242031250Y-159409022D01*
X242031250Y-160109375D02*
X242031250Y-160809728D01*
X243731250Y-158609375D02*
X242830897Y-158609375D01*
X243731250Y-158609375D02*
X244631603Y-158609375D01*
X243731250Y-161609375D02*
X242830897Y-161609375D01*
X243731250Y-161609375D02*
X244631603Y-161609375D01*
X245431250Y-160109375D02*
X245431250Y-159409022D01*
X245431250Y-160109375D02*
X245431250Y-160809728D01*
X241987316Y-159252720D02*
G75*
G02*
X242031226Y-159409022I-256066J-156255D01*
G01*
X241987316Y-159252720D02*
G75*
G02*
X242674595Y-158565441I426774J260505D01*
G01*
X242031250Y-160809728D02*
G75*
G02*
X241987315Y-160966029I-299680J-87D01*
G01*
X242674595Y-161653309D02*
G75*
G02*
X241987316Y-160966030I-260505J426774D01*
G01*
X242674595Y-161653309D02*
G75*
G02*
X242830897Y-161609399I156255J-256066D01*
G01*
X242830897Y-158609375D02*
G75*
G02*
X242674594Y-158565442I3J300020D01*
G01*
X244631603Y-161609375D02*
G75*
G02*
X244787905Y-161653309I3J-299992D01*
G01*
X244787905Y-158565441D02*
G75*
G02*
X244631603Y-158609375I-156299J256058D01*
G01*
X244787905Y-158565441D02*
G75*
G02*
X245475184Y-159252720I260503J-426776D01*
G01*
X245431250Y-159409022D02*
G75*
G02*
X245475184Y-159252720I299992J3D01*
G01*
X245475184Y-160966030D02*
G75*
G02*
X244787905Y-161653309I-426776J-260503D01*
G01*
X245475184Y-160966030D02*
G75*
G02*
X245431250Y-160809728I256058J156299D01*
G01*
G04 #@! TO.C,D107*
X308706250Y-179159375D02*
X308706250Y-178459022D01*
X308706250Y-179159375D02*
X308706250Y-179859728D01*
X310406250Y-177659375D02*
X309505897Y-177659375D01*
X310406250Y-177659375D02*
X311306603Y-177659375D01*
X310406250Y-180659375D02*
X309505897Y-180659375D01*
X310406250Y-180659375D02*
X311306603Y-180659375D01*
X312106250Y-179159375D02*
X312106250Y-178459022D01*
X312106250Y-179159375D02*
X312106250Y-179859728D01*
X308662316Y-178302720D02*
G75*
G02*
X308706226Y-178459022I-256066J-156255D01*
G01*
X308662316Y-178302720D02*
G75*
G02*
X309349595Y-177615441I426774J260505D01*
G01*
X308706250Y-179859728D02*
G75*
G02*
X308662315Y-180016029I-299680J-87D01*
G01*
X309349595Y-180703309D02*
G75*
G02*
X308662316Y-180016030I-260505J426774D01*
G01*
X309349595Y-180703309D02*
G75*
G02*
X309505897Y-180659399I156255J-256066D01*
G01*
X309505897Y-177659375D02*
G75*
G02*
X309349594Y-177615442I3J300020D01*
G01*
X311306603Y-180659375D02*
G75*
G02*
X311462905Y-180703309I3J-299992D01*
G01*
X311462905Y-177615441D02*
G75*
G02*
X311306603Y-177659375I-156299J256058D01*
G01*
X311462905Y-177615441D02*
G75*
G02*
X312150184Y-178302720I260503J-426776D01*
G01*
X312106250Y-178459022D02*
G75*
G02*
X312150184Y-178302720I299992J3D01*
G01*
X312150184Y-180016030D02*
G75*
G02*
X311462905Y-180703309I-426776J-260503D01*
G01*
X312150184Y-180016030D02*
G75*
G02*
X312106250Y-179859728I256058J156299D01*
G01*
G04 #@! TO.C,D97*
X237268750Y-198209375D02*
X237268750Y-197509022D01*
X237268750Y-198209375D02*
X237268750Y-198909728D01*
X238968750Y-196709375D02*
X238068397Y-196709375D01*
X238968750Y-196709375D02*
X239869103Y-196709375D01*
X238968750Y-199709375D02*
X238068397Y-199709375D01*
X238968750Y-199709375D02*
X239869103Y-199709375D01*
X240668750Y-198209375D02*
X240668750Y-197509022D01*
X240668750Y-198209375D02*
X240668750Y-198909728D01*
X237224816Y-197352720D02*
G75*
G02*
X237268726Y-197509022I-256066J-156255D01*
G01*
X237224816Y-197352720D02*
G75*
G02*
X237912095Y-196665441I426774J260505D01*
G01*
X237268750Y-198909728D02*
G75*
G02*
X237224815Y-199066029I-299680J-87D01*
G01*
X237912095Y-199753309D02*
G75*
G02*
X237224816Y-199066030I-260505J426774D01*
G01*
X237912095Y-199753309D02*
G75*
G02*
X238068397Y-199709399I156255J-256066D01*
G01*
X238068397Y-196709375D02*
G75*
G02*
X237912094Y-196665442I3J300020D01*
G01*
X239869103Y-199709375D02*
G75*
G02*
X240025405Y-199753309I3J-299992D01*
G01*
X240025405Y-196665441D02*
G75*
G02*
X239869103Y-196709375I-156299J256058D01*
G01*
X240025405Y-196665441D02*
G75*
G02*
X240712684Y-197352720I260503J-426776D01*
G01*
X240668750Y-197509022D02*
G75*
G02*
X240712684Y-197352720I299992J3D01*
G01*
X240712684Y-199066030D02*
G75*
G02*
X240025405Y-199753309I-426776J-260503D01*
G01*
X240712684Y-199066030D02*
G75*
G02*
X240668750Y-198909728I256058J156299D01*
G01*
G04 #@! TO.C,D121*
X299181250Y-160109375D02*
X299181250Y-159409022D01*
X299181250Y-160109375D02*
X299181250Y-160809728D01*
X300881250Y-158609375D02*
X299980897Y-158609375D01*
X300881250Y-158609375D02*
X301781603Y-158609375D01*
X300881250Y-161609375D02*
X299980897Y-161609375D01*
X300881250Y-161609375D02*
X301781603Y-161609375D01*
X302581250Y-160109375D02*
X302581250Y-159409022D01*
X302581250Y-160109375D02*
X302581250Y-160809728D01*
X299137316Y-159252720D02*
G75*
G02*
X299181226Y-159409022I-256066J-156255D01*
G01*
X299137316Y-159252720D02*
G75*
G02*
X299824595Y-158565441I426774J260505D01*
G01*
X299181250Y-160809728D02*
G75*
G02*
X299137315Y-160966029I-299680J-87D01*
G01*
X299824595Y-161653309D02*
G75*
G02*
X299137316Y-160966030I-260505J426774D01*
G01*
X299824595Y-161653309D02*
G75*
G02*
X299980897Y-161609399I156255J-256066D01*
G01*
X299980897Y-158609375D02*
G75*
G02*
X299824594Y-158565442I3J300020D01*
G01*
X301781603Y-161609375D02*
G75*
G02*
X301937905Y-161653309I3J-299992D01*
G01*
X301937905Y-158565441D02*
G75*
G02*
X301781603Y-158609375I-156299J256058D01*
G01*
X301937905Y-158565441D02*
G75*
G02*
X302625184Y-159252720I260503J-426776D01*
G01*
X302581250Y-159409022D02*
G75*
G02*
X302625184Y-159252720I299992J3D01*
G01*
X302625184Y-160966030D02*
G75*
G02*
X301937905Y-161653309I-426776J-260503D01*
G01*
X302625184Y-160966030D02*
G75*
G02*
X302581250Y-160809728I256058J156299D01*
G01*
G04 #@! TO.C,D72*
X192025000Y-236309375D02*
X192025000Y-235609022D01*
X192025000Y-236309375D02*
X192025000Y-237009728D01*
X193725000Y-234809375D02*
X192824647Y-234809375D01*
X193725000Y-234809375D02*
X194625353Y-234809375D01*
X193725000Y-237809375D02*
X192824647Y-237809375D01*
X193725000Y-237809375D02*
X194625353Y-237809375D01*
X195425000Y-236309375D02*
X195425000Y-235609022D01*
X195425000Y-236309375D02*
X195425000Y-237009728D01*
X191981066Y-235452720D02*
G75*
G02*
X192024976Y-235609022I-256066J-156255D01*
G01*
X191981066Y-235452720D02*
G75*
G02*
X192668345Y-234765441I426774J260505D01*
G01*
X192025000Y-237009728D02*
G75*
G02*
X191981065Y-237166029I-299680J-87D01*
G01*
X192668345Y-237853309D02*
G75*
G02*
X191981066Y-237166030I-260505J426774D01*
G01*
X192668345Y-237853309D02*
G75*
G02*
X192824647Y-237809399I156255J-256066D01*
G01*
X192824647Y-234809375D02*
G75*
G02*
X192668344Y-234765442I3J300020D01*
G01*
X194625353Y-237809375D02*
G75*
G02*
X194781655Y-237853309I3J-299992D01*
G01*
X194781655Y-234765441D02*
G75*
G02*
X194625353Y-234809375I-156299J256058D01*
G01*
X194781655Y-234765441D02*
G75*
G02*
X195468934Y-235452720I260503J-426776D01*
G01*
X195425000Y-235609022D02*
G75*
G02*
X195468934Y-235452720I299992J3D01*
G01*
X195468934Y-237166030D02*
G75*
G02*
X194781655Y-237853309I-426776J-260503D01*
G01*
X195468934Y-237166030D02*
G75*
G02*
X195425000Y-237009728I256058J156299D01*
G01*
G04 #@! TO.C,D99*
X199168750Y-198209375D02*
X199168750Y-197509022D01*
X199168750Y-198209375D02*
X199168750Y-198909728D01*
X200868750Y-196709375D02*
X199968397Y-196709375D01*
X200868750Y-196709375D02*
X201769103Y-196709375D01*
X200868750Y-199709375D02*
X199968397Y-199709375D01*
X200868750Y-199709375D02*
X201769103Y-199709375D01*
X202568750Y-198209375D02*
X202568750Y-197509022D01*
X202568750Y-198209375D02*
X202568750Y-198909728D01*
X199124816Y-197352720D02*
G75*
G02*
X199168726Y-197509022I-256066J-156255D01*
G01*
X199124816Y-197352720D02*
G75*
G02*
X199812095Y-196665441I426774J260505D01*
G01*
X199168750Y-198909728D02*
G75*
G02*
X199124815Y-199066029I-299680J-87D01*
G01*
X199812095Y-199753309D02*
G75*
G02*
X199124816Y-199066030I-260505J426774D01*
G01*
X199812095Y-199753309D02*
G75*
G02*
X199968397Y-199709399I156255J-256066D01*
G01*
X199968397Y-196709375D02*
G75*
G02*
X199812094Y-196665442I3J300020D01*
G01*
X201769103Y-199709375D02*
G75*
G02*
X201925405Y-199753309I3J-299992D01*
G01*
X201925405Y-196665441D02*
G75*
G02*
X201769103Y-196709375I-156299J256058D01*
G01*
X201925405Y-196665441D02*
G75*
G02*
X202612684Y-197352720I260503J-426776D01*
G01*
X202568750Y-197509022D02*
G75*
G02*
X202612684Y-197352720I299992J3D01*
G01*
X202612684Y-199066030D02*
G75*
G02*
X201925405Y-199753309I-426776J-260503D01*
G01*
X202612684Y-199066030D02*
G75*
G02*
X202568750Y-198909728I256058J156299D01*
G01*
G04 #@! TO.C,D102*
X403956250Y-179159375D02*
X403956250Y-178459022D01*
X403956250Y-179159375D02*
X403956250Y-179859728D01*
X405656250Y-177659375D02*
X404755897Y-177659375D01*
X405656250Y-177659375D02*
X406556603Y-177659375D01*
X405656250Y-180659375D02*
X404755897Y-180659375D01*
X405656250Y-180659375D02*
X406556603Y-180659375D01*
X407356250Y-179159375D02*
X407356250Y-178459022D01*
X407356250Y-179159375D02*
X407356250Y-179859728D01*
X403912316Y-178302720D02*
G75*
G02*
X403956226Y-178459022I-256066J-156255D01*
G01*
X403912316Y-178302720D02*
G75*
G02*
X404599595Y-177615441I426774J260505D01*
G01*
X403956250Y-179859728D02*
G75*
G02*
X403912315Y-180016029I-299680J-87D01*
G01*
X404599595Y-180703309D02*
G75*
G02*
X403912316Y-180016030I-260505J426774D01*
G01*
X404599595Y-180703309D02*
G75*
G02*
X404755897Y-180659399I156255J-256066D01*
G01*
X404755897Y-177659375D02*
G75*
G02*
X404599594Y-177615442I3J300020D01*
G01*
X406556603Y-180659375D02*
G75*
G02*
X406712905Y-180703309I3J-299992D01*
G01*
X406712905Y-177615441D02*
G75*
G02*
X406556603Y-177659375I-156299J256058D01*
G01*
X406712905Y-177615441D02*
G75*
G02*
X407400184Y-178302720I260503J-426776D01*
G01*
X407356250Y-178459022D02*
G75*
G02*
X407400184Y-178302720I299992J3D01*
G01*
X407400184Y-180016030D02*
G75*
G02*
X406712905Y-180703309I-426776J-260503D01*
G01*
X407400184Y-180016030D02*
G75*
G02*
X407356250Y-179859728I256058J156299D01*
G01*
G04 #@! TO.C,D112*
X213456250Y-179159375D02*
X213456250Y-178459022D01*
X213456250Y-179159375D02*
X213456250Y-179859728D01*
X215156250Y-177659375D02*
X214255897Y-177659375D01*
X215156250Y-177659375D02*
X216056603Y-177659375D01*
X215156250Y-180659375D02*
X214255897Y-180659375D01*
X215156250Y-180659375D02*
X216056603Y-180659375D01*
X216856250Y-179159375D02*
X216856250Y-178459022D01*
X216856250Y-179159375D02*
X216856250Y-179859728D01*
X213412316Y-178302720D02*
G75*
G02*
X213456226Y-178459022I-256066J-156255D01*
G01*
X213412316Y-178302720D02*
G75*
G02*
X214099595Y-177615441I426774J260505D01*
G01*
X213456250Y-179859728D02*
G75*
G02*
X213412315Y-180016029I-299680J-87D01*
G01*
X214099595Y-180703309D02*
G75*
G02*
X213412316Y-180016030I-260505J426774D01*
G01*
X214099595Y-180703309D02*
G75*
G02*
X214255897Y-180659399I156255J-256066D01*
G01*
X214255897Y-177659375D02*
G75*
G02*
X214099594Y-177615442I3J300020D01*
G01*
X216056603Y-180659375D02*
G75*
G02*
X216212905Y-180703309I3J-299992D01*
G01*
X216212905Y-177615441D02*
G75*
G02*
X216056603Y-177659375I-156299J256058D01*
G01*
X216212905Y-177615441D02*
G75*
G02*
X216900184Y-178302720I260503J-426776D01*
G01*
X216856250Y-178459022D02*
G75*
G02*
X216900184Y-178302720I299992J3D01*
G01*
X216900184Y-180016030D02*
G75*
G02*
X216212905Y-180703309I-426776J-260503D01*
G01*
X216900184Y-180016030D02*
G75*
G02*
X216856250Y-179859728I256058J156299D01*
G01*
G04 #@! TO.C,D98*
X218218750Y-198209375D02*
X218218750Y-197509022D01*
X218218750Y-198209375D02*
X218218750Y-198909728D01*
X219918750Y-196709375D02*
X219018397Y-196709375D01*
X219918750Y-196709375D02*
X220819103Y-196709375D01*
X219918750Y-199709375D02*
X219018397Y-199709375D01*
X219918750Y-199709375D02*
X220819103Y-199709375D01*
X221618750Y-198209375D02*
X221618750Y-197509022D01*
X221618750Y-198209375D02*
X221618750Y-198909728D01*
X218174816Y-197352720D02*
G75*
G02*
X218218726Y-197509022I-256066J-156255D01*
G01*
X218174816Y-197352720D02*
G75*
G02*
X218862095Y-196665441I426774J260505D01*
G01*
X218218750Y-198909728D02*
G75*
G02*
X218174815Y-199066029I-299680J-87D01*
G01*
X218862095Y-199753309D02*
G75*
G02*
X218174816Y-199066030I-260505J426774D01*
G01*
X218862095Y-199753309D02*
G75*
G02*
X219018397Y-199709399I156255J-256066D01*
G01*
X219018397Y-196709375D02*
G75*
G02*
X218862094Y-196665442I3J300020D01*
G01*
X220819103Y-199709375D02*
G75*
G02*
X220975405Y-199753309I3J-299992D01*
G01*
X220975405Y-196665441D02*
G75*
G02*
X220819103Y-196709375I-156299J256058D01*
G01*
X220975405Y-196665441D02*
G75*
G02*
X221662684Y-197352720I260503J-426776D01*
G01*
X221618750Y-197509022D02*
G75*
G02*
X221662684Y-197352720I299992J3D01*
G01*
X221662684Y-199066030D02*
G75*
G02*
X220975405Y-199753309I-426776J-260503D01*
G01*
X221662684Y-199066030D02*
G75*
G02*
X221618750Y-198909728I256058J156299D01*
G01*
G04 #@! TO.C,D117*
X375381250Y-160109375D02*
X375381250Y-159409022D01*
X375381250Y-160109375D02*
X375381250Y-160809728D01*
X377081250Y-158609375D02*
X376180897Y-158609375D01*
X377081250Y-158609375D02*
X377981603Y-158609375D01*
X377081250Y-161609375D02*
X376180897Y-161609375D01*
X377081250Y-161609375D02*
X377981603Y-161609375D01*
X378781250Y-160109375D02*
X378781250Y-159409022D01*
X378781250Y-160109375D02*
X378781250Y-160809728D01*
X375337316Y-159252720D02*
G75*
G02*
X375381226Y-159409022I-256066J-156255D01*
G01*
X375337316Y-159252720D02*
G75*
G02*
X376024595Y-158565441I426774J260505D01*
G01*
X375381250Y-160809728D02*
G75*
G02*
X375337315Y-160966029I-299680J-87D01*
G01*
X376024595Y-161653309D02*
G75*
G02*
X375337316Y-160966030I-260505J426774D01*
G01*
X376024595Y-161653309D02*
G75*
G02*
X376180897Y-161609399I156255J-256066D01*
G01*
X376180897Y-158609375D02*
G75*
G02*
X376024594Y-158565442I3J300020D01*
G01*
X377981603Y-161609375D02*
G75*
G02*
X378137905Y-161653309I3J-299992D01*
G01*
X378137905Y-158565441D02*
G75*
G02*
X377981603Y-158609375I-156299J256058D01*
G01*
X378137905Y-158565441D02*
G75*
G02*
X378825184Y-159252720I260503J-426776D01*
G01*
X378781250Y-159409022D02*
G75*
G02*
X378825184Y-159252720I299992J3D01*
G01*
X378825184Y-160966030D02*
G75*
G02*
X378137905Y-161653309I-426776J-260503D01*
G01*
X378825184Y-160966030D02*
G75*
G02*
X378781250Y-160809728I256058J156299D01*
G01*
G04 #@! TO.C,D122*
X280131250Y-160109375D02*
X280131250Y-159409022D01*
X280131250Y-160109375D02*
X280131250Y-160809728D01*
X281831250Y-158609375D02*
X280930897Y-158609375D01*
X281831250Y-158609375D02*
X282731603Y-158609375D01*
X281831250Y-161609375D02*
X280930897Y-161609375D01*
X281831250Y-161609375D02*
X282731603Y-161609375D01*
X283531250Y-160109375D02*
X283531250Y-159409022D01*
X283531250Y-160109375D02*
X283531250Y-160809728D01*
X280087316Y-159252720D02*
G75*
G02*
X280131226Y-159409022I-256066J-156255D01*
G01*
X280087316Y-159252720D02*
G75*
G02*
X280774595Y-158565441I426774J260505D01*
G01*
X280131250Y-160809728D02*
G75*
G02*
X280087315Y-160966029I-299680J-87D01*
G01*
X280774595Y-161653309D02*
G75*
G02*
X280087316Y-160966030I-260505J426774D01*
G01*
X280774595Y-161653309D02*
G75*
G02*
X280930897Y-161609399I156255J-256066D01*
G01*
X280930897Y-158609375D02*
G75*
G02*
X280774594Y-158565442I3J300020D01*
G01*
X282731603Y-161609375D02*
G75*
G02*
X282887905Y-161653309I3J-299992D01*
G01*
X282887905Y-158565441D02*
G75*
G02*
X282731603Y-158609375I-156299J256058D01*
G01*
X282887905Y-158565441D02*
G75*
G02*
X283575184Y-159252720I260503J-426776D01*
G01*
X283531250Y-159409022D02*
G75*
G02*
X283575184Y-159252720I299992J3D01*
G01*
X283575184Y-160966030D02*
G75*
G02*
X282887905Y-161653309I-426776J-260503D01*
G01*
X283575184Y-160966030D02*
G75*
G02*
X283531250Y-160809728I256058J156299D01*
G01*
G04 #@! TO.C,D105*
X346806250Y-179159375D02*
X346806250Y-178459022D01*
X346806250Y-179159375D02*
X346806250Y-179859728D01*
X348506250Y-177659375D02*
X347605897Y-177659375D01*
X348506250Y-177659375D02*
X349406603Y-177659375D01*
X348506250Y-180659375D02*
X347605897Y-180659375D01*
X348506250Y-180659375D02*
X349406603Y-180659375D01*
X350206250Y-179159375D02*
X350206250Y-178459022D01*
X350206250Y-179159375D02*
X350206250Y-179859728D01*
X346762316Y-178302720D02*
G75*
G02*
X346806226Y-178459022I-256066J-156255D01*
G01*
X346762316Y-178302720D02*
G75*
G02*
X347449595Y-177615441I426774J260505D01*
G01*
X346806250Y-179859728D02*
G75*
G02*
X346762315Y-180016029I-299680J-87D01*
G01*
X347449595Y-180703309D02*
G75*
G02*
X346762316Y-180016030I-260505J426774D01*
G01*
X347449595Y-180703309D02*
G75*
G02*
X347605897Y-180659399I156255J-256066D01*
G01*
X347605897Y-177659375D02*
G75*
G02*
X347449594Y-177615442I3J300020D01*
G01*
X349406603Y-180659375D02*
G75*
G02*
X349562905Y-180703309I3J-299992D01*
G01*
X349562905Y-177615441D02*
G75*
G02*
X349406603Y-177659375I-156299J256058D01*
G01*
X349562905Y-177615441D02*
G75*
G02*
X350250184Y-178302720I260503J-426776D01*
G01*
X350206250Y-178459022D02*
G75*
G02*
X350250184Y-178302720I299992J3D01*
G01*
X350250184Y-180016030D02*
G75*
G02*
X349562905Y-180703309I-426776J-260503D01*
G01*
X350250184Y-180016030D02*
G75*
G02*
X350206250Y-179859728I256058J156299D01*
G01*
G04 #@! TO.C,D104*
X365856250Y-179159375D02*
X365856250Y-178459022D01*
X365856250Y-179159375D02*
X365856250Y-179859728D01*
X367556250Y-177659375D02*
X366655897Y-177659375D01*
X367556250Y-177659375D02*
X368456603Y-177659375D01*
X367556250Y-180659375D02*
X366655897Y-180659375D01*
X367556250Y-180659375D02*
X368456603Y-180659375D01*
X369256250Y-179159375D02*
X369256250Y-178459022D01*
X369256250Y-179159375D02*
X369256250Y-179859728D01*
X365812316Y-178302720D02*
G75*
G02*
X365856226Y-178459022I-256066J-156255D01*
G01*
X365812316Y-178302720D02*
G75*
G02*
X366499595Y-177615441I426774J260505D01*
G01*
X365856250Y-179859728D02*
G75*
G02*
X365812315Y-180016029I-299680J-87D01*
G01*
X366499595Y-180703309D02*
G75*
G02*
X365812316Y-180016030I-260505J426774D01*
G01*
X366499595Y-180703309D02*
G75*
G02*
X366655897Y-180659399I156255J-256066D01*
G01*
X366655897Y-177659375D02*
G75*
G02*
X366499594Y-177615442I3J300020D01*
G01*
X368456603Y-180659375D02*
G75*
G02*
X368612905Y-180703309I3J-299992D01*
G01*
X368612905Y-177615441D02*
G75*
G02*
X368456603Y-177659375I-156299J256058D01*
G01*
X368612905Y-177615441D02*
G75*
G02*
X369300184Y-178302720I260503J-426776D01*
G01*
X369256250Y-178459022D02*
G75*
G02*
X369300184Y-178302720I299992J3D01*
G01*
X369300184Y-180016030D02*
G75*
G02*
X368612905Y-180703309I-426776J-260503D01*
G01*
X369300184Y-180016030D02*
G75*
G02*
X369256250Y-179859728I256058J156299D01*
G01*
G04 #@! TO.C,D93*
X313468750Y-198209375D02*
X313468750Y-197509022D01*
X313468750Y-198209375D02*
X313468750Y-198909728D01*
X315168750Y-196709375D02*
X314268397Y-196709375D01*
X315168750Y-196709375D02*
X316069103Y-196709375D01*
X315168750Y-199709375D02*
X314268397Y-199709375D01*
X315168750Y-199709375D02*
X316069103Y-199709375D01*
X316868750Y-198209375D02*
X316868750Y-197509022D01*
X316868750Y-198209375D02*
X316868750Y-198909728D01*
X313424816Y-197352720D02*
G75*
G02*
X313468726Y-197509022I-256066J-156255D01*
G01*
X313424816Y-197352720D02*
G75*
G02*
X314112095Y-196665441I426774J260505D01*
G01*
X313468750Y-198909728D02*
G75*
G02*
X313424815Y-199066029I-299680J-87D01*
G01*
X314112095Y-199753309D02*
G75*
G02*
X313424816Y-199066030I-260505J426774D01*
G01*
X314112095Y-199753309D02*
G75*
G02*
X314268397Y-199709399I156255J-256066D01*
G01*
X314268397Y-196709375D02*
G75*
G02*
X314112094Y-196665442I3J300020D01*
G01*
X316069103Y-199709375D02*
G75*
G02*
X316225405Y-199753309I3J-299992D01*
G01*
X316225405Y-196665441D02*
G75*
G02*
X316069103Y-196709375I-156299J256058D01*
G01*
X316225405Y-196665441D02*
G75*
G02*
X316912684Y-197352720I260503J-426776D01*
G01*
X316868750Y-197509022D02*
G75*
G02*
X316912684Y-197352720I299992J3D01*
G01*
X316912684Y-199066030D02*
G75*
G02*
X316225405Y-199753309I-426776J-260503D01*
G01*
X316912684Y-199066030D02*
G75*
G02*
X316868750Y-198909728I256058J156299D01*
G01*
G04 #@! TO.C,D90*
X370618750Y-198209375D02*
X370618750Y-197509022D01*
X370618750Y-198209375D02*
X370618750Y-198909728D01*
X372318750Y-196709375D02*
X371418397Y-196709375D01*
X372318750Y-196709375D02*
X373219103Y-196709375D01*
X372318750Y-199709375D02*
X371418397Y-199709375D01*
X372318750Y-199709375D02*
X373219103Y-199709375D01*
X374018750Y-198209375D02*
X374018750Y-197509022D01*
X374018750Y-198209375D02*
X374018750Y-198909728D01*
X370574816Y-197352720D02*
G75*
G02*
X370618726Y-197509022I-256066J-156255D01*
G01*
X370574816Y-197352720D02*
G75*
G02*
X371262095Y-196665441I426774J260505D01*
G01*
X370618750Y-198909728D02*
G75*
G02*
X370574815Y-199066029I-299680J-87D01*
G01*
X371262095Y-199753309D02*
G75*
G02*
X370574816Y-199066030I-260505J426774D01*
G01*
X371262095Y-199753309D02*
G75*
G02*
X371418397Y-199709399I156255J-256066D01*
G01*
X371418397Y-196709375D02*
G75*
G02*
X371262094Y-196665442I3J300020D01*
G01*
X373219103Y-199709375D02*
G75*
G02*
X373375405Y-199753309I3J-299992D01*
G01*
X373375405Y-196665441D02*
G75*
G02*
X373219103Y-196709375I-156299J256058D01*
G01*
X373375405Y-196665441D02*
G75*
G02*
X374062684Y-197352720I260503J-426776D01*
G01*
X374018750Y-197509022D02*
G75*
G02*
X374062684Y-197352720I299992J3D01*
G01*
X374062684Y-199066030D02*
G75*
G02*
X373375405Y-199753309I-426776J-260503D01*
G01*
X374062684Y-199066030D02*
G75*
G02*
X374018750Y-198909728I256058J156299D01*
G01*
G04 #@! TO.C,D80*
X318231250Y-217259375D02*
X318231250Y-216559022D01*
X318231250Y-217259375D02*
X318231250Y-217959728D01*
X319931250Y-215759375D02*
X319030897Y-215759375D01*
X319931250Y-215759375D02*
X320831603Y-215759375D01*
X319931250Y-218759375D02*
X319030897Y-218759375D01*
X319931250Y-218759375D02*
X320831603Y-218759375D01*
X321631250Y-217259375D02*
X321631250Y-216559022D01*
X321631250Y-217259375D02*
X321631250Y-217959728D01*
X318187316Y-216402720D02*
G75*
G02*
X318231226Y-216559022I-256066J-156255D01*
G01*
X318187316Y-216402720D02*
G75*
G02*
X318874595Y-215715441I426774J260505D01*
G01*
X318231250Y-217959728D02*
G75*
G02*
X318187315Y-218116029I-299680J-87D01*
G01*
X318874595Y-218803309D02*
G75*
G02*
X318187316Y-218116030I-260505J426774D01*
G01*
X318874595Y-218803309D02*
G75*
G02*
X319030897Y-218759399I156255J-256066D01*
G01*
X319030897Y-215759375D02*
G75*
G02*
X318874594Y-215715442I3J300020D01*
G01*
X320831603Y-218759375D02*
G75*
G02*
X320987905Y-218803309I3J-299992D01*
G01*
X320987905Y-215715441D02*
G75*
G02*
X320831603Y-215759375I-156299J256058D01*
G01*
X320987905Y-215715441D02*
G75*
G02*
X321675184Y-216402720I260503J-426776D01*
G01*
X321631250Y-216559022D02*
G75*
G02*
X321675184Y-216402720I299992J3D01*
G01*
X321675184Y-218116030D02*
G75*
G02*
X320987905Y-218803309I-426776J-260503D01*
G01*
X321675184Y-218116030D02*
G75*
G02*
X321631250Y-217959728I256058J156299D01*
G01*
G04 #@! TO.C,D94*
X294418750Y-198209375D02*
X294418750Y-197509022D01*
X294418750Y-198209375D02*
X294418750Y-198909728D01*
X296118750Y-196709375D02*
X295218397Y-196709375D01*
X296118750Y-196709375D02*
X297019103Y-196709375D01*
X296118750Y-199709375D02*
X295218397Y-199709375D01*
X296118750Y-199709375D02*
X297019103Y-199709375D01*
X297818750Y-198209375D02*
X297818750Y-197509022D01*
X297818750Y-198209375D02*
X297818750Y-198909728D01*
X294374816Y-197352720D02*
G75*
G02*
X294418726Y-197509022I-256066J-156255D01*
G01*
X294374816Y-197352720D02*
G75*
G02*
X295062095Y-196665441I426774J260505D01*
G01*
X294418750Y-198909728D02*
G75*
G02*
X294374815Y-199066029I-299680J-87D01*
G01*
X295062095Y-199753309D02*
G75*
G02*
X294374816Y-199066030I-260505J426774D01*
G01*
X295062095Y-199753309D02*
G75*
G02*
X295218397Y-199709399I156255J-256066D01*
G01*
X295218397Y-196709375D02*
G75*
G02*
X295062094Y-196665442I3J300020D01*
G01*
X297019103Y-199709375D02*
G75*
G02*
X297175405Y-199753309I3J-299992D01*
G01*
X297175405Y-196665441D02*
G75*
G02*
X297019103Y-196709375I-156299J256058D01*
G01*
X297175405Y-196665441D02*
G75*
G02*
X297862684Y-197352720I260503J-426776D01*
G01*
X297818750Y-197509022D02*
G75*
G02*
X297862684Y-197352720I299992J3D01*
G01*
X297862684Y-199066030D02*
G75*
G02*
X297175405Y-199753309I-426776J-260503D01*
G01*
X297862684Y-199066030D02*
G75*
G02*
X297818750Y-198909728I256058J156299D01*
G01*
G04 #@! TO.C,D106*
X327756250Y-179159375D02*
X327756250Y-178459022D01*
X327756250Y-179159375D02*
X327756250Y-179859728D01*
X329456250Y-177659375D02*
X328555897Y-177659375D01*
X329456250Y-177659375D02*
X330356603Y-177659375D01*
X329456250Y-180659375D02*
X328555897Y-180659375D01*
X329456250Y-180659375D02*
X330356603Y-180659375D01*
X331156250Y-179159375D02*
X331156250Y-178459022D01*
X331156250Y-179159375D02*
X331156250Y-179859728D01*
X327712316Y-178302720D02*
G75*
G02*
X327756226Y-178459022I-256066J-156255D01*
G01*
X327712316Y-178302720D02*
G75*
G02*
X328399595Y-177615441I426774J260505D01*
G01*
X327756250Y-179859728D02*
G75*
G02*
X327712315Y-180016029I-299680J-87D01*
G01*
X328399595Y-180703309D02*
G75*
G02*
X327712316Y-180016030I-260505J426774D01*
G01*
X328399595Y-180703309D02*
G75*
G02*
X328555897Y-180659399I156255J-256066D01*
G01*
X328555897Y-177659375D02*
G75*
G02*
X328399594Y-177615442I3J300020D01*
G01*
X330356603Y-180659375D02*
G75*
G02*
X330512905Y-180703309I3J-299992D01*
G01*
X330512905Y-177615441D02*
G75*
G02*
X330356603Y-177659375I-156299J256058D01*
G01*
X330512905Y-177615441D02*
G75*
G02*
X331200184Y-178302720I260503J-426776D01*
G01*
X331156250Y-178459022D02*
G75*
G02*
X331200184Y-178302720I299992J3D01*
G01*
X331200184Y-180016030D02*
G75*
G02*
X330512905Y-180703309I-426776J-260503D01*
G01*
X331200184Y-180016030D02*
G75*
G02*
X331156250Y-179859728I256058J156299D01*
G01*
G04 #@! TO.C,D66*
X413481250Y-236309375D02*
X413481250Y-235609022D01*
X413481250Y-236309375D02*
X413481250Y-237009728D01*
X415181250Y-234809375D02*
X414280897Y-234809375D01*
X415181250Y-234809375D02*
X416081603Y-234809375D01*
X415181250Y-237809375D02*
X414280897Y-237809375D01*
X415181250Y-237809375D02*
X416081603Y-237809375D01*
X416881250Y-236309375D02*
X416881250Y-235609022D01*
X416881250Y-236309375D02*
X416881250Y-237009728D01*
X413437316Y-235452720D02*
G75*
G02*
X413481226Y-235609022I-256066J-156255D01*
G01*
X413437316Y-235452720D02*
G75*
G02*
X414124595Y-234765441I426774J260505D01*
G01*
X413481250Y-237009728D02*
G75*
G02*
X413437315Y-237166029I-299680J-87D01*
G01*
X414124595Y-237853309D02*
G75*
G02*
X413437316Y-237166030I-260505J426774D01*
G01*
X414124595Y-237853309D02*
G75*
G02*
X414280897Y-237809399I156255J-256066D01*
G01*
X414280897Y-234809375D02*
G75*
G02*
X414124594Y-234765442I3J300020D01*
G01*
X416081603Y-237809375D02*
G75*
G02*
X416237905Y-237853309I3J-299992D01*
G01*
X416237905Y-234765441D02*
G75*
G02*
X416081603Y-234809375I-156299J256058D01*
G01*
X416237905Y-234765441D02*
G75*
G02*
X416925184Y-235452720I260503J-426776D01*
G01*
X416881250Y-235609022D02*
G75*
G02*
X416925184Y-235452720I299992J3D01*
G01*
X416925184Y-237166030D02*
G75*
G02*
X416237905Y-237853309I-426776J-260503D01*
G01*
X416925184Y-237166030D02*
G75*
G02*
X416881250Y-237009728I256058J156299D01*
G01*
G04 #@! TO.C,D114*
X170593750Y-179159375D02*
X170593750Y-178459022D01*
X170593750Y-179159375D02*
X170593750Y-179859728D01*
X172293750Y-177659375D02*
X171393397Y-177659375D01*
X172293750Y-177659375D02*
X173194103Y-177659375D01*
X172293750Y-180659375D02*
X171393397Y-180659375D01*
X172293750Y-180659375D02*
X173194103Y-180659375D01*
X173993750Y-179159375D02*
X173993750Y-178459022D01*
X173993750Y-179159375D02*
X173993750Y-179859728D01*
X170549816Y-178302720D02*
G75*
G02*
X170593726Y-178459022I-256066J-156255D01*
G01*
X170549816Y-178302720D02*
G75*
G02*
X171237095Y-177615441I426774J260505D01*
G01*
X170593750Y-179859728D02*
G75*
G02*
X170549815Y-180016029I-299680J-87D01*
G01*
X171237095Y-180703309D02*
G75*
G02*
X170549816Y-180016030I-260505J426774D01*
G01*
X171237095Y-180703309D02*
G75*
G02*
X171393397Y-180659399I156255J-256066D01*
G01*
X171393397Y-177659375D02*
G75*
G02*
X171237094Y-177615442I3J300020D01*
G01*
X173194103Y-180659375D02*
G75*
G02*
X173350405Y-180703309I3J-299992D01*
G01*
X173350405Y-177615441D02*
G75*
G02*
X173194103Y-177659375I-156299J256058D01*
G01*
X173350405Y-177615441D02*
G75*
G02*
X174037684Y-178302720I260503J-426776D01*
G01*
X173993750Y-178459022D02*
G75*
G02*
X174037684Y-178302720I299992J3D01*
G01*
X174037684Y-180016030D02*
G75*
G02*
X173350405Y-180703309I-426776J-260503D01*
G01*
X174037684Y-180016030D02*
G75*
G02*
X173993750Y-179859728I256058J156299D01*
G01*
G04 #@! TO.C,D71*
X215837500Y-236309375D02*
X215837500Y-235609022D01*
X215837500Y-236309375D02*
X215837500Y-237009728D01*
X217537500Y-234809375D02*
X216637147Y-234809375D01*
X217537500Y-234809375D02*
X218437853Y-234809375D01*
X217537500Y-237809375D02*
X216637147Y-237809375D01*
X217537500Y-237809375D02*
X218437853Y-237809375D01*
X219237500Y-236309375D02*
X219237500Y-235609022D01*
X219237500Y-236309375D02*
X219237500Y-237009728D01*
X215793566Y-235452720D02*
G75*
G02*
X215837476Y-235609022I-256066J-156255D01*
G01*
X215793566Y-235452720D02*
G75*
G02*
X216480845Y-234765441I426774J260505D01*
G01*
X215837500Y-237009728D02*
G75*
G02*
X215793565Y-237166029I-299680J-87D01*
G01*
X216480845Y-237853309D02*
G75*
G02*
X215793566Y-237166030I-260505J426774D01*
G01*
X216480845Y-237853309D02*
G75*
G02*
X216637147Y-237809399I156255J-256066D01*
G01*
X216637147Y-234809375D02*
G75*
G02*
X216480844Y-234765442I3J300020D01*
G01*
X218437853Y-237809375D02*
G75*
G02*
X218594155Y-237853309I3J-299992D01*
G01*
X218594155Y-234765441D02*
G75*
G02*
X218437853Y-234809375I-156299J256058D01*
G01*
X218594155Y-234765441D02*
G75*
G02*
X219281434Y-235452720I260503J-426776D01*
G01*
X219237500Y-235609022D02*
G75*
G02*
X219281434Y-235452720I299992J3D01*
G01*
X219281434Y-237166030D02*
G75*
G02*
X218594155Y-237853309I-426776J-260503D01*
G01*
X219281434Y-237166030D02*
G75*
G02*
X219237500Y-237009728I256058J156299D01*
G01*
G04 #@! TO.C,D126*
X203931250Y-160109375D02*
X203931250Y-159409022D01*
X203931250Y-160109375D02*
X203931250Y-160809728D01*
X205631250Y-158609375D02*
X204730897Y-158609375D01*
X205631250Y-158609375D02*
X206531603Y-158609375D01*
X205631250Y-161609375D02*
X204730897Y-161609375D01*
X205631250Y-161609375D02*
X206531603Y-161609375D01*
X207331250Y-160109375D02*
X207331250Y-159409022D01*
X207331250Y-160109375D02*
X207331250Y-160809728D01*
X203887316Y-159252720D02*
G75*
G02*
X203931226Y-159409022I-256066J-156255D01*
G01*
X203887316Y-159252720D02*
G75*
G02*
X204574595Y-158565441I426774J260505D01*
G01*
X203931250Y-160809728D02*
G75*
G02*
X203887315Y-160966029I-299680J-87D01*
G01*
X204574595Y-161653309D02*
G75*
G02*
X203887316Y-160966030I-260505J426774D01*
G01*
X204574595Y-161653309D02*
G75*
G02*
X204730897Y-161609399I156255J-256066D01*
G01*
X204730897Y-158609375D02*
G75*
G02*
X204574594Y-158565442I3J300020D01*
G01*
X206531603Y-161609375D02*
G75*
G02*
X206687905Y-161653309I3J-299992D01*
G01*
X206687905Y-158565441D02*
G75*
G02*
X206531603Y-158609375I-156299J256058D01*
G01*
X206687905Y-158565441D02*
G75*
G02*
X207375184Y-159252720I260503J-426776D01*
G01*
X207331250Y-159409022D02*
G75*
G02*
X207375184Y-159252720I299992J3D01*
G01*
X207375184Y-160966030D02*
G75*
G02*
X206687905Y-161653309I-426776J-260503D01*
G01*
X207375184Y-160966030D02*
G75*
G02*
X207331250Y-160809728I256058J156299D01*
G01*
G04 #@! TO.C,D123*
X261081250Y-160109375D02*
X261081250Y-159409022D01*
X261081250Y-160109375D02*
X261081250Y-160809728D01*
X262781250Y-158609375D02*
X261880897Y-158609375D01*
X262781250Y-158609375D02*
X263681603Y-158609375D01*
X262781250Y-161609375D02*
X261880897Y-161609375D01*
X262781250Y-161609375D02*
X263681603Y-161609375D01*
X264481250Y-160109375D02*
X264481250Y-159409022D01*
X264481250Y-160109375D02*
X264481250Y-160809728D01*
X261037316Y-159252720D02*
G75*
G02*
X261081226Y-159409022I-256066J-156255D01*
G01*
X261037316Y-159252720D02*
G75*
G02*
X261724595Y-158565441I426774J260505D01*
G01*
X261081250Y-160809728D02*
G75*
G02*
X261037315Y-160966029I-299680J-87D01*
G01*
X261724595Y-161653309D02*
G75*
G02*
X261037316Y-160966030I-260505J426774D01*
G01*
X261724595Y-161653309D02*
G75*
G02*
X261880897Y-161609399I156255J-256066D01*
G01*
X261880897Y-158609375D02*
G75*
G02*
X261724594Y-158565442I3J300020D01*
G01*
X263681603Y-161609375D02*
G75*
G02*
X263837905Y-161653309I3J-299992D01*
G01*
X263837905Y-158565441D02*
G75*
G02*
X263681603Y-158609375I-156299J256058D01*
G01*
X263837905Y-158565441D02*
G75*
G02*
X264525184Y-159252720I260503J-426776D01*
G01*
X264481250Y-159409022D02*
G75*
G02*
X264525184Y-159252720I299992J3D01*
G01*
X264525184Y-160966030D02*
G75*
G02*
X263837905Y-161653309I-426776J-260503D01*
G01*
X264525184Y-160966030D02*
G75*
G02*
X264481250Y-160809728I256058J156299D01*
G01*
G04 #@! TO.C,D65*
X432531250Y-236309375D02*
X432531250Y-235609022D01*
X432531250Y-236309375D02*
X432531250Y-237009728D01*
X434231250Y-234809375D02*
X433330897Y-234809375D01*
X434231250Y-234809375D02*
X435131603Y-234809375D01*
X434231250Y-237809375D02*
X433330897Y-237809375D01*
X434231250Y-237809375D02*
X435131603Y-237809375D01*
X435931250Y-236309375D02*
X435931250Y-235609022D01*
X435931250Y-236309375D02*
X435931250Y-237009728D01*
X432487316Y-235452720D02*
G75*
G02*
X432531226Y-235609022I-256066J-156255D01*
G01*
X432487316Y-235452720D02*
G75*
G02*
X433174595Y-234765441I426774J260505D01*
G01*
X432531250Y-237009728D02*
G75*
G02*
X432487315Y-237166029I-299680J-87D01*
G01*
X433174595Y-237853309D02*
G75*
G02*
X432487316Y-237166030I-260505J426774D01*
G01*
X433174595Y-237853309D02*
G75*
G02*
X433330897Y-237809399I156255J-256066D01*
G01*
X433330897Y-234809375D02*
G75*
G02*
X433174594Y-234765442I3J300020D01*
G01*
X435131603Y-237809375D02*
G75*
G02*
X435287905Y-237853309I3J-299992D01*
G01*
X435287905Y-234765441D02*
G75*
G02*
X435131603Y-234809375I-156299J256058D01*
G01*
X435287905Y-234765441D02*
G75*
G02*
X435975184Y-235452720I260503J-426776D01*
G01*
X435931250Y-235609022D02*
G75*
G02*
X435975184Y-235452720I299992J3D01*
G01*
X435975184Y-237166030D02*
G75*
G02*
X435287905Y-237853309I-426776J-260503D01*
G01*
X435975184Y-237166030D02*
G75*
G02*
X435931250Y-237009728I256058J156299D01*
G01*
G04 #@! TO.C,D100*
X172975000Y-198209375D02*
X172975000Y-197509022D01*
X172975000Y-198209375D02*
X172975000Y-198909728D01*
X174675000Y-196709375D02*
X173774647Y-196709375D01*
X174675000Y-196709375D02*
X175575353Y-196709375D01*
X174675000Y-199709375D02*
X173774647Y-199709375D01*
X174675000Y-199709375D02*
X175575353Y-199709375D01*
X176375000Y-198209375D02*
X176375000Y-197509022D01*
X176375000Y-198209375D02*
X176375000Y-198909728D01*
X172931066Y-197352720D02*
G75*
G02*
X172974976Y-197509022I-256066J-156255D01*
G01*
X172931066Y-197352720D02*
G75*
G02*
X173618345Y-196665441I426774J260505D01*
G01*
X172975000Y-198909728D02*
G75*
G02*
X172931065Y-199066029I-299680J-87D01*
G01*
X173618345Y-199753309D02*
G75*
G02*
X172931066Y-199066030I-260505J426774D01*
G01*
X173618345Y-199753309D02*
G75*
G02*
X173774647Y-199709399I156255J-256066D01*
G01*
X173774647Y-196709375D02*
G75*
G02*
X173618344Y-196665442I3J300020D01*
G01*
X175575353Y-199709375D02*
G75*
G02*
X175731655Y-199753309I3J-299992D01*
G01*
X175731655Y-196665441D02*
G75*
G02*
X175575353Y-196709375I-156299J256058D01*
G01*
X175731655Y-196665441D02*
G75*
G02*
X176418934Y-197352720I260503J-426776D01*
G01*
X176375000Y-197509022D02*
G75*
G02*
X176418934Y-197352720I299992J3D01*
G01*
X176418934Y-199066030D02*
G75*
G02*
X175731655Y-199753309I-426776J-260503D01*
G01*
X176418934Y-199066030D02*
G75*
G02*
X176375000Y-198909728I256058J156299D01*
G01*
G04 #@! TO.C,D125*
X222981250Y-160109375D02*
X222981250Y-159409022D01*
X222981250Y-160109375D02*
X222981250Y-160809728D01*
X224681250Y-158609375D02*
X223780897Y-158609375D01*
X224681250Y-158609375D02*
X225581603Y-158609375D01*
X224681250Y-161609375D02*
X223780897Y-161609375D01*
X224681250Y-161609375D02*
X225581603Y-161609375D01*
X226381250Y-160109375D02*
X226381250Y-159409022D01*
X226381250Y-160109375D02*
X226381250Y-160809728D01*
X222937316Y-159252720D02*
G75*
G02*
X222981226Y-159409022I-256066J-156255D01*
G01*
X222937316Y-159252720D02*
G75*
G02*
X223624595Y-158565441I426774J260505D01*
G01*
X222981250Y-160809728D02*
G75*
G02*
X222937315Y-160966029I-299680J-87D01*
G01*
X223624595Y-161653309D02*
G75*
G02*
X222937316Y-160966030I-260505J426774D01*
G01*
X223624595Y-161653309D02*
G75*
G02*
X223780897Y-161609399I156255J-256066D01*
G01*
X223780897Y-158609375D02*
G75*
G02*
X223624594Y-158565442I3J300020D01*
G01*
X225581603Y-161609375D02*
G75*
G02*
X225737905Y-161653309I3J-299992D01*
G01*
X225737905Y-158565441D02*
G75*
G02*
X225581603Y-158609375I-156299J256058D01*
G01*
X225737905Y-158565441D02*
G75*
G02*
X226425184Y-159252720I260503J-426776D01*
G01*
X226381250Y-159409022D02*
G75*
G02*
X226425184Y-159252720I299992J3D01*
G01*
X226425184Y-160966030D02*
G75*
G02*
X225737905Y-161653309I-426776J-260503D01*
G01*
X226425184Y-160966030D02*
G75*
G02*
X226381250Y-160809728I256058J156299D01*
G01*
G04 #@! TD*
M02*
