ISO-10303-21;
HEADER;
/* Generated by software containing ST-Developer
 * from STEP Tools, Inc. (www.steptools.com) 
 */

FILE_DESCRIPTION(
/* description */ ('KiCad electronic assembly'),
/* implementation_level */ '2;1');

FILE_NAME(
/* name */ 'WIEBZ K1 v2 MCU cover.step',
/* time_stamp */ '2026-09-27T23:36:22+01:00',
/* author */ (''),
/* organization */ (''),
/* preprocessor_version */ 'ST-DEVELOPER v20.2',
/* originating_system */ 'Autodesk Translation Framework v15.15.0.0',
/* authorisation */ '');

FILE_SCHEMA (('AUTOMOTIVE_DESIGN { 1 0 10303 214 3 1 1 }'));
ENDSEC;

DATA;
#10=MECHANICAL_DESIGN_GEOMETRIC_PRESENTATION_REPRESENTATION('',(#13),#1515);
#11=SHAPE_REPRESENTATION_RELATIONSHIP('SRR','None',#1521,#12);
#12=ADVANCED_BREP_SHAPE_REPRESENTATION('',(#14),#1514);
#13=STYLED_ITEM('',(#1531),#14);
#14=MANIFOLD_SOLID_BREP('MCU Cover',#911);
#15=TOROIDAL_SURFACE('',#961,2.5,0.5);
#16=B_SPLINE_CURVE_WITH_KNOTS('',3,(#1447,#1448,#1449,#1450,#1451,#1452,
#1453,#1454),.UNSPECIFIED.,.F.,.F.,(4,2,2,4),(0.,0.0332644074051901,0.0665288148103801,
0.0864490647425528),.UNSPECIFIED.);
#17=SPHERICAL_SURFACE('',#939,1.);
#18=SPHERICAL_SURFACE('',#952,1.);
#19=SPHERICAL_SURFACE('',#955,1.);
#20=FACE_BOUND('',#105,.T.);
#21=FACE_BOUND('',#112,.T.);
#22=CYLINDRICAL_SURFACE('',#920,1.);
#23=CYLINDRICAL_SURFACE('',#935,1.);
#24=CYLINDRICAL_SURFACE('',#937,1.);
#25=CYLINDRICAL_SURFACE('',#944,1.);
#26=CYLINDRICAL_SURFACE('',#947,1.);
#27=CYLINDRICAL_SURFACE('',#949,1.);
#28=CYLINDRICAL_SURFACE('',#953,1.);
#29=CYLINDRICAL_SURFACE('',#958,1.);
#30=CYLINDRICAL_SURFACE('',#965,3.);
#31=CYLINDRICAL_SURFACE('',#966,0.5);
#32=CYLINDRICAL_SURFACE('',#978,0.5);
#33=CYLINDRICAL_SURFACE('',#980,0.5);
#34=CYLINDRICAL_SURFACE('',#982,0.5);
#35=CYLINDRICAL_SURFACE('',#984,0.5);
#36=CYLINDRICAL_SURFACE('',#989,1.05000079391971);
#37=ELLIPSE('',#917,2.96793821040568,1.);
#38=ELLIPSE('',#918,1.37244353444663,0.5);
#39=ELLIPSE('',#960,0.707106781186547,0.5);
#40=ELLIPSE('',#979,0.508818388764161,0.5);
#41=ELLIPSE('',#981,0.50881838876415,0.5);
#42=ELLIPSE('',#983,0.508818388764161,0.5);
#43=FACE_OUTER_BOUND('',#93,.T.);
#44=FACE_OUTER_BOUND('',#94,.T.);
#45=FACE_OUTER_BOUND('',#95,.T.);
#46=FACE_OUTER_BOUND('',#96,.T.);
#47=FACE_OUTER_BOUND('',#97,.T.);
#48=FACE_OUTER_BOUND('',#98,.T.);
#49=FACE_OUTER_BOUND('',#99,.T.);
#50=FACE_OUTER_BOUND('',#100,.T.);
#51=FACE_OUTER_BOUND('',#101,.T.);
#52=FACE_OUTER_BOUND('',#102,.T.);
#53=FACE_OUTER_BOUND('',#103,.T.);
#54=FACE_OUTER_BOUND('',#104,.T.);
#55=FACE_OUTER_BOUND('',#106,.T.);
#56=FACE_OUTER_BOUND('',#107,.T.);
#57=FACE_OUTER_BOUND('',#108,.T.);
#58=FACE_OUTER_BOUND('',#109,.T.);
#59=FACE_OUTER_BOUND('',#110,.T.);
#60=FACE_OUTER_BOUND('',#111,.T.);
#61=FACE_OUTER_BOUND('',#113,.T.);
#62=FACE_OUTER_BOUND('',#114,.T.);
#63=FACE_OUTER_BOUND('',#115,.T.);
#64=FACE_OUTER_BOUND('',#116,.T.);
#65=FACE_OUTER_BOUND('',#117,.T.);
#66=FACE_OUTER_BOUND('',#118,.T.);
#67=FACE_OUTER_BOUND('',#119,.T.);
#68=FACE_OUTER_BOUND('',#120,.T.);
#69=FACE_OUTER_BOUND('',#121,.T.);
#70=FACE_OUTER_BOUND('',#122,.T.);
#71=FACE_OUTER_BOUND('',#123,.T.);
#72=FACE_OUTER_BOUND('',#124,.T.);
#73=FACE_OUTER_BOUND('',#125,.T.);
#74=FACE_OUTER_BOUND('',#126,.T.);
#75=FACE_OUTER_BOUND('',#127,.T.);
#76=FACE_OUTER_BOUND('',#128,.T.);
#77=FACE_OUTER_BOUND('',#129,.T.);
#78=FACE_OUTER_BOUND('',#130,.T.);
#79=FACE_OUTER_BOUND('',#131,.T.);
#80=FACE_OUTER_BOUND('',#132,.T.);
#81=FACE_OUTER_BOUND('',#133,.T.);
#82=FACE_OUTER_BOUND('',#134,.T.);
#83=FACE_OUTER_BOUND('',#135,.T.);
#84=FACE_OUTER_BOUND('',#136,.T.);
#85=FACE_OUTER_BOUND('',#137,.T.);
#86=FACE_OUTER_BOUND('',#138,.T.);
#87=FACE_OUTER_BOUND('',#139,.T.);
#88=FACE_OUTER_BOUND('',#140,.T.);
#89=FACE_OUTER_BOUND('',#141,.T.);
#90=FACE_OUTER_BOUND('',#142,.T.);
#91=FACE_OUTER_BOUND('',#143,.T.);
#92=FACE_OUTER_BOUND('',#144,.T.);
#93=EDGE_LOOP('',(#574,#575,#576,#577,#578,#579,#580,#581,#582,#583,#584,
#585,#586,#587,#588,#589,#590,#591,#592,#593,#594,#595,#596));
#94=EDGE_LOOP('',(#597,#598,#599,#600,#601,#602));
#95=EDGE_LOOP('',(#603,#604,#605,#606));
#96=EDGE_LOOP('',(#607,#608,#609,#610));
#97=EDGE_LOOP('',(#611,#612,#613,#614,#615,#616,#617,#618));
#98=EDGE_LOOP('',(#619,#620,#621,#622));
#99=EDGE_LOOP('',(#623,#624,#625,#626));
#100=EDGE_LOOP('',(#627,#628,#629,#630));
#101=EDGE_LOOP('',(#631,#632,#633,#634));
#102=EDGE_LOOP('',(#635,#636,#637,#638));
#103=EDGE_LOOP('',(#639,#640,#641,#642));
#104=EDGE_LOOP('',(#643,#644,#645,#646,#647,#648,#649,#650,#651,#652,#653,
#654,#655,#656,#657,#658,#659));
#105=EDGE_LOOP('',(#660));
#106=EDGE_LOOP('',(#661,#662,#663,#664));
#107=EDGE_LOOP('',(#665,#666,#667,#668));
#108=EDGE_LOOP('',(#669,#670,#671,#672));
#109=EDGE_LOOP('',(#673,#674,#675,#676));
#110=EDGE_LOOP('',(#677,#678,#679));
#111=EDGE_LOOP('',(#680,#681,#682,#683,#684,#685,#686,#687,#688,#689,#690));
#112=EDGE_LOOP('',(#691));
#113=EDGE_LOOP('',(#692,#693,#694,#695));
#114=EDGE_LOOP('',(#696,#697,#698,#699));
#115=EDGE_LOOP('',(#700,#701,#702,#703));
#116=EDGE_LOOP('',(#704,#705,#706,#707));
#117=EDGE_LOOP('',(#708,#709,#710));
#118=EDGE_LOOP('',(#711,#712,#713,#714));
#119=EDGE_LOOP('',(#715,#716,#717));
#120=EDGE_LOOP('',(#718,#719,#720,#721,#722));
#121=EDGE_LOOP('',(#723,#724,#725,#726));
#122=EDGE_LOOP('',(#727,#728,#729,#730,#731,#732));
#123=EDGE_LOOP('',(#733,#734,#735,#736));
#124=EDGE_LOOP('',(#737,#738,#739,#740));
#125=EDGE_LOOP('',(#741,#742,#743,#744,#745,#746,#747));
#126=EDGE_LOOP('',(#748,#749,#750,#751));
#127=EDGE_LOOP('',(#752,#753,#754,#755,#756,#757,#758));
#128=EDGE_LOOP('',(#759,#760,#761,#762));
#129=EDGE_LOOP('',(#763,#764,#765,#766,#767));
#130=EDGE_LOOP('',(#768,#769,#770,#771));
#131=EDGE_LOOP('',(#772,#773,#774,#775));
#132=EDGE_LOOP('',(#776,#777,#778,#779));
#133=EDGE_LOOP('',(#780,#781,#782,#783));
#134=EDGE_LOOP('',(#784,#785,#786,#787));
#135=EDGE_LOOP('',(#788,#789,#790,#791));
#136=EDGE_LOOP('',(#792,#793,#794,#795));
#137=EDGE_LOOP('',(#796,#797,#798,#799));
#138=EDGE_LOOP('',(#800,#801,#802,#803));
#139=EDGE_LOOP('',(#804,#805,#806,#807));
#140=EDGE_LOOP('',(#808,#809,#810,#811));
#141=EDGE_LOOP('',(#812,#813,#814,#815));
#142=EDGE_LOOP('',(#816,#817,#818,#819));
#143=EDGE_LOOP('',(#820,#821,#822,#823,#824,#825));
#144=EDGE_LOOP('',(#826,#827,#828,#829));
#145=CIRCLE('',#914,1.);
#146=CIRCLE('',#915,1.);
#147=CIRCLE('',#921,1.00000000000001);
#148=CIRCLE('',#923,1.);
#149=CIRCLE('',#931,3.);
#150=CIRCLE('',#932,1.05000079391971);
#151=CIRCLE('',#936,0.999999999999996);
#152=CIRCLE('',#938,1.);
#153=CIRCLE('',#940,0.999999999999996);
#154=CIRCLE('',#942,2.5);
#155=CIRCLE('',#943,1.05000079391971);
#156=CIRCLE('',#945,1.);
#157=CIRCLE('',#948,0.999999999999996);
#158=CIRCLE('',#950,1.00000000000001);
#159=CIRCLE('',#951,0.999999999999999);
#160=CIRCLE('',#954,1.00000000000001);
#161=CIRCLE('',#956,1.);
#162=CIRCLE('',#962,0.500000000000007);
#163=CIRCLE('',#963,0.5);
#164=CIRCLE('',#964,3.);
#165=CIRCLE('',#967,0.5);
#166=LINE('',#1250,#266);
#167=LINE('',#1254,#267);
#168=LINE('',#1256,#268);
#169=LINE('',#1258,#269);
#170=LINE('',#1260,#270);
#171=LINE('',#1262,#271);
#172=LINE('',#1264,#272);
#173=LINE('',#1266,#273);
#174=LINE('',#1268,#274);
#175=LINE('',#1270,#275);
#176=LINE('',#1272,#276);
#177=LINE('',#1274,#277);
#178=LINE('',#1276,#278);
#179=LINE('',#1278,#279);
#180=LINE('',#1280,#280);
#181=LINE('',#1282,#281);
#182=LINE('',#1284,#282);
#183=LINE('',#1286,#283);
#184=LINE('',#1288,#284);
#185=LINE('',#1290,#285);
#186=LINE('',#1293,#286);
#187=LINE('',#1296,#287);
#188=LINE('',#1300,#288);
#189=LINE('',#1303,#289);
#190=LINE('',#1306,#290);
#191=LINE('',#1307,#291);
#192=LINE('',#1310,#292);
#193=LINE('',#1314,#293);
#194=LINE('',#1316,#294);
#195=LINE('',#1318,#295);
#196=LINE('',#1320,#296);
#197=LINE('',#1322,#297);
#198=LINE('',#1325,#298);
#199=LINE('',#1328,#299);
#200=LINE('',#1329,#300);
#201=LINE('',#1332,#301);
#202=LINE('',#1333,#302);
#203=LINE('',#1336,#303);
#204=LINE('',#1337,#304);
#205=LINE('',#1341,#305);
#206=LINE('',#1343,#306);
#207=LINE('',#1345,#307);
#208=LINE('',#1346,#308);
#209=LINE('',#1349,#309);
#210=LINE('',#1351,#310);
#211=LINE('',#1352,#311);
#212=LINE('',#1355,#312);
#213=LINE('',#1356,#313);
#214=LINE('',#1359,#314);
#215=LINE('',#1361,#315);
#216=LINE('',#1363,#316);
#217=LINE('',#1365,#317);
#218=LINE('',#1367,#318);
#219=LINE('',#1369,#319);
#220=LINE('',#1371,#320);
#221=LINE('',#1373,#321);
#222=LINE('',#1375,#322);
#223=LINE('',#1377,#323);
#224=LINE('',#1383,#324);
#225=LINE('',#1384,#325);
#226=LINE('',#1385,#326);
#227=LINE('',#1388,#327);
#228=LINE('',#1389,#328);
#229=LINE('',#1392,#329);
#230=LINE('',#1397,#330);
#231=LINE('',#1403,#331);
#232=LINE('',#1405,#332);
#233=LINE('',#1407,#333);
#234=LINE('',#1411,#334);
#235=LINE('',#1413,#335);
#236=LINE('',#1415,#336);
#237=LINE('',#1416,#337);
#238=LINE('',#1417,#338);
#239=LINE('',#1422,#339);
#240=LINE('',#1425,#340);
#241=LINE('',#1429,#341);
#242=LINE('',#1433,#342);
#243=LINE('',#1436,#343);
#244=LINE('',#1439,#344);
#245=LINE('',#1446,#345);
#246=LINE('',#1463,#346);
#247=LINE('',#1469,#347);
#248=LINE('',#1470,#348);
#249=LINE('',#1471,#349);
#250=LINE('',#1473,#350);
#251=LINE('',#1475,#351);
#252=LINE('',#1476,#352);
#253=LINE('',#1478,#353);
#254=LINE('',#1480,#354);
#255=LINE('',#1482,#355);
#256=LINE('',#1484,#356);
#257=LINE('',#1486,#357);
#258=LINE('',#1488,#358);
#259=LINE('',#1490,#359);
#260=LINE('',#1494,#360);
#261=LINE('',#1498,#361);
#262=LINE('',#1501,#362);
#263=LINE('',#1505,#363);
#264=LINE('',#1507,#364);
#265=LINE('',#1511,#365);
#266=VECTOR('',#994,10.);
#267=VECTOR('',#997,10.);
#268=VECTOR('',#998,10.);
#269=VECTOR('',#999,10.);
#270=VECTOR('',#1000,10.);
#271=VECTOR('',#1001,10.);
#272=VECTOR('',#1002,10.);
#273=VECTOR('',#1003,10.);
#274=VECTOR('',#1004,10.);
#275=VECTOR('',#1005,10.);
#276=VECTOR('',#1006,10.);
#277=VECTOR('',#1007,10.);
#278=VECTOR('',#1008,10.);
#279=VECTOR('',#1009,10.);
#280=VECTOR('',#1010,10.);
#281=VECTOR('',#1011,10.);
#282=VECTOR('',#1012,10.);
#283=VECTOR('',#1013,10.);
#284=VECTOR('',#1014,10.);
#285=VECTOR('',#1015,10.);
#286=VECTOR('',#1018,10.);
#287=VECTOR('',#1021,10.);
#288=VECTOR('',#1024,10.);
#289=VECTOR('',#1027,10.);
#290=VECTOR('',#1030,10.);
#291=VECTOR('',#1031,10.);
#292=VECTOR('',#1034,10.);
#293=VECTOR('',#1039,10.);
#294=VECTOR('',#1040,10.);
#295=VECTOR('',#1041,10.);
#296=VECTOR('',#1042,10.);
#297=VECTOR('',#1043,10.);
#298=VECTOR('',#1046,10.);
#299=VECTOR('',#1049,10.);
#300=VECTOR('',#1050,10.);
#301=VECTOR('',#1053,10.);
#302=VECTOR('',#1054,10.);
#303=VECTOR('',#1057,10.);
#304=VECTOR('',#1058,10.);
#305=VECTOR('',#1061,10.);
#306=VECTOR('',#1062,10.);
#307=VECTOR('',#1063,10.);
#308=VECTOR('',#1064,10.);
#309=VECTOR('',#1067,10.);
#310=VECTOR('',#1068,10.);
#311=VECTOR('',#1069,10.);
#312=VECTOR('',#1072,10.);
#313=VECTOR('',#1073,10.);
#314=VECTOR('',#1076,10.);
#315=VECTOR('',#1077,10.);
#316=VECTOR('',#1078,10.);
#317=VECTOR('',#1079,10.);
#318=VECTOR('',#1080,10.);
#319=VECTOR('',#1081,10.);
#320=VECTOR('',#1082,10.);
#321=VECTOR('',#1083,10.);
#322=VECTOR('',#1084,10.);
#323=VECTOR('',#1087,10.);
#324=VECTOR('',#1092,10.);
#325=VECTOR('',#1093,10.);
#326=VECTOR('',#1094,10.);
#327=VECTOR('',#1097,10.);
#328=VECTOR('',#1098,10.);
#329=VECTOR('',#1101,10.);
#330=VECTOR('',#1108,10.);
#331=VECTOR('',#1115,10.);
#332=VECTOR('',#1116,10.);
#333=VECTOR('',#1117,10.);
#334=VECTOR('',#1120,10.);
#335=VECTOR('',#1121,10.);
#336=VECTOR('',#1122,10.);
#337=VECTOR('',#1123,10.);
#338=VECTOR('',#1124,10.);
#339=VECTOR('',#1129,10.);
#340=VECTOR('',#1134,10.);
#341=VECTOR('',#1139,10.);
#342=VECTOR('',#1144,10.);
#343=VECTOR('',#1147,10.);
#344=VECTOR('',#1152,10.);
#345=VECTOR('',#1163,10.);
#346=VECTOR('',#1178,10.);
#347=VECTOR('',#1185,10.);
#348=VECTOR('',#1186,10.);
#349=VECTOR('',#1187,10.);
#350=VECTOR('',#1190,10.);
#351=VECTOR('',#1191,10.);
#352=VECTOR('',#1192,10.);
#353=VECTOR('',#1195,10.);
#354=VECTOR('',#1198,10.);
#355=VECTOR('',#1201,10.);
#356=VECTOR('',#1204,10.);
#357=VECTOR('',#1207,10.);
#358=VECTOR('',#1210,10.);
#359=VECTOR('',#1213,10.);
#360=VECTOR('',#1218,10.);
#361=VECTOR('',#1223,10.);
#362=VECTOR('',#1228,10.);
#363=VECTOR('',#1235,10.);
#364=VECTOR('',#1238,10.);
#365=VECTOR('',#1245,1.05000079391971);
#366=VERTEX_POINT('',#1248);
#367=VERTEX_POINT('',#1249);
#368=VERTEX_POINT('',#1251);
#369=VERTEX_POINT('',#1253);
#370=VERTEX_POINT('',#1255);
#371=VERTEX_POINT('',#1257);
#372=VERTEX_POINT('',#1259);
#373=VERTEX_POINT('',#1261);
#374=VERTEX_POINT('',#1263);
#375=VERTEX_POINT('',#1265);
#376=VERTEX_POINT('',#1267);
#377=VERTEX_POINT('',#1269);
#378=VERTEX_POINT('',#1271);
#379=VERTEX_POINT('',#1273);
#380=VERTEX_POINT('',#1275);
#381=VERTEX_POINT('',#1277);
#382=VERTEX_POINT('',#1279);
#383=VERTEX_POINT('',#1281);
#384=VERTEX_POINT('',#1283);
#385=VERTEX_POINT('',#1285);
#386=VERTEX_POINT('',#1287);
#387=VERTEX_POINT('',#1289);
#388=VERTEX_POINT('',#1291);
#389=VERTEX_POINT('',#1295);
#390=VERTEX_POINT('',#1297);
#391=VERTEX_POINT('',#1299);
#392=VERTEX_POINT('',#1301);
#393=VERTEX_POINT('',#1305);
#394=VERTEX_POINT('',#1309);
#395=VERTEX_POINT('',#1313);
#396=VERTEX_POINT('',#1315);
#397=VERTEX_POINT('',#1317);
#398=VERTEX_POINT('',#1319);
#399=VERTEX_POINT('',#1321);
#400=VERTEX_POINT('',#1323);
#401=VERTEX_POINT('',#1327);
#402=VERTEX_POINT('',#1331);
#403=VERTEX_POINT('',#1335);
#404=VERTEX_POINT('',#1339);
#405=VERTEX_POINT('',#1340);
#406=VERTEX_POINT('',#1342);
#407=VERTEX_POINT('',#1344);
#408=VERTEX_POINT('',#1348);
#409=VERTEX_POINT('',#1350);
#410=VERTEX_POINT('',#1354);
#411=VERTEX_POINT('',#1358);
#412=VERTEX_POINT('',#1360);
#413=VERTEX_POINT('',#1362);
#414=VERTEX_POINT('',#1364);
#415=VERTEX_POINT('',#1366);
#416=VERTEX_POINT('',#1368);
#417=VERTEX_POINT('',#1370);
#418=VERTEX_POINT('',#1372);
#419=VERTEX_POINT('',#1374);
#420=VERTEX_POINT('',#1378);
#421=VERTEX_POINT('',#1381);
#422=VERTEX_POINT('',#1382);
#423=VERTEX_POINT('',#1387);
#424=VERTEX_POINT('',#1391);
#425=VERTEX_POINT('',#1395);
#426=VERTEX_POINT('',#1401);
#427=VERTEX_POINT('',#1402);
#428=VERTEX_POINT('',#1404);
#429=VERTEX_POINT('',#1406);
#430=VERTEX_POINT('',#1408);
#431=VERTEX_POINT('',#1410);
#432=VERTEX_POINT('',#1412);
#433=VERTEX_POINT('',#1414);
#434=VERTEX_POINT('',#1418);
#435=VERTEX_POINT('',#1421);
#436=VERTEX_POINT('',#1427);
#437=VERTEX_POINT('',#1432);
#438=VERTEX_POINT('',#1434);
#439=VERTEX_POINT('',#1445);
#440=VERTEX_POINT('',#1458);
#441=VERTEX_POINT('',#1467);
#442=VERTEX_POINT('',#1468);
#443=VERTEX_POINT('',#1474);
#444=VERTEX_POINT('',#1493);
#445=VERTEX_POINT('',#1497);
#446=EDGE_CURVE('',#366,#367,#166,.T.);
#447=EDGE_CURVE('',#368,#367,#145,.F.);
#448=EDGE_CURVE('',#368,#369,#167,.T.);
#449=EDGE_CURVE('',#369,#370,#168,.T.);
#450=EDGE_CURVE('',#370,#371,#169,.T.);
#451=EDGE_CURVE('',#371,#372,#170,.T.);
#452=EDGE_CURVE('',#372,#373,#171,.T.);
#453=EDGE_CURVE('',#373,#374,#172,.T.);
#454=EDGE_CURVE('',#374,#375,#173,.T.);
#455=EDGE_CURVE('',#375,#376,#174,.T.);
#456=EDGE_CURVE('',#376,#377,#175,.T.);
#457=EDGE_CURVE('',#377,#378,#176,.T.);
#458=EDGE_CURVE('',#378,#379,#177,.T.);
#459=EDGE_CURVE('',#379,#380,#178,.T.);
#460=EDGE_CURVE('',#380,#381,#179,.T.);
#461=EDGE_CURVE('',#381,#382,#180,.T.);
#462=EDGE_CURVE('',#382,#383,#181,.T.);
#463=EDGE_CURVE('',#383,#384,#182,.T.);
#464=EDGE_CURVE('',#384,#385,#183,.T.);
#465=EDGE_CURVE('',#385,#386,#184,.T.);
#466=EDGE_CURVE('',#386,#387,#185,.T.);
#467=EDGE_CURVE('',#388,#387,#146,.F.);
#468=EDGE_CURVE('',#388,#366,#186,.T.);
#469=EDGE_CURVE('',#369,#389,#187,.T.);
#470=EDGE_CURVE('',#390,#389,#37,.T.);
#471=EDGE_CURVE('',#391,#390,#188,.T.);
#472=EDGE_CURVE('',#392,#391,#38,.F.);
#473=EDGE_CURVE('',#370,#392,#189,.T.);
#474=EDGE_CURVE('',#393,#368,#190,.T.);
#475=EDGE_CURVE('',#389,#393,#191,.T.);
#476=EDGE_CURVE('',#367,#394,#192,.T.);
#477=EDGE_CURVE('',#394,#393,#147,.T.);
#478=EDGE_CURVE('',#395,#385,#193,.T.);
#479=EDGE_CURVE('',#396,#395,#194,.T.);
#480=EDGE_CURVE('',#397,#396,#195,.T.);
#481=EDGE_CURVE('',#398,#397,#196,.T.);
#482=EDGE_CURVE('',#399,#398,#197,.T.);
#483=EDGE_CURVE('',#400,#399,#148,.T.);
#484=EDGE_CURVE('',#386,#400,#198,.T.);
#485=EDGE_CURVE('',#384,#401,#199,.T.);
#486=EDGE_CURVE('',#401,#395,#200,.T.);
#487=EDGE_CURVE('',#383,#402,#201,.T.);
#488=EDGE_CURVE('',#401,#402,#202,.T.);
#489=EDGE_CURVE('',#403,#382,#203,.T.);
#490=EDGE_CURVE('',#402,#403,#204,.T.);
#491=EDGE_CURVE('',#404,#405,#205,.T.);
#492=EDGE_CURVE('',#406,#404,#206,.T.);
#493=EDGE_CURVE('',#406,#407,#207,.T.);
#494=EDGE_CURVE('',#405,#407,#208,.T.);
#495=EDGE_CURVE('',#405,#408,#209,.T.);
#496=EDGE_CURVE('',#407,#409,#210,.T.);
#497=EDGE_CURVE('',#408,#409,#211,.T.);
#498=EDGE_CURVE('',#410,#406,#212,.T.);
#499=EDGE_CURVE('',#409,#410,#213,.T.);
#500=EDGE_CURVE('',#411,#403,#214,.T.);
#501=EDGE_CURVE('',#412,#411,#215,.T.);
#502=EDGE_CURVE('',#413,#412,#216,.T.);
#503=EDGE_CURVE('',#414,#413,#217,.T.);
#504=EDGE_CURVE('',#415,#414,#218,.T.);
#505=EDGE_CURVE('',#416,#415,#219,.T.);
#506=EDGE_CURVE('',#417,#416,#220,.T.);
#507=EDGE_CURVE('',#417,#418,#221,.T.);
#508=EDGE_CURVE('',#419,#418,#222,.T.);
#509=EDGE_CURVE('',#408,#419,#149,.T.);
#510=EDGE_CURVE('',#396,#410,#223,.T.);
#511=EDGE_CURVE('',#420,#420,#150,.T.);
#512=EDGE_CURVE('',#421,#422,#224,.T.);
#513=EDGE_CURVE('',#398,#421,#225,.T.);
#514=EDGE_CURVE('',#422,#397,#226,.T.);
#515=EDGE_CURVE('',#423,#400,#227,.T.);
#516=EDGE_CURVE('',#387,#423,#228,.T.);
#517=EDGE_CURVE('',#399,#424,#229,.T.);
#518=EDGE_CURVE('',#423,#424,#151,.T.);
#519=EDGE_CURVE('',#393,#425,#152,.T.);
#520=EDGE_CURVE('',#425,#390,#230,.T.);
#521=EDGE_CURVE('',#394,#425,#153,.T.);
#522=EDGE_CURVE('',#426,#427,#231,.T.);
#523=EDGE_CURVE('',#428,#426,#232,.T.);
#524=EDGE_CURVE('',#429,#428,#233,.T.);
#525=EDGE_CURVE('',#430,#429,#154,.T.);
#526=EDGE_CURVE('',#431,#430,#234,.T.);
#527=EDGE_CURVE('',#432,#431,#235,.T.);
#528=EDGE_CURVE('',#433,#432,#236,.T.);
#529=EDGE_CURVE('',#391,#433,#237,.T.);
#530=EDGE_CURVE('',#427,#425,#238,.T.);
#531=EDGE_CURVE('',#434,#434,#155,.T.);
#532=EDGE_CURVE('',#394,#435,#239,.T.);
#533=EDGE_CURVE('',#427,#435,#156,.T.);
#534=EDGE_CURVE('',#435,#366,#240,.T.);
#535=EDGE_CURVE('',#423,#436,#157,.T.);
#536=EDGE_CURVE('',#436,#388,#241,.T.);
#537=EDGE_CURVE('',#436,#424,#158,.T.);
#538=EDGE_CURVE('',#424,#437,#242,.T.);
#539=EDGE_CURVE('',#437,#438,#159,.T.);
#540=EDGE_CURVE('',#438,#436,#243,.T.);
#541=EDGE_CURVE('',#435,#438,#244,.T.);
#542=EDGE_CURVE('',#438,#426,#160,.T.);
#543=EDGE_CURVE('',#437,#426,#161,.T.);
#544=EDGE_CURVE('',#439,#437,#245,.T.);
#545=EDGE_CURVE('',#428,#439,#16,.T.);
#546=EDGE_CURVE('',#439,#421,#39,.T.);
#547=EDGE_CURVE('',#440,#430,#162,.T.);
#548=EDGE_CURVE('',#429,#405,#163,.T.);
#549=EDGE_CURVE('',#405,#440,#164,.T.);
#550=EDGE_CURVE('',#419,#440,#246,.T.);
#551=EDGE_CURVE('',#422,#404,#165,.T.);
#552=EDGE_CURVE('',#441,#442,#247,.T.);
#553=EDGE_CURVE('',#418,#442,#248,.T.);
#554=EDGE_CURVE('',#441,#417,#249,.T.);
#555=EDGE_CURVE('',#442,#374,#250,.T.);
#556=EDGE_CURVE('',#373,#443,#251,.T.);
#557=EDGE_CURVE('',#440,#443,#252,.T.);
#558=EDGE_CURVE('',#375,#441,#253,.T.);
#559=EDGE_CURVE('',#376,#416,#254,.T.);
#560=EDGE_CURVE('',#381,#411,#255,.T.);
#561=EDGE_CURVE('',#380,#412,#256,.T.);
#562=EDGE_CURVE('',#379,#413,#257,.T.);
#563=EDGE_CURVE('',#378,#414,#258,.T.);
#564=EDGE_CURVE('',#377,#415,#259,.T.);
#565=EDGE_CURVE('',#444,#392,#260,.T.);
#566=EDGE_CURVE('',#433,#444,#40,.T.);
#567=EDGE_CURVE('',#445,#444,#261,.T.);
#568=EDGE_CURVE('',#432,#445,#41,.T.);
#569=EDGE_CURVE('',#443,#445,#262,.T.);
#570=EDGE_CURVE('',#431,#443,#42,.T.);
#571=EDGE_CURVE('',#371,#444,#263,.T.);
#572=EDGE_CURVE('',#372,#445,#264,.T.);
#573=EDGE_CURVE('',#434,#420,#265,.T.);
#574=ORIENTED_EDGE('',*,*,#446,.T.);
#575=ORIENTED_EDGE('',*,*,#447,.F.);
#576=ORIENTED_EDGE('',*,*,#448,.T.);
#577=ORIENTED_EDGE('',*,*,#449,.T.);
#578=ORIENTED_EDGE('',*,*,#450,.T.);
#579=ORIENTED_EDGE('',*,*,#451,.T.);
#580=ORIENTED_EDGE('',*,*,#452,.T.);
#581=ORIENTED_EDGE('',*,*,#453,.T.);
#582=ORIENTED_EDGE('',*,*,#454,.T.);
#583=ORIENTED_EDGE('',*,*,#455,.T.);
#584=ORIENTED_EDGE('',*,*,#456,.T.);
#585=ORIENTED_EDGE('',*,*,#457,.T.);
#586=ORIENTED_EDGE('',*,*,#458,.T.);
#587=ORIENTED_EDGE('',*,*,#459,.T.);
#588=ORIENTED_EDGE('',*,*,#460,.T.);
#589=ORIENTED_EDGE('',*,*,#461,.T.);
#590=ORIENTED_EDGE('',*,*,#462,.T.);
#591=ORIENTED_EDGE('',*,*,#463,.T.);
#592=ORIENTED_EDGE('',*,*,#464,.T.);
#593=ORIENTED_EDGE('',*,*,#465,.T.);
#594=ORIENTED_EDGE('',*,*,#466,.T.);
#595=ORIENTED_EDGE('',*,*,#467,.F.);
#596=ORIENTED_EDGE('',*,*,#468,.T.);
#597=ORIENTED_EDGE('',*,*,#449,.F.);
#598=ORIENTED_EDGE('',*,*,#469,.T.);
#599=ORIENTED_EDGE('',*,*,#470,.F.);
#600=ORIENTED_EDGE('',*,*,#471,.F.);
#601=ORIENTED_EDGE('',*,*,#472,.F.);
#602=ORIENTED_EDGE('',*,*,#473,.F.);
#603=ORIENTED_EDGE('',*,*,#448,.F.);
#604=ORIENTED_EDGE('',*,*,#474,.F.);
#605=ORIENTED_EDGE('',*,*,#475,.F.);
#606=ORIENTED_EDGE('',*,*,#469,.F.);
#607=ORIENTED_EDGE('',*,*,#447,.T.);
#608=ORIENTED_EDGE('',*,*,#476,.T.);
#609=ORIENTED_EDGE('',*,*,#477,.T.);
#610=ORIENTED_EDGE('',*,*,#474,.T.);
#611=ORIENTED_EDGE('',*,*,#465,.F.);
#612=ORIENTED_EDGE('',*,*,#478,.F.);
#613=ORIENTED_EDGE('',*,*,#479,.F.);
#614=ORIENTED_EDGE('',*,*,#480,.F.);
#615=ORIENTED_EDGE('',*,*,#481,.F.);
#616=ORIENTED_EDGE('',*,*,#482,.F.);
#617=ORIENTED_EDGE('',*,*,#483,.F.);
#618=ORIENTED_EDGE('',*,*,#484,.F.);
#619=ORIENTED_EDGE('',*,*,#464,.F.);
#620=ORIENTED_EDGE('',*,*,#485,.T.);
#621=ORIENTED_EDGE('',*,*,#486,.T.);
#622=ORIENTED_EDGE('',*,*,#478,.T.);
#623=ORIENTED_EDGE('',*,*,#463,.F.);
#624=ORIENTED_EDGE('',*,*,#487,.T.);
#625=ORIENTED_EDGE('',*,*,#488,.F.);
#626=ORIENTED_EDGE('',*,*,#485,.F.);
#627=ORIENTED_EDGE('',*,*,#462,.F.);
#628=ORIENTED_EDGE('',*,*,#489,.F.);
#629=ORIENTED_EDGE('',*,*,#490,.F.);
#630=ORIENTED_EDGE('',*,*,#487,.F.);
#631=ORIENTED_EDGE('',*,*,#491,.F.);
#632=ORIENTED_EDGE('',*,*,#492,.F.);
#633=ORIENTED_EDGE('',*,*,#493,.T.);
#634=ORIENTED_EDGE('',*,*,#494,.F.);
#635=ORIENTED_EDGE('',*,*,#495,.F.);
#636=ORIENTED_EDGE('',*,*,#494,.T.);
#637=ORIENTED_EDGE('',*,*,#496,.T.);
#638=ORIENTED_EDGE('',*,*,#497,.F.);
#639=ORIENTED_EDGE('',*,*,#496,.F.);
#640=ORIENTED_EDGE('',*,*,#493,.F.);
#641=ORIENTED_EDGE('',*,*,#498,.F.);
#642=ORIENTED_EDGE('',*,*,#499,.F.);
#643=ORIENTED_EDGE('',*,*,#479,.T.);
#644=ORIENTED_EDGE('',*,*,#486,.F.);
#645=ORIENTED_EDGE('',*,*,#488,.T.);
#646=ORIENTED_EDGE('',*,*,#490,.T.);
#647=ORIENTED_EDGE('',*,*,#500,.F.);
#648=ORIENTED_EDGE('',*,*,#501,.F.);
#649=ORIENTED_EDGE('',*,*,#502,.F.);
#650=ORIENTED_EDGE('',*,*,#503,.F.);
#651=ORIENTED_EDGE('',*,*,#504,.F.);
#652=ORIENTED_EDGE('',*,*,#505,.F.);
#653=ORIENTED_EDGE('',*,*,#506,.F.);
#654=ORIENTED_EDGE('',*,*,#507,.T.);
#655=ORIENTED_EDGE('',*,*,#508,.F.);
#656=ORIENTED_EDGE('',*,*,#509,.F.);
#657=ORIENTED_EDGE('',*,*,#497,.T.);
#658=ORIENTED_EDGE('',*,*,#499,.T.);
#659=ORIENTED_EDGE('',*,*,#510,.F.);
#660=ORIENTED_EDGE('',*,*,#511,.F.);
#661=ORIENTED_EDGE('',*,*,#512,.F.);
#662=ORIENTED_EDGE('',*,*,#513,.F.);
#663=ORIENTED_EDGE('',*,*,#481,.T.);
#664=ORIENTED_EDGE('',*,*,#514,.F.);
#665=ORIENTED_EDGE('',*,*,#484,.T.);
#666=ORIENTED_EDGE('',*,*,#515,.F.);
#667=ORIENTED_EDGE('',*,*,#516,.F.);
#668=ORIENTED_EDGE('',*,*,#466,.F.);
#669=ORIENTED_EDGE('',*,*,#483,.T.);
#670=ORIENTED_EDGE('',*,*,#517,.T.);
#671=ORIENTED_EDGE('',*,*,#518,.F.);
#672=ORIENTED_EDGE('',*,*,#515,.T.);
#673=ORIENTED_EDGE('',*,*,#470,.T.);
#674=ORIENTED_EDGE('',*,*,#475,.T.);
#675=ORIENTED_EDGE('',*,*,#519,.T.);
#676=ORIENTED_EDGE('',*,*,#520,.T.);
#677=ORIENTED_EDGE('',*,*,#477,.F.);
#678=ORIENTED_EDGE('',*,*,#521,.T.);
#679=ORIENTED_EDGE('',*,*,#519,.F.);
#680=ORIENTED_EDGE('',*,*,#522,.F.);
#681=ORIENTED_EDGE('',*,*,#523,.F.);
#682=ORIENTED_EDGE('',*,*,#524,.F.);
#683=ORIENTED_EDGE('',*,*,#525,.F.);
#684=ORIENTED_EDGE('',*,*,#526,.F.);
#685=ORIENTED_EDGE('',*,*,#527,.F.);
#686=ORIENTED_EDGE('',*,*,#528,.F.);
#687=ORIENTED_EDGE('',*,*,#529,.F.);
#688=ORIENTED_EDGE('',*,*,#471,.T.);
#689=ORIENTED_EDGE('',*,*,#520,.F.);
#690=ORIENTED_EDGE('',*,*,#530,.F.);
#691=ORIENTED_EDGE('',*,*,#531,.T.);
#692=ORIENTED_EDGE('',*,*,#530,.T.);
#693=ORIENTED_EDGE('',*,*,#521,.F.);
#694=ORIENTED_EDGE('',*,*,#532,.T.);
#695=ORIENTED_EDGE('',*,*,#533,.F.);
#696=ORIENTED_EDGE('',*,*,#476,.F.);
#697=ORIENTED_EDGE('',*,*,#446,.F.);
#698=ORIENTED_EDGE('',*,*,#534,.F.);
#699=ORIENTED_EDGE('',*,*,#532,.F.);
#700=ORIENTED_EDGE('',*,*,#535,.T.);
#701=ORIENTED_EDGE('',*,*,#536,.T.);
#702=ORIENTED_EDGE('',*,*,#467,.T.);
#703=ORIENTED_EDGE('',*,*,#516,.T.);
#704=ORIENTED_EDGE('',*,*,#537,.T.);
#705=ORIENTED_EDGE('',*,*,#538,.T.);
#706=ORIENTED_EDGE('',*,*,#539,.T.);
#707=ORIENTED_EDGE('',*,*,#540,.T.);
#708=ORIENTED_EDGE('',*,*,#537,.F.);
#709=ORIENTED_EDGE('',*,*,#535,.F.);
#710=ORIENTED_EDGE('',*,*,#518,.T.);
#711=ORIENTED_EDGE('',*,*,#533,.T.);
#712=ORIENTED_EDGE('',*,*,#541,.T.);
#713=ORIENTED_EDGE('',*,*,#542,.T.);
#714=ORIENTED_EDGE('',*,*,#522,.T.);
#715=ORIENTED_EDGE('',*,*,#542,.F.);
#716=ORIENTED_EDGE('',*,*,#539,.F.);
#717=ORIENTED_EDGE('',*,*,#543,.T.);
#718=ORIENTED_EDGE('',*,*,#536,.F.);
#719=ORIENTED_EDGE('',*,*,#540,.F.);
#720=ORIENTED_EDGE('',*,*,#541,.F.);
#721=ORIENTED_EDGE('',*,*,#534,.T.);
#722=ORIENTED_EDGE('',*,*,#468,.F.);
#723=ORIENTED_EDGE('',*,*,#543,.F.);
#724=ORIENTED_EDGE('',*,*,#544,.F.);
#725=ORIENTED_EDGE('',*,*,#545,.F.);
#726=ORIENTED_EDGE('',*,*,#523,.T.);
#727=ORIENTED_EDGE('',*,*,#513,.T.);
#728=ORIENTED_EDGE('',*,*,#546,.F.);
#729=ORIENTED_EDGE('',*,*,#544,.T.);
#730=ORIENTED_EDGE('',*,*,#538,.F.);
#731=ORIENTED_EDGE('',*,*,#517,.F.);
#732=ORIENTED_EDGE('',*,*,#482,.T.);
#733=ORIENTED_EDGE('',*,*,#547,.T.);
#734=ORIENTED_EDGE('',*,*,#525,.T.);
#735=ORIENTED_EDGE('',*,*,#548,.T.);
#736=ORIENTED_EDGE('',*,*,#549,.T.);
#737=ORIENTED_EDGE('',*,*,#509,.T.);
#738=ORIENTED_EDGE('',*,*,#550,.T.);
#739=ORIENTED_EDGE('',*,*,#549,.F.);
#740=ORIENTED_EDGE('',*,*,#495,.T.);
#741=ORIENTED_EDGE('',*,*,#548,.F.);
#742=ORIENTED_EDGE('',*,*,#524,.T.);
#743=ORIENTED_EDGE('',*,*,#545,.T.);
#744=ORIENTED_EDGE('',*,*,#546,.T.);
#745=ORIENTED_EDGE('',*,*,#512,.T.);
#746=ORIENTED_EDGE('',*,*,#551,.T.);
#747=ORIENTED_EDGE('',*,*,#491,.T.);
#748=ORIENTED_EDGE('',*,*,#552,.T.);
#749=ORIENTED_EDGE('',*,*,#553,.F.);
#750=ORIENTED_EDGE('',*,*,#507,.F.);
#751=ORIENTED_EDGE('',*,*,#554,.F.);
#752=ORIENTED_EDGE('',*,*,#555,.T.);
#753=ORIENTED_EDGE('',*,*,#453,.F.);
#754=ORIENTED_EDGE('',*,*,#556,.T.);
#755=ORIENTED_EDGE('',*,*,#557,.F.);
#756=ORIENTED_EDGE('',*,*,#550,.F.);
#757=ORIENTED_EDGE('',*,*,#508,.T.);
#758=ORIENTED_EDGE('',*,*,#553,.T.);
#759=ORIENTED_EDGE('',*,*,#454,.F.);
#760=ORIENTED_EDGE('',*,*,#555,.F.);
#761=ORIENTED_EDGE('',*,*,#552,.F.);
#762=ORIENTED_EDGE('',*,*,#558,.F.);
#763=ORIENTED_EDGE('',*,*,#554,.T.);
#764=ORIENTED_EDGE('',*,*,#506,.T.);
#765=ORIENTED_EDGE('',*,*,#559,.F.);
#766=ORIENTED_EDGE('',*,*,#455,.F.);
#767=ORIENTED_EDGE('',*,*,#558,.T.);
#768=ORIENTED_EDGE('',*,*,#461,.F.);
#769=ORIENTED_EDGE('',*,*,#560,.T.);
#770=ORIENTED_EDGE('',*,*,#500,.T.);
#771=ORIENTED_EDGE('',*,*,#489,.T.);
#772=ORIENTED_EDGE('',*,*,#460,.F.);
#773=ORIENTED_EDGE('',*,*,#561,.T.);
#774=ORIENTED_EDGE('',*,*,#501,.T.);
#775=ORIENTED_EDGE('',*,*,#560,.F.);
#776=ORIENTED_EDGE('',*,*,#459,.F.);
#777=ORIENTED_EDGE('',*,*,#562,.T.);
#778=ORIENTED_EDGE('',*,*,#502,.T.);
#779=ORIENTED_EDGE('',*,*,#561,.F.);
#780=ORIENTED_EDGE('',*,*,#458,.F.);
#781=ORIENTED_EDGE('',*,*,#563,.T.);
#782=ORIENTED_EDGE('',*,*,#503,.T.);
#783=ORIENTED_EDGE('',*,*,#562,.F.);
#784=ORIENTED_EDGE('',*,*,#457,.F.);
#785=ORIENTED_EDGE('',*,*,#564,.T.);
#786=ORIENTED_EDGE('',*,*,#504,.T.);
#787=ORIENTED_EDGE('',*,*,#563,.F.);
#788=ORIENTED_EDGE('',*,*,#456,.F.);
#789=ORIENTED_EDGE('',*,*,#559,.T.);
#790=ORIENTED_EDGE('',*,*,#505,.T.);
#791=ORIENTED_EDGE('',*,*,#564,.F.);
#792=ORIENTED_EDGE('',*,*,#565,.T.);
#793=ORIENTED_EDGE('',*,*,#472,.T.);
#794=ORIENTED_EDGE('',*,*,#529,.T.);
#795=ORIENTED_EDGE('',*,*,#566,.T.);
#796=ORIENTED_EDGE('',*,*,#567,.T.);
#797=ORIENTED_EDGE('',*,*,#566,.F.);
#798=ORIENTED_EDGE('',*,*,#528,.T.);
#799=ORIENTED_EDGE('',*,*,#568,.T.);
#800=ORIENTED_EDGE('',*,*,#569,.T.);
#801=ORIENTED_EDGE('',*,*,#568,.F.);
#802=ORIENTED_EDGE('',*,*,#527,.T.);
#803=ORIENTED_EDGE('',*,*,#570,.T.);
#804=ORIENTED_EDGE('',*,*,#547,.F.);
#805=ORIENTED_EDGE('',*,*,#557,.T.);
#806=ORIENTED_EDGE('',*,*,#570,.F.);
#807=ORIENTED_EDGE('',*,*,#526,.T.);
#808=ORIENTED_EDGE('',*,*,#450,.F.);
#809=ORIENTED_EDGE('',*,*,#473,.T.);
#810=ORIENTED_EDGE('',*,*,#565,.F.);
#811=ORIENTED_EDGE('',*,*,#571,.F.);
#812=ORIENTED_EDGE('',*,*,#451,.F.);
#813=ORIENTED_EDGE('',*,*,#571,.T.);
#814=ORIENTED_EDGE('',*,*,#567,.F.);
#815=ORIENTED_EDGE('',*,*,#572,.F.);
#816=ORIENTED_EDGE('',*,*,#452,.F.);
#817=ORIENTED_EDGE('',*,*,#572,.T.);
#818=ORIENTED_EDGE('',*,*,#569,.F.);
#819=ORIENTED_EDGE('',*,*,#556,.F.);
#820=ORIENTED_EDGE('',*,*,#492,.T.);
#821=ORIENTED_EDGE('',*,*,#551,.F.);
#822=ORIENTED_EDGE('',*,*,#514,.T.);
#823=ORIENTED_EDGE('',*,*,#480,.T.);
#824=ORIENTED_EDGE('',*,*,#510,.T.);
#825=ORIENTED_EDGE('',*,*,#498,.T.);
#826=ORIENTED_EDGE('',*,*,#531,.F.);
#827=ORIENTED_EDGE('',*,*,#573,.T.);
#828=ORIENTED_EDGE('',*,*,#511,.T.);
#829=ORIENTED_EDGE('',*,*,#573,.F.);
#830=PLANE('',#913);
#831=PLANE('',#916);
#832=PLANE('',#919);
#833=PLANE('',#922);
#834=PLANE('',#924);
#835=PLANE('',#925);
#836=PLANE('',#926);
#837=PLANE('',#927);
#838=PLANE('',#928);
#839=PLANE('',#929);
#840=PLANE('',#930);
#841=PLANE('',#933);
#842=PLANE('',#934);
#843=PLANE('',#941);
#844=PLANE('',#946);
#845=PLANE('',#957);
#846=PLANE('',#959);
#847=PLANE('',#968);
#848=PLANE('',#969);
#849=PLANE('',#970);
#850=PLANE('',#971);
#851=PLANE('',#972);
#852=PLANE('',#973);
#853=PLANE('',#974);
#854=PLANE('',#975);
#855=PLANE('',#976);
#856=PLANE('',#977);
#857=PLANE('',#985);
#858=PLANE('',#986);
#859=PLANE('',#987);
#860=PLANE('',#988);
#861=ADVANCED_FACE('',(#43),#830,.T.);
#862=ADVANCED_FACE('',(#44),#831,.T.);
#863=ADVANCED_FACE('',(#45),#832,.T.);
#864=ADVANCED_FACE('',(#46),#22,.T.);
#865=ADVANCED_FACE('',(#47),#833,.T.);
#866=ADVANCED_FACE('',(#48),#834,.T.);
#867=ADVANCED_FACE('',(#49),#835,.T.);
#868=ADVANCED_FACE('',(#50),#836,.F.);
#869=ADVANCED_FACE('',(#51),#837,.F.);
#870=ADVANCED_FACE('',(#52),#838,.F.);
#871=ADVANCED_FACE('',(#53),#839,.F.);
#872=ADVANCED_FACE('',(#54,#20),#840,.F.);
#873=ADVANCED_FACE('',(#55),#841,.F.);
#874=ADVANCED_FACE('',(#56),#842,.F.);
#875=ADVANCED_FACE('',(#57),#23,.T.);
#876=ADVANCED_FACE('',(#58),#24,.T.);
#877=ADVANCED_FACE('',(#59),#17,.T.);
#878=ADVANCED_FACE('',(#60,#21),#843,.T.);
#879=ADVANCED_FACE('',(#61),#25,.T.);
#880=ADVANCED_FACE('',(#62),#844,.T.);
#881=ADVANCED_FACE('',(#63),#26,.T.);
#882=ADVANCED_FACE('',(#64),#27,.T.);
#883=ADVANCED_FACE('',(#65),#18,.T.);
#884=ADVANCED_FACE('',(#66),#28,.T.);
#885=ADVANCED_FACE('',(#67),#19,.T.);
#886=ADVANCED_FACE('',(#68),#845,.T.);
#887=ADVANCED_FACE('',(#69),#29,.T.);
#888=ADVANCED_FACE('',(#70),#846,.T.);
#889=ADVANCED_FACE('',(#71),#15,.T.);
#890=ADVANCED_FACE('',(#72),#30,.T.);
#891=ADVANCED_FACE('',(#73),#31,.T.);
#892=ADVANCED_FACE('',(#74),#847,.F.);
#893=ADVANCED_FACE('',(#75),#848,.T.);
#894=ADVANCED_FACE('',(#76),#849,.F.);
#895=ADVANCED_FACE('',(#77),#850,.F.);
#896=ADVANCED_FACE('',(#78),#851,.F.);
#897=ADVANCED_FACE('',(#79),#852,.F.);
#898=ADVANCED_FACE('',(#80),#853,.F.);
#899=ADVANCED_FACE('',(#81),#854,.F.);
#900=ADVANCED_FACE('',(#82),#855,.F.);
#901=ADVANCED_FACE('',(#83),#856,.F.);
#902=ADVANCED_FACE('',(#84),#32,.T.);
#903=ADVANCED_FACE('',(#85),#33,.T.);
#904=ADVANCED_FACE('',(#86),#34,.T.);
#905=ADVANCED_FACE('',(#87),#35,.T.);
#906=ADVANCED_FACE('',(#88),#857,.T.);
#907=ADVANCED_FACE('',(#89),#858,.T.);
#908=ADVANCED_FACE('',(#90),#859,.T.);
#909=ADVANCED_FACE('',(#91),#860,.T.);
#910=ADVANCED_FACE('',(#92),#36,.F.);
#911=CLOSED_SHELL('',(#861,#862,#863,#864,#865,#866,#867,#868,#869,#870,
#871,#872,#873,#874,#875,#876,#877,#878,#879,#880,#881,#882,#883,#884,#885,
#886,#887,#888,#889,#890,#891,#892,#893,#894,#895,#896,#897,#898,#899,#900,
#901,#902,#903,#904,#905,#906,#907,#908,#909,#910));
#912=AXIS2_PLACEMENT_3D('',#1246,#990,#991);
#913=AXIS2_PLACEMENT_3D('',#1247,#992,#993);
#914=AXIS2_PLACEMENT_3D('',#1252,#995,#996);
#915=AXIS2_PLACEMENT_3D('',#1292,#1016,#1017);
#916=AXIS2_PLACEMENT_3D('',#1294,#1019,#1020);
#917=AXIS2_PLACEMENT_3D('',#1298,#1022,#1023);
#918=AXIS2_PLACEMENT_3D('',#1302,#1025,#1026);
#919=AXIS2_PLACEMENT_3D('',#1304,#1028,#1029);
#920=AXIS2_PLACEMENT_3D('',#1308,#1032,#1033);
#921=AXIS2_PLACEMENT_3D('',#1311,#1035,#1036);
#922=AXIS2_PLACEMENT_3D('',#1312,#1037,#1038);
#923=AXIS2_PLACEMENT_3D('',#1324,#1044,#1045);
#924=AXIS2_PLACEMENT_3D('',#1326,#1047,#1048);
#925=AXIS2_PLACEMENT_3D('',#1330,#1051,#1052);
#926=AXIS2_PLACEMENT_3D('',#1334,#1055,#1056);
#927=AXIS2_PLACEMENT_3D('',#1338,#1059,#1060);
#928=AXIS2_PLACEMENT_3D('',#1347,#1065,#1066);
#929=AXIS2_PLACEMENT_3D('',#1353,#1070,#1071);
#930=AXIS2_PLACEMENT_3D('',#1357,#1074,#1075);
#931=AXIS2_PLACEMENT_3D('',#1376,#1085,#1086);
#932=AXIS2_PLACEMENT_3D('',#1379,#1088,#1089);
#933=AXIS2_PLACEMENT_3D('',#1380,#1090,#1091);
#934=AXIS2_PLACEMENT_3D('',#1386,#1095,#1096);
#935=AXIS2_PLACEMENT_3D('',#1390,#1099,#1100);
#936=AXIS2_PLACEMENT_3D('',#1393,#1102,#1103);
#937=AXIS2_PLACEMENT_3D('',#1394,#1104,#1105);
#938=AXIS2_PLACEMENT_3D('',#1396,#1106,#1107);
#939=AXIS2_PLACEMENT_3D('',#1398,#1109,#1110);
#940=AXIS2_PLACEMENT_3D('',#1399,#1111,#1112);
#941=AXIS2_PLACEMENT_3D('',#1400,#1113,#1114);
#942=AXIS2_PLACEMENT_3D('',#1409,#1118,#1119);
#943=AXIS2_PLACEMENT_3D('',#1419,#1125,#1126);
#944=AXIS2_PLACEMENT_3D('',#1420,#1127,#1128);
#945=AXIS2_PLACEMENT_3D('',#1423,#1130,#1131);
#946=AXIS2_PLACEMENT_3D('',#1424,#1132,#1133);
#947=AXIS2_PLACEMENT_3D('',#1426,#1135,#1136);
#948=AXIS2_PLACEMENT_3D('',#1428,#1137,#1138);
#949=AXIS2_PLACEMENT_3D('',#1430,#1140,#1141);
#950=AXIS2_PLACEMENT_3D('',#1431,#1142,#1143);
#951=AXIS2_PLACEMENT_3D('',#1435,#1145,#1146);
#952=AXIS2_PLACEMENT_3D('',#1437,#1148,#1149);
#953=AXIS2_PLACEMENT_3D('',#1438,#1150,#1151);
#954=AXIS2_PLACEMENT_3D('',#1440,#1153,#1154);
#955=AXIS2_PLACEMENT_3D('',#1441,#1155,#1156);
#956=AXIS2_PLACEMENT_3D('',#1442,#1157,#1158);
#957=AXIS2_PLACEMENT_3D('',#1443,#1159,#1160);
#958=AXIS2_PLACEMENT_3D('',#1444,#1161,#1162);
#959=AXIS2_PLACEMENT_3D('',#1455,#1164,#1165);
#960=AXIS2_PLACEMENT_3D('',#1456,#1166,#1167);
#961=AXIS2_PLACEMENT_3D('',#1457,#1168,#1169);
#962=AXIS2_PLACEMENT_3D('',#1459,#1170,#1171);
#963=AXIS2_PLACEMENT_3D('',#1460,#1172,#1173);
#964=AXIS2_PLACEMENT_3D('',#1461,#1174,#1175);
#965=AXIS2_PLACEMENT_3D('',#1462,#1176,#1177);
#966=AXIS2_PLACEMENT_3D('',#1464,#1179,#1180);
#967=AXIS2_PLACEMENT_3D('',#1465,#1181,#1182);
#968=AXIS2_PLACEMENT_3D('',#1466,#1183,#1184);
#969=AXIS2_PLACEMENT_3D('',#1472,#1188,#1189);
#970=AXIS2_PLACEMENT_3D('',#1477,#1193,#1194);
#971=AXIS2_PLACEMENT_3D('',#1479,#1196,#1197);
#972=AXIS2_PLACEMENT_3D('',#1481,#1199,#1200);
#973=AXIS2_PLACEMENT_3D('',#1483,#1202,#1203);
#974=AXIS2_PLACEMENT_3D('',#1485,#1205,#1206);
#975=AXIS2_PLACEMENT_3D('',#1487,#1208,#1209);
#976=AXIS2_PLACEMENT_3D('',#1489,#1211,#1212);
#977=AXIS2_PLACEMENT_3D('',#1491,#1214,#1215);
#978=AXIS2_PLACEMENT_3D('',#1492,#1216,#1217);
#979=AXIS2_PLACEMENT_3D('',#1495,#1219,#1220);
#980=AXIS2_PLACEMENT_3D('',#1496,#1221,#1222);
#981=AXIS2_PLACEMENT_3D('',#1499,#1224,#1225);
#982=AXIS2_PLACEMENT_3D('',#1500,#1226,#1227);
#983=AXIS2_PLACEMENT_3D('',#1502,#1229,#1230);
#984=AXIS2_PLACEMENT_3D('',#1503,#1231,#1232);
#985=AXIS2_PLACEMENT_3D('',#1504,#1233,#1234);
#986=AXIS2_PLACEMENT_3D('',#1506,#1236,#1237);
#987=AXIS2_PLACEMENT_3D('',#1508,#1239,#1240);
#988=AXIS2_PLACEMENT_3D('',#1509,#1241,#1242);
#989=AXIS2_PLACEMENT_3D('',#1510,#1243,#1244);
#990=DIRECTION('axis',(0.,0.,1.));
#991=DIRECTION('refdir',(1.,0.,0.));
#992=DIRECTION('center_axis',(-9.80796560715975E-18,0.034899496702501,-0.999390827019096));
#993=DIRECTION('ref_axis',(-1.,0.,9.81394399667863E-18));
#994=DIRECTION('',(0.,0.999390827019096,0.034899496702501));
#995=DIRECTION('center_axis',(0.,0.034899496702501,-0.999390827019096));
#996=DIRECTION('ref_axis',(-0.817598384971999,0.575438165378041,0.0200947435299208));
#997=DIRECTION('',(0.941528182858439,0.336728986983355,0.0117588353356354));
#998=DIRECTION('',(1.,3.42293063365315E-19,-9.80199085951423E-18));
#999=DIRECTION('',(0.931276284716914,0.364091782989838,0.0127143652276276));
#1000=DIRECTION('',(1.,3.42293063365315E-19,-9.80199085951423E-18));
#1001=DIRECTION('',(0.931276284716914,0.364091782989839,0.0127143652276276));
#1002=DIRECTION('',(1.,3.42293063365315E-19,-9.80199085951423E-18));
#1003=DIRECTION('',(0.,-0.999390827019096,-0.034899496702501));
#1004=DIRECTION('',(-1.,-3.42293063365315E-19,9.80199085951423E-18));
#1005=DIRECTION('',(-0.931276325911388,-0.364091677750668,-0.0127143615525947));
#1006=DIRECTION('',(-1.,-3.42293063365315E-19,9.80199085951423E-18));
#1007=DIRECTION('',(-0.931276325911388,-0.364091677750667,-0.0127143615525947));
#1008=DIRECTION('',(-1.,-3.42293063365315E-19,9.80199085951423E-18));
#1009=DIRECTION('',(-0.941463252126033,-0.336910263680595,-0.011765165657394));
#1010=DIRECTION('',(0.000589523895608106,-0.999390653355724,-0.0348994906380424));
#1011=DIRECTION('',(0.999999826230773,0.000589164773579304,2.05740872508108E-5));
#1012=DIRECTION('',(0.,-0.999390827019096,-0.034899496702501));
#1013=DIRECTION('',(1.,3.42293063365315E-19,-9.80199085951423E-18));
#1014=DIRECTION('',(0.,-0.999390827019096,-0.034899496702501));
#1015=DIRECTION('',(-1.,0.,0.));
#1016=DIRECTION('center_axis',(0.,0.034899496702501,-0.999390827019096));
#1017=DIRECTION('ref_axis',(-0.70710678118656,-0.706676030840822,-0.0246776707783355));
#1018=DIRECTION('',(0.,0.999390827019096,0.034899496702501));
#1019=DIRECTION('center_axis',(0.,0.999390827019096,0.034899496702501));
#1020=DIRECTION('ref_axis',(-1.,0.,0.));
#1021=DIRECTION('',(0.,-0.034899496702501,0.999390827019096));
#1022=DIRECTION('center_axis',(0.,-0.999390827019096,-0.034899496702501));
#1023=DIRECTION('ref_axis',(-1.,8.15933108274898E-19,-2.33652671504766E-17));
#1024=DIRECTION('',(-1.,0.,0.));
#1025=DIRECTION('center_axis',(0.,-0.999390827019096,-0.034899496702501));
#1026=DIRECTION('ref_axis',(-1.,0.,0.));
#1027=DIRECTION('',(0.,-0.034899496702501,0.999390827019096));
#1028=DIRECTION('center_axis',(-0.336934238217618,0.940954629328681,0.0328588597129798));
#1029=DIRECTION('ref_axis',(-0.941528182858438,-0.336728986983355,-0.0117588353356355));
#1030=DIRECTION('',(0.,0.034899496702501,-0.999390827019096));
#1031=DIRECTION('',(-0.941528182858439,-0.336728986983355,-0.0117588353356355));
#1032=DIRECTION('center_axis',(0.,-0.034899496702501,0.999390827019096));
#1033=DIRECTION('ref_axis',(-0.817598384971999,0.575438165378041,0.0200947435299208));
#1034=DIRECTION('',(0.,-0.034899496702501,0.999390827019096));
#1035=DIRECTION('center_axis',(0.,0.034899496702501,-0.999390827019096));
#1036=DIRECTION('ref_axis',(-1.,0.,0.));
#1037=DIRECTION('center_axis',(1.,0.,0.));
#1038=DIRECTION('ref_axis',(0.,0.999390827019096,0.034899496702501));
#1039=DIRECTION('',(0.,0.034899496702501,-0.999390827019096));
#1040=DIRECTION('',(0.,-0.999390827019096,-0.034899496702501));
#1041=DIRECTION('',(0.,0.034899496702501,-0.999390827019096));
#1042=DIRECTION('',(0.,0.999390827019096,0.034899496702501));
#1043=DIRECTION('',(0.,0.681998360062498,0.731353701619171));
#1044=DIRECTION('center_axis',(-1.,0.,0.));
#1045=DIRECTION('ref_axis',(0.,-0.936672189248398,0.350207381259467));
#1046=DIRECTION('',(0.,-0.034899496702501,0.999390827019096));
#1047=DIRECTION('center_axis',(0.,0.999390827019096,0.034899496702501));
#1048=DIRECTION('ref_axis',(0.,-0.034899496702501,0.999390827019096));
#1049=DIRECTION('',(0.,-0.034899496702501,0.999390827019096));
#1050=DIRECTION('',(1.,0.,0.));
#1051=DIRECTION('center_axis',(1.,0.,0.));
#1052=DIRECTION('ref_axis',(0.,0.034899496702501,-0.999390827019096));
#1053=DIRECTION('',(0.,-0.034899496702501,0.999390827019096));
#1054=DIRECTION('',(0.,0.999390827019096,0.034899496702501));
#1055=DIRECTION('center_axis',(0.000589523895608106,-0.999390653355725,
-0.0348994906380424));
#1056=DIRECTION('ref_axis',(0.,0.034899496702501,-0.999390827019096));
#1057=DIRECTION('',(0.,0.034899496702501,-0.999390827019096));
#1058=DIRECTION('',(-0.999999826230773,-0.000589164773581536,-2.05740872508986E-5));
#1059=DIRECTION('center_axis',(0.,-0.034899496702501,0.999390827019096));
#1060=DIRECTION('ref_axis',(0.,0.999390827019096,0.034899496702501));
#1061=DIRECTION('',(0.,0.999390827019096,0.034899496702501));
#1062=DIRECTION('',(1.,0.,0.));
#1063=DIRECTION('',(0.,0.999390827019096,0.034899496702501));
#1064=DIRECTION('',(-1.,0.,0.));
#1065=DIRECTION('center_axis',(0.,0.999390827019096,0.034899496702501));
#1066=DIRECTION('ref_axis',(0.,0.034899496702501,-0.999390827019096));
#1067=DIRECTION('',(0.,0.034899496702501,-0.999390827019096));
#1068=DIRECTION('',(0.,0.034899496702501,-0.999390827019096));
#1069=DIRECTION('',(-1.,0.,0.));
#1070=DIRECTION('center_axis',(-1.,0.,0.));
#1071=DIRECTION('ref_axis',(0.,-0.034899496702501,0.999390827019096));
#1072=DIRECTION('',(0.,-0.034899496702501,0.999390827019096));
#1073=DIRECTION('',(0.,-0.999390827019096,-0.034899496702501));
#1074=DIRECTION('center_axis',(0.,-0.034899496702501,0.999390827019096));
#1075=DIRECTION('ref_axis',(1.,0.,0.));
#1076=DIRECTION('',(0.000589523895608106,-0.999390653355724,-0.0348994906380424));
#1077=DIRECTION('',(-0.941463252126033,-0.336910263680595,-0.011765165657394));
#1078=DIRECTION('',(-1.,0.,0.));
#1079=DIRECTION('',(-0.931276325911388,-0.364091677750667,-0.0127143615525947));
#1080=DIRECTION('',(-1.,0.,0.));
#1081=DIRECTION('',(-0.931276325911388,-0.364091677750668,-0.0127143615525948));
#1082=DIRECTION('',(-1.,0.,0.));
#1083=DIRECTION('',(0.,0.999390827019096,0.034899496702501));
#1084=DIRECTION('',(-1.,0.,0.));
#1085=DIRECTION('center_axis',(0.,-0.034899496702501,0.999390827019096));
#1086=DIRECTION('ref_axis',(0.707106781186543,0.706676030840839,0.0246776707783361));
#1087=DIRECTION('',(1.,0.,0.));
#1088=DIRECTION('center_axis',(0.,0.034899496702501,-0.999390827019096));
#1089=DIRECTION('ref_axis',(1.,0.,0.));
#1090=DIRECTION('center_axis',(0.,-0.034899496702501,0.999390827019096));
#1091=DIRECTION('ref_axis',(0.,0.999390827019096,0.034899496702501));
#1092=DIRECTION('',(0.,0.999390827019096,0.034899496702501));
#1093=DIRECTION('',(1.,0.,0.));
#1094=DIRECTION('',(-1.,0.,0.));
#1095=DIRECTION('center_axis',(0.,0.999390827019096,0.034899496702501));
#1096=DIRECTION('ref_axis',(0.,-0.034899496702501,0.999390827019096));
#1097=DIRECTION('',(1.,0.,0.));
#1098=DIRECTION('',(0.,-0.034899496702501,0.999390827019096));
#1099=DIRECTION('center_axis',(1.,0.,0.));
#1100=DIRECTION('ref_axis',(0.,-0.936672189248398,0.350207381259467));
#1101=DIRECTION('',(-1.,0.,0.));
#1102=DIRECTION('center_axis',(-1.,0.,0.));
#1103=DIRECTION('ref_axis',(0.,-0.936672189248397,0.350207381259469));
#1104=DIRECTION('center_axis',(-0.941528182858439,-0.336728986983355,-0.0117588353356355));
#1105=DIRECTION('ref_axis',(-0.238248484657635,0.640677728408837,0.72991075336594));
#1106=DIRECTION('center_axis',(0.941528182858435,0.336728986983365,0.0117588353356358));
#1107=DIRECTION('ref_axis',(-0.336934238217629,0.940954629328678,0.0328588597129797));
#1108=DIRECTION('',(0.941528182858438,0.336728986983355,0.0117588353356355));
#1109=DIRECTION('center_axis',(-0.426558128807529,0.329991419908823,-0.842112715457247));
#1110=DIRECTION('ref_axis',(-0.697506474419436,0.472707858862431,0.538546189581418));
#1111=DIRECTION('center_axis',(0.,0.999390827019096,0.034899496702501));
#1112=DIRECTION('ref_axis',(-0.707106781186549,-0.0246776707783359,0.706676030840833));
#1113=DIRECTION('center_axis',(0.,-0.034899496702501,0.999390827019096));
#1114=DIRECTION('ref_axis',(1.,0.,0.));
#1115=DIRECTION('',(0.,0.999390827019096,0.034899496702501));
#1116=DIRECTION('',(-1.,0.,0.));
#1117=DIRECTION('',(0.,-0.999390827019096,-0.034899496702501));
#1118=DIRECTION('center_axis',(0.,0.034899496702501,-0.999390827019096));
#1119=DIRECTION('ref_axis',(0.707106781186547,0.706676030840834,0.024677670778336));
#1120=DIRECTION('',(1.,0.,0.));
#1121=DIRECTION('',(0.931276284716914,0.364091782989839,0.0127143652276276));
#1122=DIRECTION('',(1.,0.,0.));
#1123=DIRECTION('',(0.931276284716914,0.364091782989838,0.0127143652276276));
#1124=DIRECTION('',(0.,0.999390827019096,0.034899496702501));
#1125=DIRECTION('center_axis',(0.,0.034899496702501,-0.999390827019096));
#1126=DIRECTION('ref_axis',(1.,0.,0.));
#1127=DIRECTION('center_axis',(0.,-0.999390827019096,-0.034899496702501));
#1128=DIRECTION('ref_axis',(-0.707106781186552,-0.0246776707783358,0.70667603084083));
#1129=DIRECTION('',(0.,-0.999390827019096,-0.034899496702501));
#1130=DIRECTION('center_axis',(0.,-0.999390827019096,-0.034899496702501));
#1131=DIRECTION('ref_axis',(-0.707106781186553,-0.0246776707783358,0.706676030840829));
#1132=DIRECTION('center_axis',(-1.,0.,0.));
#1133=DIRECTION('ref_axis',(0.,0.034899496702501,-0.999390827019096));
#1134=DIRECTION('',(0.,0.034899496702501,-0.999390827019096));
#1135=DIRECTION('center_axis',(0.,-0.034899496702501,0.999390827019096));
#1136=DIRECTION('ref_axis',(-0.70710678118656,-0.706676030840822,-0.0246776707783355));
#1137=DIRECTION('center_axis',(0.,0.034899496702501,-0.999390827019096));
#1138=DIRECTION('ref_axis',(0.,-0.999390827019096,-0.034899496702501));
#1139=DIRECTION('',(0.,0.034899496702501,-0.999390827019096));
#1140=DIRECTION('center_axis',(0.,0.681998360062498,0.731353701619171));
#1141=DIRECTION('ref_axis',(-0.707106781186553,-0.517145161860794,0.482245665158294));
#1142=DIRECTION('center_axis',(0.,0.681998360062498,0.731353701619171));
#1143=DIRECTION('ref_axis',(-1.,0.,0.));
#1144=DIRECTION('',(0.,0.681998360062498,0.731353701619171));
#1145=DIRECTION('center_axis',(0.,-0.6819983600625,-0.731353701619169));
#1146=DIRECTION('ref_axis',(0.,-0.731353701619169,0.6819983600625));
#1147=DIRECTION('',(0.,-0.681998360062498,-0.731353701619171));
#1148=DIRECTION('center_axis',(0.,-0.0348994967025078,0.999390827019096));
#1149=DIRECTION('ref_axis',(1.,0.,0.));
#1150=DIRECTION('center_axis',(0.,0.999390827019096,0.034899496702501));
#1151=DIRECTION('ref_axis',(-0.707106781186553,-0.0246776707783358,0.706676030840829));
#1152=DIRECTION('',(0.,-0.999390827019096,-0.034899496702501));
#1153=DIRECTION('center_axis',(0.,0.999390827019096,0.034899496702501));
#1154=DIRECTION('ref_axis',(-1.,0.,0.));
#1155=DIRECTION('center_axis',(0.170112439679116,-0.930954724590379,-0.323086766410002));
#1156=DIRECTION('ref_axis',(-0.475963149477966,-0.364708285570745,0.800279292981558));
#1157=DIRECTION('center_axis',(-1.,0.,0.));
#1158=DIRECTION('ref_axis',(0.,-0.414693242656246,0.90996127087654));
#1159=DIRECTION('center_axis',(-1.,0.,0.));
#1160=DIRECTION('ref_axis',(0.,-0.034899496702501,0.999390827019096));
#1161=DIRECTION('center_axis',(-1.,0.,0.));
#1162=DIRECTION('ref_axis',(0.,-0.414693242656239,0.909961270876543));
#1163=DIRECTION('',(-1.,0.,0.));
#1164=DIRECTION('center_axis',(0.,-0.731353701619171,0.681998360062498));
#1165=DIRECTION('ref_axis',(1.,0.,0.));
#1166=DIRECTION('center_axis',(0.,0.731353701619171,-0.681998360062498));
#1167=DIRECTION('ref_axis',(4.9065389333868E-17,0.681998360062498,0.731353701619171));
#1168=DIRECTION('center_axis',(0.,-0.034899496702501,0.999390827019096));
#1169=DIRECTION('ref_axis',(1.,0.,0.));
#1170=DIRECTION('center_axis',(1.,0.,0.));
#1171=DIRECTION('ref_axis',(0.,0.999390827019096,0.034899496702501));
#1172=DIRECTION('center_axis',(0.,0.999390827019096,0.034899496702501));
#1173=DIRECTION('ref_axis',(0.,-0.034899496702501,0.999390827019096));
#1174=DIRECTION('center_axis',(0.,-0.034899496702501,0.999390827019096));
#1175=DIRECTION('ref_axis',(0.707106781186548,0.706676030840835,0.024677670778336));
#1176=DIRECTION('center_axis',(0.,-0.034899496702501,0.999390827019096));
#1177=DIRECTION('ref_axis',(0.707106781186543,0.706676030840839,0.0246776707783361));
#1178=DIRECTION('',(0.,-0.034899496702501,0.999390827019096));
#1179=DIRECTION('center_axis',(0.,0.999390827019096,0.034899496702501));
#1180=DIRECTION('ref_axis',(0.707106781186526,-0.0246776707783368,0.706676030840857));
#1181=DIRECTION('center_axis',(0.,0.999390827019096,0.034899496702501));
#1182=DIRECTION('ref_axis',(0.707106781186526,-0.0246776707783368,0.706676030840857));
#1183=DIRECTION('center_axis',(-1.,0.,0.));
#1184=DIRECTION('ref_axis',(0.,-0.034899496702501,0.999390827019096));
#1185=DIRECTION('',(0.,0.999390827019096,0.034899496702501));
#1186=DIRECTION('',(0.,0.034899496702501,-0.999390827019096));
#1187=DIRECTION('',(0.,-0.034899496702501,0.999390827019096));
#1188=DIRECTION('center_axis',(0.,0.999390827019096,0.034899496702501));
#1189=DIRECTION('ref_axis',(-1.,0.,0.));
#1190=DIRECTION('',(0.,0.034899496702501,-0.999390827019096));
#1191=DIRECTION('',(0.,-0.034899496702501,0.999390827019096));
#1192=DIRECTION('',(-1.,0.,0.));
#1193=DIRECTION('center_axis',(-1.,0.,0.));
#1194=DIRECTION('ref_axis',(0.,-0.034899496702501,0.999390827019096));
#1195=DIRECTION('',(0.,-0.034899496702501,0.999390827019096));
#1196=DIRECTION('center_axis',(0.,0.999390827019096,0.034899496702501));
#1197=DIRECTION('ref_axis',(-1.,0.,0.));
#1198=DIRECTION('',(0.,-0.034899496702501,0.999390827019096));
#1199=DIRECTION('center_axis',(-0.999999826230773,-0.000589164773579304,
-2.05740872508206E-5));
#1200=DIRECTION('ref_axis',(0.,0.034899496702501,-0.999390827019096));
#1201=DIRECTION('',(0.,-0.034899496702501,0.999390827019096));
#1202=DIRECTION('center_axis',(-0.337115625411036,0.940889738150324,0.0328565936630983));
#1203=DIRECTION('ref_axis',(-0.941463252126033,-0.336910263680595,-0.011765165657394));
#1204=DIRECTION('',(0.,-0.034899496702501,0.999390827019096));
#1205=DIRECTION('center_axis',(0.,0.999390827019096,0.034899496702501));
#1206=DIRECTION('ref_axis',(-1.,0.,0.));
#1207=DIRECTION('',(0.,-0.034899496702501,0.999390827019096));
#1208=DIRECTION('center_axis',(-0.364313607757089,0.930709017535887,0.0325010750652617));
#1209=DIRECTION('ref_axis',(-0.931276325911388,-0.364091677750667,-0.0127143615525947));
#1210=DIRECTION('',(0.,-0.034899496702501,0.999390827019096));
#1211=DIRECTION('center_axis',(0.,0.999390827019096,0.034899496702501));
#1212=DIRECTION('ref_axis',(-1.,0.,0.));
#1213=DIRECTION('',(0.,-0.034899496702501,0.999390827019096));
#1214=DIRECTION('center_axis',(-0.364313607757089,0.930709017535887,0.0325010750652617));
#1215=DIRECTION('ref_axis',(-0.931276325911388,-0.364091677750668,-0.0127143615525948));
#1216=DIRECTION('center_axis',(-0.931276284716914,-0.364091782989838,-0.0127143652276276));
#1217=DIRECTION('ref_axis',(-0.257608696984238,0.633432957721615,0.729657760398757));
#1218=DIRECTION('',(-0.931276284716914,-0.364091782989838,-0.0127143652276276));
#1219=DIRECTION('center_axis',(-0.982668887448096,-0.1852565943831,-0.00646930282927843));
#1220=DIRECTION('ref_axis',(-0.185369516484025,0.982070272112687,0.0342946495971451));
#1221=DIRECTION('center_axis',(-1.,0.,0.));
#1222=DIRECTION('ref_axis',(0.,0.681998360062502,0.731353701619167));
#1223=DIRECTION('',(-1.,0.,0.));
#1224=DIRECTION('center_axis',(-0.982668887448096,-0.1852565943831,-0.00646930282927843));
#1225=DIRECTION('ref_axis',(0.185369516484025,-0.982070272112687,-0.0342946495971451));
#1226=DIRECTION('center_axis',(-0.931276284716914,-0.364091782989839,-0.0127143652276276));
#1227=DIRECTION('ref_axis',(-0.257608696984238,0.633432957721615,0.729657760398757));
#1228=DIRECTION('',(-0.931276284716914,-0.364091782989839,-0.0127143652276276));
#1229=DIRECTION('center_axis',(-0.982668887448096,-0.1852565943831,-0.00646930282927843));
#1230=DIRECTION('ref_axis',(-0.185369516484025,0.982070272112687,0.0342946495971451));
#1231=DIRECTION('center_axis',(-1.,0.,0.));
#1232=DIRECTION('ref_axis',(0.,0.681998360062502,0.731353701619167));
#1233=DIRECTION('center_axis',(-0.364313713060407,0.930708976366508,0.0325010736275953));
#1234=DIRECTION('ref_axis',(-0.931276284716914,-0.364091782989838,-0.0127143652276276));
#1235=DIRECTION('',(0.,-0.034899496702501,0.999390827019096));
#1236=DIRECTION('center_axis',(0.,0.999390827019096,0.034899496702501));
#1237=DIRECTION('ref_axis',(-1.,0.,0.));
#1238=DIRECTION('',(0.,-0.034899496702501,0.999390827019096));
#1239=DIRECTION('center_axis',(-0.364313713060408,0.930708976366508,0.0325010736275953));
#1240=DIRECTION('ref_axis',(-0.931276284716914,-0.364091782989839,-0.0127143652276276));
#1241=DIRECTION('center_axis',(0.,-0.999390827019096,-0.034899496702501));
#1242=DIRECTION('ref_axis',(1.,0.,0.));
#1243=DIRECTION('center_axis',(0.,-0.034899496702501,0.999390827019096));
#1244=DIRECTION('ref_axis',(1.,0.,0.));
#1245=DIRECTION('',(0.,0.034899496702501,-0.999390827019096));
#1246=CARTESIAN_POINT('',(0.,0.,0.));
#1247=CARTESIAN_POINT('Origin',(302.500004507601,-182.920866413067,-2.44959403164717));
#1248=CARTESIAN_POINT('',(242.242478124847,-137.134643556543,-0.850703897376685));
#1249=CARTESIAN_POINT('',(242.242803266549,-134.840286268806,-0.770583175399937));
#1250=CARTESIAN_POINT('',(242.242803266549,-158.575542999636,-1.59943660452468));
#1251=CARTESIAN_POINT('',(242.905869028332,-133.899331639478,-0.737724315686954));
#1252=CARTESIAN_POINT('Origin',(243.242803266549,-134.840286268806,-0.770583175399937));
#1253=CARTESIAN_POINT('',(260.,-127.785771248778,-0.524234082509457));
#1254=CARTESIAN_POINT('',(270.086933801689,-124.17827116259,-0.398257403558206));
#1255=CARTESIAN_POINT('',(313.377409146758,-127.785771248778,-0.524234082509457));
#1256=CARTESIAN_POINT('',(307.938706827179,-127.785771248778,-0.524234082509457));
#1257=CARTESIAN_POINT('',(333.156366098336,-120.052990096332,-0.254199414354737));
#1258=CARTESIAN_POINT('',(309.191306009742,-129.422370161419,-0.581385375888216));
#1259=CARTESIAN_POINT('',(370.,-120.052990096332,-0.254199414354738));
#1260=CARTESIAN_POINT('',(336.250002253801,-120.052990096332,-0.254199414354737));
#1261=CARTESIAN_POINT('',(395.562478124847,-110.05908346427,0.0947954954655378));
#1262=CARTESIAN_POINT('',(342.839388126524,-130.671703110284,-0.625013043813999));
#1263=CARTESIAN_POINT('',(402.500006020069,-110.05908346427,0.0947954954655375));
#1264=CARTESIAN_POINT('',(382.750005703419,-110.05908346427,0.0947954954655381));
#1265=CARTESIAN_POINT('',(402.500006020069,-111.857986952904,0.031976401401036));
#1266=CARTESIAN_POINT('',(402.500006020069,-146.489974938669,-1.17739926809082));
#1267=CARTESIAN_POINT('',(395.902068590155,-111.857986952904,0.0319764014010365));
#1268=CARTESIAN_POINT('',(353.250005263835,-111.857986952904,0.0319764014010367));
#1269=CARTESIAN_POINT('',(370.339567376001,-121.851899281188,-0.317018707335698));
#1270=CARTESIAN_POINT('',(343.337067762223,-132.408793206545,-0.685673566651905));
#1271=CARTESIAN_POINT('',(333.495815626017,-121.851899281188,-0.317018707335697));
#1272=CARTESIAN_POINT('',(336.419785941801,-121.851899281188,-0.317018707335697));
#1273=CARTESIAN_POINT('',(313.716912231761,-129.584656917688,-0.587052554295467));
#1274=CARTESIAN_POINT('',(309.688908769402,-131.159444655539,-0.642045353887384));
#1275=CARTESIAN_POINT('',(260.300230054385,-129.584656917688,-0.587052554295467));
#1276=CARTESIAN_POINT('',(308.108458369681,-129.584656917688,-0.587052554295467));
#1277=CARTESIAN_POINT('',(247.580206033348,-134.136620722195,-0.746010633047435));
#1278=CARTESIAN_POINT('',(270.533044689787,-125.922761172716,-0.459176337082486));
#1279=CARTESIAN_POINT('',(247.581090319191,-135.635706702229,-0.798359869004498));
#1280=CARTESIAN_POINT('',(247.594604078588,-158.544913492937,-1.59836699858159));
#1281=CARTESIAN_POINT('',(402.562478124847,-135.544397112106,-0.795171267855453));
#1282=CARTESIAN_POINT('',(275.026591511078,-135.619536776923,-0.797795202770212));
#1283=CARTESIAN_POINT('',(402.562478124847,-141.05780058736,-0.987703559729781));
#1284=CARTESIAN_POINT('',(402.562478124847,-162.738876620478,-1.74482341821535));
#1285=CARTESIAN_POINT('',(461.149871580065,-141.05780058736,-0.987703559729781));
#1286=CARTESIAN_POINT('',(382.749938043833,-141.05780058736,-0.987703559729781));
#1287=CARTESIAN_POINT('',(461.149871580065,-143.106551782749,-1.05924752796991));
#1288=CARTESIAN_POINT('',(461.149871580065,-219.445506398185,-3.72506256533653));
#1289=CARTESIAN_POINT('',(243.242478124847,-143.106551782749,-1.05924752796991));
#1290=CARTESIAN_POINT('',(272.381241316224,-143.106551782749,-1.05924752796991));
#1291=CARTESIAN_POINT('',(242.242478124847,-142.10716095573,-1.02434803126741));
#1292=CARTESIAN_POINT('Origin',(243.242478124847,-142.10716095573,-1.02434803126741));
#1293=CARTESIAN_POINT('',(242.242478124847,-158.575542999636,-1.59943660452468));
#1294=CARTESIAN_POINT('Origin',(313.377409146758,-127.722952154714,-2.32313757114383));
#1295=CARTESIAN_POINT('',(260.,-128.030067725696,6.47150170662421));
#1296=CARTESIAN_POINT('',(260.,-127.722952154714,-2.32313757114383));
#1297=CARTESIAN_POINT('',(262.967938210406,-128.064967222398,7.47089253364331));
#1298=CARTESIAN_POINT('Origin',(262.967938210406,-128.030067725696,6.47150170662421));
#1299=CARTESIAN_POINT('',(314.749852681204,-128.064967222398,7.47089253364331));
#1300=CARTESIAN_POINT('',(313.377409146758,-128.064967222398,7.47089253364331));
#1301=CARTESIAN_POINT('',(313.377409146758,-128.047517474047,6.97119712013376));
#1302=CARTESIAN_POINT('Origin',(314.749852681204,-128.047517474047,6.97119712013376));
#1303=CARTESIAN_POINT('',(313.377409146758,-127.722952154714,-2.32313757114383));
#1304=CARTESIAN_POINT('Origin',(260.,-127.722952154714,-2.32313757114383));
#1305=CARTESIAN_POINT('',(242.905869028332,-134.143628116395,6.25801147344672));
#1306=CARTESIAN_POINT('',(242.905869028332,-134.007520079255,2.36038724807224));
#1307=CARTESIAN_POINT('',(301.287839011183,-113.263847809942,6.9871494685667));
#1308=CARTESIAN_POINT('Origin',(243.242803266549,-134.948474708584,2.32752838835926));
#1309=CARTESIAN_POINT('',(242.242803266549,-135.084582745724,6.22515261373373));
#1310=CARTESIAN_POINT('',(242.242803266549,-134.948474708584,2.32752838835926));
#1311=CARTESIAN_POINT('Origin',(243.242803266549,-135.084582745724,6.22515261373373));
#1312=CARTESIAN_POINT('Origin',(461.149871580065,-255.907327289238,-6.79943458766026));
#1313=CARTESIAN_POINT('',(461.149871580065,-141.267197567575,5.00864140238479));
#1314=CARTESIAN_POINT('',(461.149871580065,-141.166861514555,2.13539277470489));
#1315=CARTESIAN_POINT('',(461.149871580065,-134.3458680557,5.25033955484539));
#1316=CARTESIAN_POINT('',(461.149871580065,-191.348462744906,3.25976508527213));
#1317=CARTESIAN_POINT('',(461.149871580065,-134.398623247855,6.76105059936761));
#1318=CARTESIAN_POINT('',(461.149871580065,-134.136471075485,-0.746005407269181));
#1319=CARTESIAN_POINT('',(461.149871580065,-141.058480248981,6.52848326818329));
#1320=CARTESIAN_POINT('',(461.149871580065,-130.484380283152,6.8977389756727));
#1321=CARTESIAN_POINT('',(461.149871580065,-143.005536195348,4.44052139463181));
#1322=CARTESIAN_POINT('',(461.149871580065,-171.700108802614,-26.3306404169318));
#1323=CARTESIAN_POINT('',(461.149871580065,-143.273573320748,3.7236235378668));
#1324=CARTESIAN_POINT('Origin',(461.149871580065,-142.274182493729,3.7585230345693));
#1325=CARTESIAN_POINT('',(461.149871580065,-143.075142235717,-1.95869927228709));
#1326=CARTESIAN_POINT('Origin',(462.999871580065,-141.338741535815,7.05739259777394));
#1327=CARTESIAN_POINT('',(402.562478124847,-141.267197567575,5.00864140238479));
#1328=CARTESIAN_POINT('',(402.562478124847,-141.338741535815,7.05739259777394));
#1329=CARTESIAN_POINT('',(407.810638331479,-141.267197567575,5.00864140238479));
#1330=CARTESIAN_POINT('Origin',(402.562478124847,-142.837827776344,7.00504335272019));
#1331=CARTESIAN_POINT('',(402.562478124847,-135.753794092321,5.20117369425914));
#1332=CARTESIAN_POINT('',(402.562478124847,-135.650840577049,2.25297075455279));
#1333=CARTESIAN_POINT('',(402.562478124847,-134.641832967199,5.24000423239331));
#1334=CARTESIAN_POINT('Origin',(247.581090319191,-135.567652683659,-2.74717198169174));
#1335=CARTESIAN_POINT('',(247.581090319191,-135.845103682444,5.19798509311008));
#1336=CARTESIAN_POINT('',(247.581090319191,-135.567652683659,-2.74717198169174));
#1337=CARTESIAN_POINT('',(404.000890305913,-135.752946630387,5.20120328828199));
#1338=CARTESIAN_POINT('Origin',(463.000006899238,-134.398217300754,6.74942579537404));
#1339=CARTESIAN_POINT('',(463.000006899238,-134.398217300754,6.74942579537404));
#1340=CARTESIAN_POINT('',(463.000006899238,-113.319002170596,7.48552820800125));
#1341=CARTESIAN_POINT('',(463.000006899238,-130.483974336051,6.88611417167913));
#1342=CARTESIAN_POINT('',(461.200006899238,-134.398217300754,6.74942579537404));
#1343=CARTESIAN_POINT('',(462.999939239652,-134.398217300754,6.74942579537404));
#1344=CARTESIAN_POINT('',(461.200006899238,-113.319002170596,7.48552820800125));
#1345=CARTESIAN_POINT('',(461.200006899238,-130.483974336051,6.88611417167913));
#1346=CARTESIAN_POINT('',(463.000006899238,-113.319002170596,7.48552820800125));
#1347=CARTESIAN_POINT('Origin',(463.000006899238,-113.319002170596,7.48552820800125));
#1348=CARTESIAN_POINT('',(463.000006899238,-113.266652925542,5.98644196747261));
#1349=CARTESIAN_POINT('',(463.000006899238,-113.057255945327,-0.00990299464196598));
#1350=CARTESIAN_POINT('',(461.200006899238,-113.266652925542,5.98644196747261));
#1351=CARTESIAN_POINT('',(461.200006899238,-113.057255945327,-0.00990299464196598));
#1352=CARTESIAN_POINT('',(407.810705991066,-113.266652925542,5.98644196747261));
#1353=CARTESIAN_POINT('Origin',(461.200006899238,-134.136471075485,-0.746005407269181));
#1354=CARTESIAN_POINT('',(461.200006899238,-134.3458680557,5.25033955484539));
#1355=CARTESIAN_POINT('',(461.200006899238,-134.136471075485,-0.746005407269181));
#1356=CARTESIAN_POINT('',(461.200006899238,-130.431625090997,5.38702793115049));
#1357=CARTESIAN_POINT('Origin',(352.621405082893,-126.517382126294,5.52371630745558));
#1358=CARTESIAN_POINT('',(247.580206033348,-134.34601770241,5.25033432906714));
#1359=CARTESIAN_POINT('',(247.580206033348,-134.34601770241,5.25033432906714));
#1360=CARTESIAN_POINT('',(260.300230054385,-129.794053897903,5.40929240781911));
#1361=CARTESIAN_POINT('',(260.300230054385,-129.794053897903,5.40929240781911));
#1362=CARTESIAN_POINT('',(313.716912231761,-129.794053897903,5.40929240781911));
#1363=CARTESIAN_POINT('',(313.716912231761,-129.794053897903,5.40929240781911));
#1364=CARTESIAN_POINT('',(333.495815626017,-122.061296261403,5.67932625477888));
#1365=CARTESIAN_POINT('',(333.495815626017,-122.061296261403,5.67932625477888));
#1366=CARTESIAN_POINT('',(370.339567376001,-122.061296261403,5.67932625477888));
#1367=CARTESIAN_POINT('',(370.339567376001,-122.061296261403,5.67932625477888));
#1368=CARTESIAN_POINT('',(395.902068590155,-112.067383933119,6.02832136351561));
#1369=CARTESIAN_POINT('',(395.902068590155,-112.067383933119,6.02832136351561));
#1370=CARTESIAN_POINT('',(402.499928124847,-112.067383933119,6.02832136351561));
#1371=CARTESIAN_POINT('',(404.000006020069,-112.067383933119,6.02832136351561));
#1372=CARTESIAN_POINT('',(402.499928124847,-110.268480444485,6.09114045758011));
#1373=CARTESIAN_POINT('',(402.499928124847,-134.641832967199,5.24000423239331));
#1374=CARTESIAN_POINT('',(460.000006899238,-110.268480444485,6.09114045758011));
#1375=CARTESIAN_POINT('',(432.781242512042,-110.268480444485,6.09114045758011));
#1376=CARTESIAN_POINT('Origin',(460.000006899238,-113.266652925542,5.98644196747261));
#1377=CARTESIAN_POINT('',(407.810638331479,-134.3458680557,5.25033955484539));
#1378=CARTESIAN_POINT('',(456.20002092429,-115.529027743477,5.90743809795158));
#1379=CARTESIAN_POINT('Origin',(457.25002171821,-115.529027743477,5.90743809795158));
#1380=CARTESIAN_POINT('Origin',(462.999871580065,-141.058480248981,6.52848326818329));
#1381=CARTESIAN_POINT('',(462.999871580065,-141.058480248981,6.52848326818329));
#1382=CARTESIAN_POINT('',(462.999871580065,-134.398623247855,6.76105059936761));
#1383=CARTESIAN_POINT('',(462.999871580065,-130.484380283152,6.8977389756727));
#1384=CARTESIAN_POINT('',(418.545906591968,-141.058480248981,6.52848326818329));
#1385=CARTESIAN_POINT('',(462.999871580065,-134.398623247855,6.76105059936761));
#1386=CARTESIAN_POINT('Origin',(395.562478124847,-143.106551782749,-1.05924752796991));
#1387=CARTESIAN_POINT('',(243.242478124847,-143.273573320748,3.7236235378668));
#1388=CARTESIAN_POINT('',(384.827209864358,-143.273573320748,3.7236235378668));
#1389=CARTESIAN_POINT('',(243.242478124847,-143.106551782749,-1.05924752796991));
#1390=CARTESIAN_POINT('Origin',(384.827209864358,-142.274182493729,3.7585230345693));
#1391=CARTESIAN_POINT('',(243.242478124847,-143.005536195348,4.4405213946318));
#1392=CARTESIAN_POINT('',(242.262478124847,-143.005536195348,4.4405213946318));
#1393=CARTESIAN_POINT('Origin',(243.242478124847,-142.274182493729,3.7585230345693));
#1394=CARTESIAN_POINT('Origin',(301.624773249401,-114.204802439271,6.95429060885372));
#1395=CARTESIAN_POINT('',(243.242803266549,-135.119482242426,7.22454344075283));
#1396=CARTESIAN_POINT('Origin',(243.242803266549,-135.084582745724,6.22515261373374));
#1397=CARTESIAN_POINT('',(301.624773249401,-114.239701935973,7.95368143587282));
#1398=CARTESIAN_POINT('Origin',(243.242803266549,-135.084582745724,6.22515261373373));
#1399=CARTESIAN_POINT('Origin',(243.242803266549,-135.084582745724,6.22515261373373));
#1400=CARTESIAN_POINT('Origin',(352.621405082893,-126.587181119699,7.52249796149377));
#1401=CARTESIAN_POINT('',(243.242478124847,-140.173492206053,7.04805352380403));
#1402=CARTESIAN_POINT('',(243.242478124847,-137.413839530163,7.14442271877608));
#1403=CARTESIAN_POINT('',(243.242478124847,-130.501424084402,7.38580958518868));
#1404=CARTESIAN_POINT('',(462.500006899238,-140.173492206053,7.04805352380403));
#1405=CARTESIAN_POINT('',(242.262478124847,-140.173492206053,7.04805352380403));
#1406=CARTESIAN_POINT('',(462.500006899238,-113.336451918947,7.9852236215108));
#1407=CARTESIAN_POINT('',(462.500006899238,-130.501424084402,7.38580958518868));
#1408=CARTESIAN_POINT('',(460.000006899238,-110.837974851399,8.07247236326705));
#1409=CARTESIAN_POINT('Origin',(460.000006899238,-113.336451918947,7.9852236215108));
#1410=CARTESIAN_POINT('',(395.65679754355,-110.837974851399,8.07247236326705));
#1411=CARTESIAN_POINT('',(407.810705991066,-110.837974851399,8.07247236326705));
#1412=CARTESIAN_POINT('',(370.094319418703,-120.831881483461,7.72347745344678));
#1413=CARTESIAN_POINT('',(374.36564707509,-119.161963192113,7.781792285169));
#1414=CARTESIAN_POINT('',(333.25068551704,-120.831881483461,7.72347745344678));
#1415=CARTESIAN_POINT('',(361.310702541447,-120.831881483461,7.72347745344678));
#1416=CARTESIAN_POINT('',(340.717564958308,-117.912630243247,7.82541995309479));
#1417=CARTESIAN_POINT('',(243.242803266549,-130.501424084402,7.38580958518868));
#1418=CARTESIAN_POINT('',(456.20002092429,-115.598826736882,7.90621975198978));
#1419=CARTESIAN_POINT('Origin',(457.25002171821,-115.598826736882,7.90621975198978));
#1420=CARTESIAN_POINT('Origin',(243.242803266549,-130.4665245877,6.38641875816958));
#1421=CARTESIAN_POINT('',(242.242478124847,-137.37894003346,6.14503189175699));
#1422=CARTESIAN_POINT('',(242.242803266549,-130.4665245877,6.38641875816958));
#1423=CARTESIAN_POINT('Origin',(243.242478124847,-137.37894003346,6.14503189175699));
#1424=CARTESIAN_POINT('Origin',(242.242803266549,-134.415667049105,7.24912120888359));
#1425=CARTESIAN_POINT('',(242.242478124847,-137.134643556543,-0.850703897376685));
#1426=CARTESIAN_POINT('Origin',(243.242478124847,-142.10716095573,-1.02434803126741));
#1427=CARTESIAN_POINT('',(242.242478124847,-142.274182493729,3.7585230345693));
#1428=CARTESIAN_POINT('Origin',(243.242478124847,-142.274182493729,3.7585230345693));
#1429=CARTESIAN_POINT('',(242.242478124847,-142.10716095573,-1.02434803126741));
#1430=CARTESIAN_POINT('Origin',(243.242478124847,-141.139946598337,4.97484211857374));
#1431=CARTESIAN_POINT('Origin',(243.242478124847,-142.274182493729,3.75852303456931));
#1432=CARTESIAN_POINT('',(243.242478124847,-140.86994641097,6.73066105684743));
#1433=CARTESIAN_POINT('',(243.242478124847,-141.871300299957,5.65684047863624));
#1434=CARTESIAN_POINT('',(242.242478124847,-140.13859270935,6.04866269678493));
#1435=CARTESIAN_POINT('Origin',(243.242478124847,-140.13859270935,6.04866269678493));
#1436=CARTESIAN_POINT('',(242.242478124847,-141.139946598337,4.97484211857374));
#1437=CARTESIAN_POINT('Origin',(243.242478124847,-142.274182493729,3.7585230345693));
#1438=CARTESIAN_POINT('Origin',(243.242478124847,-130.4665245877,6.38641875816958));
#1439=CARTESIAN_POINT('',(242.242478124847,-130.4665245877,6.38641875816958));
#1440=CARTESIAN_POINT('Origin',(243.242478124847,-140.13859270935,6.04866269678494));
#1441=CARTESIAN_POINT('Origin',(243.242478124847,-140.13859270935,6.04866269678494));
#1442=CARTESIAN_POINT('Origin',(243.242478124847,-140.13859270935,6.04866269678494));
#1443=CARTESIAN_POINT('Origin',(242.242478124847,-134.136471075485,-0.746005407269181));
#1444=CARTESIAN_POINT('Origin',(363.356673343382,-140.13859270935,6.04866269678494));
#1445=CARTESIAN_POINT('',(462.9550967598,-140.86994641097,6.73066105684743));
#1446=CARTESIAN_POINT('',(242.262478124847,-140.86994641097,6.73066105684743));
#1447=CARTESIAN_POINT('Ctrl Pts',(462.500006899238,-140.173492206053,7.04805352380403));
#1448=CARTESIAN_POINT('Ctrl Pts',(462.564024281137,-140.263971304744,7.04489392405482));
#1449=CARTESIAN_POINT('Ctrl Pts',(462.633810361967,-140.362016848894,7.02853657051181));
#1450=CARTESIAN_POINT('Ctrl Pts',(462.765341698888,-140.552271761822,6.96459986921341));
#1451=CARTESIAN_POINT('Ctrl Pts',(462.826982813268,-140.644532779079,6.91696003618309));
#1452=CARTESIAN_POINT('Ctrl Pts',(462.904967354733,-140.773473727676,6.82357043099414));
#1453=CARTESIAN_POINT('Ctrl Pts',(462.933234394808,-140.823612569409,6.78034801875276));
#1454=CARTESIAN_POINT('Ctrl Pts',(462.9550967598,-140.86994641097,6.73066105684744));
#1455=CARTESIAN_POINT('Origin',(374.09194160387,-142.27531326877,5.22358961243707));
#1456=CARTESIAN_POINT('Origin',(462.500006899238,-141.069699105874,6.51645251708906));
#1457=CARTESIAN_POINT('Origin',(460.000006899238,-113.319002170596,7.48552820800125));
#1458=CARTESIAN_POINT('',(460.000006899238,-110.320829689539,7.59022669810876));
#1459=CARTESIAN_POINT('Origin',(460.000006899238,-110.820525103048,7.57277694975751));
#1460=CARTESIAN_POINT('Origin',(462.500006899238,-113.319002170596,7.48552820800125));
#1461=CARTESIAN_POINT('Origin',(460.000006899238,-113.319002170596,7.48552820800125));
#1462=CARTESIAN_POINT('Origin',(460.000006899238,-113.057255945327,-0.00990299464196598));
#1463=CARTESIAN_POINT('',(460.000006899238,-110.05908346427,0.0947954954655372));
#1464=CARTESIAN_POINT('Origin',(462.500006899238,-130.483974336051,6.88611417167913));
#1465=CARTESIAN_POINT('Origin',(462.500006899238,-134.398217300754,6.74942579537404));
#1466=CARTESIAN_POINT('Origin',(402.499928124847,-142.837827776344,7.00504335272019));
#1467=CARTESIAN_POINT('',(402.500006020069,-111.964430417847,3.08011842380928));
#1468=CARTESIAN_POINT('',(402.500006020069,-110.165526929212,3.14293751787378));
#1469=CARTESIAN_POINT('',(402.500006020069,-110.165526929212,3.14293751787378));
#1470=CARTESIAN_POINT('',(402.499928124847,-110.199553938497,4.1173435742174));
#1471=CARTESIAN_POINT('',(402.499928124847,-111.964430417847,3.08011842380928));
#1472=CARTESIAN_POINT('Origin',(463.000006899238,-110.05908346427,0.0947954954655372));
#1473=CARTESIAN_POINT('',(402.500006020069,-110.112305196741,1.61886650666966));
#1474=CARTESIAN_POINT('',(395.562478124847,-110.320829689539,7.59022669810876));
#1475=CARTESIAN_POINT('',(395.562478124847,-110.05908346427,0.0947954954655372));
#1476=CARTESIAN_POINT('',(407.810705991066,-110.320829689539,7.59022669810876));
#1477=CARTESIAN_POINT('Origin',(402.500006020069,-110.165526929212,3.14293751787378));
#1478=CARTESIAN_POINT('',(402.500006020069,-111.877181676091,0.581641356261539));
#1479=CARTESIAN_POINT('Origin',(404.000006020069,-111.789932934334,-1.9168357112862));
#1480=CARTESIAN_POINT('',(395.902068590155,-111.789932934334,-1.9168357112862));
#1481=CARTESIAN_POINT('Origin',(247.580206033348,-134.34601770241,5.25033432906714));
#1482=CARTESIAN_POINT('',(247.580206033348,-134.068566703625,-2.69482274573467));
#1483=CARTESIAN_POINT('Origin',(260.300230054385,-129.516602899118,-2.5358646669827));
#1484=CARTESIAN_POINT('',(260.300230054385,-129.516602899118,-2.5358646669827));
#1485=CARTESIAN_POINT('Origin',(313.716912231761,-129.516602899118,-2.5358646669827));
#1486=CARTESIAN_POINT('',(313.716912231761,-129.516602899118,-2.5358646669827));
#1487=CARTESIAN_POINT('Origin',(333.495815626017,-121.783845262618,-2.26583082002294));
#1488=CARTESIAN_POINT('',(333.495815626017,-121.783845262618,-2.26583082002294));
#1489=CARTESIAN_POINT('Origin',(370.339567376001,-121.783845262618,-2.26583082002294));
#1490=CARTESIAN_POINT('',(370.339567376001,-121.783845262618,-2.26583082002294));
#1491=CARTESIAN_POINT('Origin',(395.902068590155,-111.789932934334,-1.9168357112862));
#1492=CARTESIAN_POINT('Origin',(340.717564958308,-117.895180494896,7.32572453958524));
#1493=CARTESIAN_POINT('',(333.156366098336,-120.3147363216,7.24123178828848));
#1494=CARTESIAN_POINT('',(340.535408101778,-117.429826006713,7.34197507639904));
#1495=CARTESIAN_POINT('Origin',(333.25068551704,-120.81443173511,7.22378203993723));
#1496=CARTESIAN_POINT('Origin',(361.310702541447,-120.81443173511,7.22378203993723));
#1497=CARTESIAN_POINT('',(370.,-120.3147363216,7.24123178828848));
#1498=CARTESIAN_POINT('',(361.310702541447,-120.3147363216,7.24123178828848));
#1499=CARTESIAN_POINT('Origin',(370.094319418703,-120.81443173511,7.22378203993723));
#1500=CARTESIAN_POINT('Origin',(374.36564707509,-119.144513443762,7.28209687165946));
#1501=CARTESIAN_POINT('',(374.18349021856,-118.679158955578,7.29834740847325));
#1502=CARTESIAN_POINT('Origin',(395.65679754355,-110.820525103048,7.57277694975751));
#1503=CARTESIAN_POINT('Origin',(407.810705991066,-110.820525103048,7.57277694975751));
#1504=CARTESIAN_POINT('Origin',(333.156366098336,-119.990171002267,-2.05310290298911));
#1505=CARTESIAN_POINT('',(333.156366098336,-119.990171002267,-2.05310290298911));
#1506=CARTESIAN_POINT('Origin',(370.,-119.990171002267,-2.05310290298911));
#1507=CARTESIAN_POINT('',(370.,-119.990171002267,-2.05310290298911));
#1508=CARTESIAN_POINT('Origin',(395.562478124847,-109.996264370205,-1.70410799316884));
#1509=CARTESIAN_POINT('Origin',(462.999871580065,-134.136471075485,-0.746005407269181));
#1510=CARTESIAN_POINT('Origin',(457.25002171821,-115.319630763262,-0.0889068641629931));
#1511=CARTESIAN_POINT('',(456.20002092429,-115.319630763262,-0.0889068641629931));
#1512=UNCERTAINTY_MEASURE_WITH_UNIT(LENGTH_MEASURE(0.01),#1516,
'DISTANCE_ACCURACY_VALUE',
'Maximum model space distance between geometric entities at asserted c
onnectivities');
#1513=UNCERTAINTY_MEASURE_WITH_UNIT(LENGTH_MEASURE(0.01),#1516,
'DISTANCE_ACCURACY_VALUE',
'Maximum model space distance between geometric entities at asserted c
onnectivities');
#1514=(
GEOMETRIC_REPRESENTATION_CONTEXT(3)
GLOBAL_UNCERTAINTY_ASSIGNED_CONTEXT((#1512))
GLOBAL_UNIT_ASSIGNED_CONTEXT((#1516,#1517,#1518))
REPRESENTATION_CONTEXT('','3D')
);
#1515=(
GEOMETRIC_REPRESENTATION_CONTEXT(3)
GLOBAL_UNCERTAINTY_ASSIGNED_CONTEXT((#1513))
GLOBAL_UNIT_ASSIGNED_CONTEXT((#1516,#1517,#1518))
REPRESENTATION_CONTEXT('','3D')
);
#1516=(
LENGTH_UNIT()
NAMED_UNIT(*)
SI_UNIT(.MILLI.,.METRE.)
);
#1517=(
NAMED_UNIT(*)
PLANE_ANGLE_UNIT()
SI_UNIT($,.RADIAN.)
);
#1518=(
NAMED_UNIT(*)
SI_UNIT($,.STERADIAN.)
SOLID_ANGLE_UNIT()
);
#1519=SHAPE_DEFINITION_REPRESENTATION(#1520,#1521);
#1520=PRODUCT_DEFINITION_SHAPE('',$,#1523);
#1521=SHAPE_REPRESENTATION('',(#912),#1514);
#1522=PRODUCT_DEFINITION_CONTEXT('part definition',#1527,'design');
#1523=PRODUCT_DEFINITION('GravaStar V60 1','WIEBZ K1 v2 MCU cover',#1524,
#1522);
#1524=PRODUCT_DEFINITION_FORMATION('',$,#1529);
#1525=PRODUCT_RELATED_PRODUCT_CATEGORY('WIEBZ K1 v2 MCU cover',
'WIEBZ K1 v2 MCU cover',(#1529));
#1526=APPLICATION_PROTOCOL_DEFINITION('international standard',
'automotive_design',2009,#1527);
#1527=APPLICATION_CONTEXT(
'Core Data for Automotive Mechanical Design Process');
#1528=PRODUCT_CONTEXT('part definition',#1527,'mechanical');
#1529=PRODUCT('GravaStar V60 1','WIEBZ K1 v2 MCU cover',
'KiCad electronic assembly',(#1528));
#1530=PRESENTATION_STYLE_ASSIGNMENT((#1532));
#1531=PRESENTATION_STYLE_ASSIGNMENT((#1533));
#1532=SURFACE_STYLE_USAGE(.BOTH.,#1534);
#1533=SURFACE_STYLE_USAGE(.BOTH.,#1535);
#1534=SURFACE_SIDE_STYLE('',(#1536));
#1535=SURFACE_SIDE_STYLE('',(#1537));
#1536=SURFACE_STYLE_FILL_AREA(#1538);
#1537=SURFACE_STYLE_FILL_AREA(#1539);
#1538=FILL_AREA_STYLE('Steel - Satin',(#1540));
#1539=FILL_AREA_STYLE('Opaque(39,38,38)',(#1541));
#1540=FILL_AREA_STYLE_COLOUR('Steel - Satin',#1542);
#1541=FILL_AREA_STYLE_COLOUR('Opaque(39,38,38)',#1543);
#1542=COLOUR_RGB('Steel - Satin',0.627450980392157,0.627450980392157,0.627450980392157);
#1543=COLOUR_RGB('Opaque(39,38,38)',0.152941176470588,0.149019607843137,
0.149019607843137);
ENDSEC;
END-ISO-10303-21;
